<svg xmlns="http://www.w3.org/2000/svg" viewBox="0 0 500 500"><path d="M184.9 352.6h-52.7c-1.6 0-2.9-1.3-2.9-2.9V297c0-1.6 1.3-2.9 2.9-2.9h52.7c1.6 0 2.9 1.3 2.9 2.9v52.7c0 1.6-1.3 2.9-2.9 2.9zm1.1 95.2h-52.7c-1.6 0-2.9-1.3-2.9-2.9v-52.7c0-1.6 1.3-2.9 2.9-2.9H186c1.6 0 2.9 1.3 2.9 2.9v52.7c.1 1.6-1.3 2.9-2.9 2.9zm100.4 0h-52.7c-1.6 0-2.9-1.3-2.9-2.9v-52.7c0-1.6 1.3-2.9 2.9-2.9h52.7c1.6 0 2.9 1.3 2.9 2.9v52.7c0 1.6-1.3 2.9-2.9 2.9zM584 352.7c0-31.3-25.4-56.7-56.7-56.7H379.7c-31.3 0-56.7 25.4-56.7 56.7v138.5c0 31.3 25.4 56.7 56.7 56.7h147.5c31.3 0 56.7-25.4 56.7-56.7V352.7zM554 458h-69v70h-62v-70h-69v-61h69v-70h62v70h69v61zM198.7 256.7h-80.3c-27.8 0-50.5-22.6-50.5-50.5v-71.9c0-27.8 22.6-50.5 50.5-50.5h80.3c27.8 0 50.5 22.6 50.5 50.5v71.9c0 27.8-22.7 50.5-50.5 50.5zm-80.3-139.2c-9.3 0-16.8 7.5-16.8 16.8v71.9c0 9.3 7.6 16.8 16.8 16.8h80.3c9.3 0 16.8-7.5 16.8-16.8v-71.9c0-9.3-7.6-16.8-16.8-16.8h-80.3z"/></svg>