<svg xmlns="http://www.w3.org/2000/svg" viewBox="0 0 500 500"><path d="M372 170.9h-80.1c-27.8 0-50.4-22.6-50.4-50.4V48.8c0-27.8 22.6-50.4 50.4-50.4H372c27.8 0 50.4 22.6 50.4 50.4v71.7c0 27.8-22.6 50.4-50.4 50.4zM291.8 32c-9.3 0-16.8 7.5-16.8 16.8v71.7c0 9.3 7.5 16.8 16.8 16.8H372c9.3 0 16.8-7.5 16.8-16.8V48.8c0-9.3-7.5-16.8-16.8-16.8h-80.2zM462 445.6c0-31.3-25.3-56.6-56.6-56.6H258.6c-31.3 0-56.6 25.3-56.6 56.6v136.8c0 31.3 25.3 56.6 56.6 56.6h146.8c31.3 0 56.6-25.3 56.6-56.6V445.6zM432 549h-70v70h-61v-70h-69v-60h69v-70h61v70h70v60z"/><circle cx="331.8" cy="226.4" r="33"/><circle cx="331.8" cy="316.6" r="33"/></svg>