<svg xmlns="http://www.w3.org/2000/svg" viewBox="0 0 500 500"><g fill="#010101"><path d="M443.3 36.6c-3.1-3.1-7.1-4.6-11.4-4.6H80c-4.3 0-8 1.5-11.4 4.6C65.5 39.7 64 43.7 64 48v416.1c0 4.3 1.5 8 4.6 11.4 3.1 3.1 7.1 4.6 11.4 4.6h352.3c4.3 0 8-1.5 11.4-4.6 3.1-3.1 4.6-7.1 4.6-11.4V48c-.1-4.3-1.9-8-5-11.4zM416 448.1h-96v-55.9c0-2.1-.9-4-2.5-5.5-1.5-1.5-3.4-2.5-5.5-2.5H200c-2.1 0-4 .9-5.5 2.5-1.5 1.5-2.5 3.4-2.5 5.5v55.9H95.9V63.9h320.4v384.2h-.3z"/><path d="M135.8 384h16c2.1 0 4-.9 5.5-2.5 1.5-1.5 2.5-3.4 2.5-5.5v-16c0-2.1-.9-4-2.5-5.5-1.5-1.5-3.4-2.5-5.5-2.5h-16c-2.1 0-4 .9-5.5 2.5-1.5 1.5-2.5 3.4-2.5 5.5v16c0 2.1.9 4 2.5 5.5 1.5 1.9 3.4 2.5 5.5 2.5zm0-63.8h16c2.1 0 4-.9 5.5-2.5 1.5-1.5 2.5-3.4 2.5-5.5v-16.3c0-2.1-.9-4-2.5-5.5-1.5-1.5-3.4-2.5-5.5-2.5h-16c-2.1 0-4 .9-5.5 2.5-1.5 1.5-2.5 3.4-2.5 5.5v16c0 2.1.9 4 2.5 5.5 1.5 1.8 3.4 2.8 5.5 2.8zm64.2 0h16c2.1 0 4-.9 5.5-2.5 1.5-1.5 2.5-3.4 2.5-5.5v-16.3c0-2.1-.9-4-2.5-5.5-1.5-1.5-3.4-2.5-5.5-2.5h-16c-2.1 0-4 .9-5.5 2.5-1.5 1.5-2.5 3.4-2.5 5.5v16c0 2.1.9 4 2.5 5.5 1.2 1.8 3.3 2.8 5.5 2.8zM135.8 256h16c2.1 0 4-.9 5.5-2.5s2.5-3.4 2.5-5.5v-16c0-2.1-.9-4-2.5-5.5s-3.4-2.5-5.5-2.5h-16c-2.1 0-4 .9-5.5 2.5s-2.5 3.4-2.5 5.5v16c0 2.1.9 4 2.5 5.5s3.4 2.5 5.5 2.5zM360 384h16c2.1 0 4-.9 5.5-2.5 1.5-1.5 2.5-3.4 2.5-5.5v-16c0-2.1-.9-4-2.5-5.5-1.5-1.5-3.4-2.5-5.5-2.5h-16c-2.1 0-4 .9-5.5 2.5-1.5 1.5-2.5 3.4-2.5 5.5v16c0 2.1.9 4 2.5 5.5 1.5 1.9 3.3 2.5 5.5 2.5zm-63.9-63.8h16c2.1 0 4-.9 5.5-2.5 1.5-1.5 2.5-3.4 2.5-5.5V296c0-2.1-.9-4-2.5-5.5s-3.4-2.5-5.5-2.5h-16c-2.1 0-4 .9-5.5 2.5-1.5 1.5-2.5 3.4-2.5 5.5v16c0 2.1.9 4 2.5 5.5 1.5 1.8 3.3 2.7 5.5 2.7zM200 256h16c2.1 0 4-.9 5.5-2.5s2.5-3.4 2.5-5.5v-16c0-2.1-.9-4-2.5-5.5s-3.4-2.5-5.5-2.5h-16c-2.1 0-4 .9-5.5 2.5s-2.5 3.4-2.5 5.5v16c0 2.1.9 4 2.5 5.5s3.3 2.5 5.5 2.5zm-64.2-64.1h16c2.1 0 4-.9 5.5-2.5s2.5-3.4 2.5-5.5v-16c0-2.1-.9-4-2.5-5.5-1.5-1.5-3.4-2.5-5.5-2.5h-16c-2.1 0-4 .9-5.5 2.5-1.5 1.5-2.5 3.4-2.5 5.5v16c0 2.1.9 4 2.5 5.5s3.4 2.5 5.5 2.5zm224.3 128.3h16c2.1 0 4-.9 5.5-2.5 1.5-1.5 2.5-3.4 2.5-5.5v-16.3c0-2.1-.9-4-2.5-5.5-1.5-1.5-3.4-2.5-5.5-2.5h-16c-2.1 0-4 .9-5.5 2.5-1.5 1.5-2.5 3.4-2.5 5.5v16c0 2.1.9 4 2.5 5.5 1.5 1.8 3.3 2.8 5.5 2.8zm-64-64.3h16c2.1 0 4-.9 5.5-2.5 1.5-1.5 2.5-3.4 2.5-5.5v-16c0-2.1-.9-4-2.5-5.5-1.5-1.5-3.4-2.5-5.5-2.5h-16c-2.1 0-4 .9-5.5 2.5-1.5 1.5-2.5 3.4-2.5 5.5v16c0 2.1.9 4 2.5 5.5 1.5 1.6 3.3 2.5 5.5 2.5zm-96.1-64h16c2.1 0 4-.9 5.5-2.5s2.5-3.4 2.5-5.5v-16c0-2.1-.9-4-2.5-5.5-1.5-1.5-3.4-2.5-5.5-2.5h-16c-2.1 0-4 .9-5.5 2.5-1.5 1.5-2.5 3.4-2.5 5.5v16c0 2.1.9 4 2.5 5.5s3.3 2.5 5.5 2.5zm-64.2-63.8h16c2.1 0 4-.9 5.5-2.5s2.5-3.4 2.5-5.5v-16c0-2.1-.9-4-2.5-5.5-1.5-1.5-3.4-2.5-5.5-2.5h-16c-2.1 0-4 .9-5.5 2.5-1.5 1.5-2.5 3.4-2.5 5.5v16c0 2.1.9 4 2.5 5.5s3.4 2.5 5.5 2.5zM360 256h16c2.1 0 4-.9 5.5-2.5 1.5-1.5 2.5-3.4 2.5-5.5v-16c0-2.1-.9-4-2.5-5.5-1.5-1.5-3.4-2.5-5.5-2.5h-16c-2.1 0-4 .9-5.5 2.5s-2.5 3.4-2.5 5.5v16c0 2.1.9 4 2.5 5.5s3.3 2.5 5.5 2.5zm-64-64.1h16c2.1 0 4-.9 5.5-2.5 1.5-1.5 2.5-3.4 2.5-5.5v-16c0-2.1-.9-4-2.5-5.5-1.5-1.5-3.4-2.5-5.5-2.5h-16c-2.1 0-4 .9-5.5 2.5s-2.5 3.4-2.5 5.5v16c0 2.1.9 4 2.5 5.5 1.5 1.9 3.3 2.5 5.5 2.5zm-96-63.8h16c2.1 0 4-.9 5.5-2.5s2.5-3.4 2.5-5.5v-16c0-2.1-.9-4-2.5-5.5-1.5-1.5-3.4-2.5-5.5-2.5h-16c-2.1 0-4 .9-5.5 2.5-1.5 1.5-2.5 3.4-2.5 5.5v16c0 2.1.9 4 2.5 5.5s3.3 2.5 5.5 2.5zM360.1 192h16c2.1 0 4-.9 5.5-2.5s2.5-3.4 2.5-5.5v-16c0-2.1-.9-4-2.5-5.5s-3.4-2.5-5.5-2.5h-16c-2.1 0-4 .9-5.5 2.5-1.5 1.5-2.5 3.4-2.5 5.5v16c0 2.1.9 4 2.5 5.5 1.5 1.9 3.3 2.5 5.5 2.5zM296 128h16c2.1 0 4-.9 5.5-2.5 1.5-1.5 2.5-3.4 2.5-5.5v-16c0-2.1-.9-4-2.5-5.5C316 97 314.1 96 312 96h-16c-2.1 0-4 .9-5.5 2.5s-2.5 3.4-2.5 5.5v16c0 2.1.9 4 2.5 5.5 1.5 1.6 3.3 2.5 5.5 2.5zm64.1 0h16c2.1 0 4-.9 5.5-2.5 1.5-1.5 2.5-3.4 2.5-5.5v-16c0-2.1-.9-4-2.5-5.5s-3.4-2.5-5.5-2.5h-16c-2.1 0-4 .9-5.5 2.5-1.5 1.5-2.5 3.4-2.5 5.5v16c0 2.1.9 4 2.5 5.5 1.5 1.6 3.3 2.5 5.5 2.5z"/></g></svg>