<svg xmlns="http://www.w3.org/2000/svg" viewBox="0 0 500 500"><path fill="#010101" d="M477.7 127.5c-22.9-28.1-53.9-50.3-93.1-66.6S302.5 36.5 256 36.5c-34.7 0-67.8 4.8-99.4 14.4S97.7 73.6 74.9 90c-22.9 16.4-41 35.9-54.6 58.4C6.8 171 0 194.6 0 219.4c0 28.6 8.6 55.3 25.9 80.3s40.8 45.9 70.7 62.9c-2.1 7.6-4.6 14.9-7.4 21.7s-5.4 12.5-7.7 16.9c-2.3 4.4-5.4 9.2-9.3 14.6-3.9 5.3-6.9 9.1-8.9 11.3-2 2.2-5.3 5.8-9.9 10.9-4.6 5-7.5 8.3-8.9 9.9-.2.1-1 1-2.3 2.6-1.3 1.6-2 2.4-2 2.4l-1.7 2.6c-1 1.4-1.4 2.3-1.3 2.7.1.4-.1 1.3-.6 2.9-.5 1.5-.4 2.7.1 3.4v.3c.8 3.4 2.4 6.2 5 8.3 2.6 2.1 5.5 3 8.7 2.6 12.4-1.5 23.2-3.6 32.6-6.3 49.9-12.8 93.7-35.8 131.4-69.1 14.3 1.5 28.1 2.3 41.4 2.3 46.5 0 89.3-8.1 128.6-24.4 39.2-16.3 70.3-38.5 93.1-66.6 22.9-28.1 34.3-58.7 34.3-91.8.2-33.6-11.2-64.2-34.1-92.3zM287 313.7c0 2.8-1 5.2-3.1 7.3-2 2-4.5 3.1-7.3 3.1h-41.4c-2.8 0-5.2-1-7.3-3.1-2-2-3.1-4.5-3.1-7.3v-36.2c0-2.8 1-5.2 3.1-7.3 2-2 4.5-3.1 7.3-3.1h41.4c2.8 0 5.2 1 7.3 3.1 2 2 3.1 4.5 3.1 7.3v36.2zm.3-72c-.1 2.8-1.2 5.2-3.3 7.3-2.1 2-4.6 3.1-7.4 3.1h-41.4c-2.8 0-5.3-1-7.4-3.1-2.1-2-3.2-4.5-3.3-7.3L220 118.4c-.1-2.8.8-5.2 2.8-7.3 2-2 4.4-3.1 7.2-3.1h51.7c2.8 0 5.2 1 7.2 3.1 2 2 2.9 4.5 2.8 7.3l-4.4 123.3z"/></svg>