<svg id="Layer_1" xmlns="http://www.w3.org/2000/svg" viewBox="0 0 566 497.8"><style>.st0{fill:#010101}</style><path class="st0" d="M559.6 123.2L468.4 216c-3.2 3.2-8 5.6-12.8 5.6s-9.6-1.6-12.8-5.6l-10.4-10.4c-3.2-3.2-5.6-8-5.6-12.8s1.6-9.6 5.6-12.8l40.8-41.6h-98.4c-10.4 0-16.8-8.8-16.8-18.4v-18.4c0-9.6 6.4-18.4 16.8-18.4H474l-40.8-41.6c-3.2-3.2-5.6-8-5.6-12.8s1.6-9.6 5.6-12.8l10.4-10.4c3.2-3.2 8-5.6 12.8-5.6s9.6 1.6 12.8 5.6l91.2 92c3.2 3.2 5.6 8 5.6 12.8s-2.4 9.6-6.4 12.8z"/><path d="M290.2 4.3v73c-56.7-11.7-108.6-1.7-153.7 35.3-33.8 27.7-54.7 63.5-61.4 106.7-13.9 90.3 41.5 175.4 128.4 197.4 92.8 23.5 185.7-28.9 213.4-122.8h72.9c-.7 70.9-80.4 162-167.1 189.3-99.9 31.5-209.4-1.1-274.2-88.8-63.6-86.1-64.7-202.8-2.8-290.2C107 17.7 208.2-12 290.2 4.3z"/><path d="M253.5 247.4v-108c0-13.8 1.7-15.5 15.7-15.5h12.3c10.5.1 13.2 2.6 13.2 13v107.8c0 10.7.1 21.4 0 32.1-.1 8.7-3.2 11.8-11.9 11.8-33.2.1-66.4.1-99.5 0-8.9 0-11.9-3-12-11.7-.1-6-.1-12.1 0-18.1.2-8.2 3.3-11.3 11.5-11.3 21.4-.1 42.8 0 64.2 0 1.8-.1 3.6-.1 6.5-.1z"/></svg>