<svg xmlns="http://www.w3.org/2000/svg" viewBox="0 0 500 500"><g fill="#010101"><path d="M349.7 34.3c-1.5-1.5-3.5-2.3-5.7-2.3H168c-2.1 0-4 .8-5.7 2.3-1.5 1.5-2.3 3.5-2.3 5.7l-.1 432c0 2.1.8 4 2.3 5.7 1.5 1.5 3.5 2.3 5.7 2.3H344c2.1 0 4-.8 5.7-2.3 1.5-1.5 2.3-3.5 2.3-5.7l.1-432c0-2.2-.9-4-2.4-5.7zM335.9 464h-48v-27.9c0-1.1-.5-2-1.2-2.8-.8-.8-1.7-1.2-2.8-1.2h-56c-1.1 0-2 .5-2.8 1.2-.8.8-1.2 1.7-1.2 2.8V464h-48l.1-416h160.2l-.2 416h-.1z"/><path d="M203.2 120h8c1.1 0 2-.5 2.8-1.2.8-.8 1.2-1.7 1.2-2.8v-8c0-1.1-.5-2-1.2-2.8-.8-.8-1.7-1.2-2.8-1.2h-8c-1.1 0-2 .5-2.8 1.2-.8.8-1.2 1.7-1.2 2.8v8c0 1.1.5 2 1.2 2.8.8.9 1.8 1.2 2.8 1.2zm33.6 0h8c1.1 0 2-.5 2.8-1.2.8-.8 1.2-1.7 1.2-2.8v-8c0-1.1-.5-2-1.2-2.8-.8-.8-1.7-1.2-2.8-1.2h-8c-1.1 0-2 .5-2.8 1.2-.8.8-1.2 1.7-1.2 2.8v8c0 1.1.5 2 1.2 2.8.8.9 1.7 1.2 2.8 1.2zm-33.6 32h8c1.1 0 2-.5 2.8-1.2.8-.8 1.2-1.7 1.2-2.8v-8c0-1.1-.5-2-1.2-2.8-.8-.8-1.7-1.2-2.8-1.2h-8c-1.1 0-2 .5-2.8 1.2-.8.8-1.2 1.7-1.2 2.8v8c0 1.1.5 2 1.2 2.8.8.7 1.8 1.2 2.8 1.2zm33.6 0h8c1.1 0 2-.5 2.8-1.2.8-.8 1.2-1.7 1.2-2.8v-8c0-1.1-.5-2-1.2-2.8-.8-.8-1.7-1.2-2.8-1.2h-8c-1.1 0-2 .5-2.8 1.2-.8.8-1.2 1.7-1.2 2.8v8c0 1.1.5 2 1.2 2.8.8.7 1.7 1.2 2.8 1.2z"/></g><path fill="#010101" d="M268 120h8c1.1 0 2-.5 2.8-1.2s1.2-1.7 1.2-2.8v-8c0-1.1-.5-2-1.2-2.8s-1.7-1.2-2.8-1.2h-8c-1.1 0-2 .5-2.8 1.2s-1.2 1.7-1.2 2.8v8c0 1.1.5 2 1.2 2.8.8.9 1.7 1.2 2.8 1.2zm0 32h8c1.1 0 2-.5 2.8-1.2.8-.8 1.2-1.7 1.2-2.8v-8c0-1.1-.5-2-1.2-2.8-.8-.8-1.7-1.2-2.8-1.2h-8c-1.1 0-2 .5-2.8 1.2-.8.8-1.2 1.7-1.2 2.8v8c0 1.1.5 2 1.2 2.8.8.7 1.7 1.2 2.8 1.2zm32-32h8c1.1 0 2-.5 2.8-1.2s1.2-1.7 1.2-2.8v-8c0-1.1-.5-2-1.2-2.8s-1.7-1.2-2.8-1.2h-8c-1.1 0-2 .5-2.8 1.2s-1.2 1.7-1.2 2.8v8c0 1.1.5 2 1.2 2.8.8.9 1.7 1.2 2.8 1.2zm0 32h8c1.1 0 2-.5 2.8-1.2.8-.8 1.2-1.7 1.2-2.8v-8c0-1.1-.5-2-1.2-2.8-.8-.8-1.7-1.2-2.8-1.2h-8c-1.1 0-2 .5-2.8 1.2-.8.8-1.2 1.7-1.2 2.8v8c0 1.1.5 2 1.2 2.8.8.7 1.7 1.2 2.8 1.2zm-96.8 32h8c1.1 0 2-.5 2.8-1.2.8-.8 1.2-1.7 1.2-2.8v-8c0-1.1-.5-2-1.2-2.8-.8-.8-1.7-1.2-2.8-1.2h-8c-1.1 0-2 .5-2.8 1.2-.8.8-1.2 1.7-1.2 2.8v8c0 1.1.5 2 1.2 2.8.8.7 1.8 1.2 2.8 1.2zm33.6 0h8c1.1 0 2-.5 2.8-1.2.8-.8 1.2-1.7 1.2-2.8v-8c0-1.1-.5-2-1.2-2.8-.8-.8-1.7-1.2-2.8-1.2h-8c-1.1 0-2 .5-2.8 1.2-.8.8-1.2 1.7-1.2 2.8v8c0 1.1.5 2 1.2 2.8.8.7 1.7 1.2 2.8 1.2zm31.2 0h8c1.1 0 2-.5 2.8-1.2.8-.8 1.2-1.7 1.2-2.8v-8c0-1.1-.5-2-1.2-2.8-.8-.8-1.7-1.2-2.8-1.2h-8c-1.1 0-2 .5-2.8 1.2-.8.8-1.2 1.7-1.2 2.8v8c0 1.1.5 2 1.2 2.8.8.7 1.7 1.2 2.8 1.2zm32 0h8c1.1 0 2-.5 2.8-1.2.8-.8 1.2-1.7 1.2-2.8v-8c0-1.1-.5-2-1.2-2.8-.8-.8-1.7-1.2-2.8-1.2h-8c-1.1 0-2 .5-2.8 1.2-.8.8-1.2 1.7-1.2 2.8v8c0 1.1.5 2 1.2 2.8.8.7 1.7 1.2 2.8 1.2zm-96.8 32h8c1.1 0 2-.5 2.8-1.2.8-.8 1.2-1.7 1.2-2.8v-8c0-1.1-.5-2-1.2-2.8-.8-.8-1.7-1.2-2.8-1.2h-8c-1.1 0-2 .5-2.8 1.2-.8.8-1.2 1.7-1.2 2.8v8c0 1.1.5 2 1.2 2.8.8.7 1.8 1.2 2.8 1.2zm33.6 0h8c1.1 0 2-.5 2.8-1.2.8-.8 1.2-1.7 1.2-2.8v-8c0-1.1-.5-2-1.2-2.8-.8-.8-1.7-1.2-2.8-1.2h-8c-1.1 0-2 .5-2.8 1.2-.8.8-1.2 1.7-1.2 2.8v8c0 1.1.5 2 1.2 2.8.8.7 1.7 1.2 2.8 1.2zm31.2 0h8c1.1 0 2-.5 2.8-1.2.8-.8 1.2-1.7 1.2-2.8v-8c0-1.1-.5-2-1.2-2.8-.8-.8-1.7-1.2-2.8-1.2h-8c-1.1 0-2 .5-2.8 1.2-.8.8-1.2 1.7-1.2 2.8v8c0 1.1.5 2 1.2 2.8.8.7 1.7 1.2 2.8 1.2zm32 0h8c1.1 0 2-.5 2.8-1.2.8-.8 1.2-1.7 1.2-2.8v-8c0-1.1-.5-2-1.2-2.8-.8-.8-1.7-1.2-2.8-1.2h-8c-1.1 0-2 .5-2.8 1.2-.8.8-1.2 1.7-1.2 2.8v8c0 1.1.5 2 1.2 2.8.8.7 1.7 1.2 2.8 1.2zm-96.8 32h8c1.1 0 2-.5 2.8-1.2.8-.8 1.2-1.7 1.2-2.8v-8c0-1.1-.5-2-1.2-2.8-.8-.8-1.7-1.2-2.8-1.2h-8c-1.1 0-2 .5-2.8 1.2-.8.8-1.2 1.7-1.2 2.8v8c0 1.1.5 2 1.2 2.8.8.7 1.8 1.2 2.8 1.2zm33.6 0h8c1.1 0 2-.5 2.8-1.2.8-.8 1.2-1.7 1.2-2.8v-8c0-1.1-.5-2-1.2-2.8-.8-.8-1.7-1.2-2.8-1.2h-8c-1.1 0-2 .5-2.8 1.2-.8.8-1.2 1.7-1.2 2.8v8c0 1.1.5 2 1.2 2.8.8.7 1.7 1.2 2.8 1.2zm31.2 0h8c1.1 0 2-.5 2.8-1.2.8-.8 1.2-1.7 1.2-2.8v-8c0-1.1-.5-2-1.2-2.8-.8-.8-1.7-1.2-2.8-1.2h-8c-1.1 0-2 .5-2.8 1.2-.8.8-1.2 1.7-1.2 2.8v8c0 1.1.5 2 1.2 2.8.8.7 1.7 1.2 2.8 1.2zm32 0h8c1.1 0 2-.5 2.8-1.2.8-.8 1.2-1.7 1.2-2.8v-8c0-1.1-.5-2-1.2-2.8-.8-.8-1.7-1.2-2.8-1.2h-8c-1.1 0-2 .5-2.8 1.2-.8.8-1.2 1.7-1.2 2.8v8c0 1.1.5 2 1.2 2.8.8.7 1.7 1.2 2.8 1.2zm-96.8 32h8c1.1 0 2-.5 2.8-1.2.8-.8 1.2-1.7 1.2-2.8v-8c0-1.1-.5-2-1.2-2.8-.8-.8-1.7-1.2-2.8-1.2h-8c-1.1 0-2 .5-2.8 1.2-.8.8-1.2 1.7-1.2 2.8v8c0 1.1.5 2 1.2 2.8.8.7 1.8 1.2 2.8 1.2zm33.6 0h8c1.1 0 2-.5 2.8-1.2.8-.8 1.2-1.7 1.2-2.8v-8c0-1.1-.5-2-1.2-2.8-.8-.8-1.7-1.2-2.8-1.2h-8c-1.1 0-2 .5-2.8 1.2-.8.8-1.2 1.7-1.2 2.8v8c0 1.1.5 2 1.2 2.8.8.7 1.7 1.2 2.8 1.2zm31.2 0h8c1.1 0 2-.5 2.8-1.2s1.2-1.7 1.2-2.8v-8c0-1.1-.5-2-1.2-2.8s-1.7-1.2-2.8-1.2h-8c-1.1 0-2 .5-2.8 1.2s-1.2 1.7-1.2 2.8v8c0 1.1.5 2 1.2 2.8s1.7 1.2 2.8 1.2zm32 0h8c1.1 0 2-.5 2.8-1.2s1.2-1.7 1.2-2.8v-8c0-1.1-.5-2-1.2-2.8s-1.7-1.2-2.8-1.2h-8c-1.1 0-2 .5-2.8 1.2s-1.2 1.7-1.2 2.8v8c0 1.1.5 2 1.2 2.8s1.7 1.2 2.8 1.2zm-96.8 32h8c1.1 0 2-.5 2.8-1.2.8-.8 1.2-1.7 1.2-2.8v-8c0-1.1-.5-2-1.2-2.8-.8-.8-1.7-1.2-2.8-1.2h-8c-1.1 0-2 .5-2.8 1.2-.8.8-1.2 1.7-1.2 2.8v8c0 1.1.5 2 1.2 2.8.8.7 1.8 1.2 2.8 1.2zm33.6 0h8c1.1 0 2-.5 2.8-1.2.8-.8 1.2-1.7 1.2-2.8v-8c0-1.1-.5-2-1.2-2.8-.8-.8-1.7-1.2-2.8-1.2h-8c-1.1 0-2 .5-2.8 1.2-.8.8-1.2 1.7-1.2 2.8v8c0 1.1.5 2 1.2 2.8.8.7 1.7 1.2 2.8 1.2zm31.2 0h8c1.1 0 2-.5 2.8-1.2s1.2-1.7 1.2-2.8v-8c0-1.1-.5-2-1.2-2.8s-1.7-1.2-2.8-1.2h-8c-1.1 0-2 .5-2.8 1.2s-1.2 1.7-1.2 2.8v8c0 1.1.5 2 1.2 2.8s1.7 1.2 2.8 1.2zm32 0h8c1.1 0 2-.5 2.8-1.2s1.2-1.7 1.2-2.8v-8c0-1.1-.5-2-1.2-2.8s-1.7-1.2-2.8-1.2h-8c-1.1 0-2 .5-2.8 1.2s-1.2 1.7-1.2 2.8v8c0 1.1.5 2 1.2 2.8s1.7 1.2 2.8 1.2zm-96.8 32h8c1.1 0 2-.5 2.8-1.2.8-.8 1.2-1.7 1.2-2.8v-8c0-1.1-.5-2-1.2-2.8-.8-.8-1.7-1.2-2.8-1.2h-8c-1.1 0-2 .5-2.8 1.2-.8.8-1.2 1.7-1.2 2.8v8c0 1.1.5 2 1.2 2.8.8.7 1.8 1.2 2.8 1.2zm33.6 0h8c1.1 0 2-.5 2.8-1.2.8-.8 1.2-1.7 1.2-2.8v-8c0-1.1-.5-2-1.2-2.8-.8-.8-1.7-1.2-2.8-1.2h-8c-1.1 0-2 .5-2.8 1.2-.8.8-1.2 1.7-1.2 2.8v8c0 1.1.5 2 1.2 2.8.8.7 1.7 1.2 2.8 1.2zm31.2 0h8c1.1 0 2-.5 2.8-1.2s1.2-1.7 1.2-2.8v-8c0-1.1-.5-2-1.2-2.8s-1.7-1.2-2.8-1.2h-8c-1.1 0-2 .5-2.8 1.2s-1.2 1.7-1.2 2.8v8c0 1.1.5 2 1.2 2.8s1.7 1.2 2.8 1.2zm32 0h8c1.1 0 2-.5 2.8-1.2s1.2-1.7 1.2-2.8v-8c0-1.1-.5-2-1.2-2.8s-1.7-1.2-2.8-1.2h-8c-1.1 0-2 .5-2.8 1.2s-1.2 1.7-1.2 2.8v8c0 1.1.5 2 1.2 2.8s1.7 1.2 2.8 1.2zm-96.8 32h8c1.1 0 2-.5 2.8-1.2.8-.8 1.2-1.7 1.2-2.8v-8c0-1.1-.5-2-1.2-2.8-.8-.8-1.7-1.2-2.8-1.2h-8c-1.1 0-2 .5-2.8 1.2-.8.8-1.2 1.7-1.2 2.8v8c0 1.1.5 2 1.2 2.8.8.7 1.8 1.2 2.8 1.2zm33.6 0h8c1.1 0 2-.5 2.8-1.2.8-.8 1.2-1.7 1.2-2.8v-8c0-1.1-.5-2-1.2-2.8-.8-.8-1.7-1.2-2.8-1.2h-8c-1.1 0-2 .5-2.8 1.2-.8.8-1.2 1.7-1.2 2.8v8c0 1.1.5 2 1.2 2.8.8.7 1.7 1.2 2.8 1.2zm31.2 0h8c1.1 0 2-.5 2.8-1.2s1.2-1.7 1.2-2.8v-8c0-1.1-.5-2-1.2-2.8s-1.7-1.2-2.8-1.2h-8c-1.1 0-2 .5-2.8 1.2s-1.2 1.7-1.2 2.8v8c0 1.1.5 2 1.2 2.8s1.7 1.2 2.8 1.2zm32 0h8c1.1 0 2-.5 2.8-1.2s1.2-1.7 1.2-2.8v-8c0-1.1-.5-2-1.2-2.8s-1.7-1.2-2.8-1.2h-8c-1.1 0-2 .5-2.8 1.2s-1.2 1.7-1.2 2.8v8c0 1.1.5 2 1.2 2.8s1.7 1.2 2.8 1.2zm-96.8 32h8c1.1 0 2-.5 2.8-1.2.8-.8 1.2-1.7 1.2-2.8v-8c0-1.1-.5-2-1.2-2.8-.8-.8-1.7-1.2-2.8-1.2h-8c-1.1 0-2 .5-2.8 1.2-.8.8-1.2 1.7-1.2 2.8v8c0 1.1.5 2 1.2 2.8.8.7 1.8 1.2 2.8 1.2zm33.6 0h8c1.1 0 2-.5 2.8-1.2.8-.8 1.2-1.7 1.2-2.8v-8c0-1.1-.5-2-1.2-2.8-.8-.8-1.7-1.2-2.8-1.2h-8c-1.1 0-2 .5-2.8 1.2-.8.8-1.2 1.7-1.2 2.8v8c0 1.1.5 2 1.2 2.8.8.7 1.7 1.2 2.8 1.2zm31.2 0h8c1.1 0 2-.5 2.8-1.2s1.2-1.7 1.2-2.8v-8c0-1.1-.5-2-1.2-2.8s-1.7-1.2-2.8-1.2h-8c-1.1 0-2 .5-2.8 1.2s-1.2 1.7-1.2 2.8v8c0 1.1.5 2 1.2 2.8s1.7 1.2 2.8 1.2zm32 0h8c1.1 0 2-.5 2.8-1.2s1.2-1.7 1.2-2.8v-8c0-1.1-.5-2-1.2-2.8s-1.7-1.2-2.8-1.2h-8c-1.1 0-2 .5-2.8 1.2s-1.2 1.7-1.2 2.8v8c0 1.1.5 2 1.2 2.8s1.7 1.2 2.8 1.2zm193.7-181.7c-1.5-1.5-3.5-2.3-5.7-2.3H344c-2.1 0-4 .8-5.7 2.3-1.5 1.5-2.3 3.5-2.3 5.7v240c0 2.1.8 4 2.3 5.7 1.5 1.5 3.5 2.3 5.7 2.3h144.1c2.1 0 4-.8 5.7-2.3 1.5-1.5 2.3-3.5 2.3-5.7V232c0-2.2-.9-4-2.4-5.7zM480 464h-32v-27.9c0-1.1-.5-2-1.2-2.8-.8-.8-1.7-1.2-2.8-1.2h-56c-1.1 0-2 .5-2.8 1.2-.8.8-1.2 1.7-1.2 2.8V464h-32V240h128.2v224h-.2z"/><path fill="#010101" d="M363.3 280h8c1.1 0 2-.5 2.8-1.2s1.2-1.7 1.2-2.8v-8c0-1.1-.5-2-1.2-2.8s-1.7-1.2-2.8-1.2h-8c-1.1 0-2 .5-2.8 1.2-.8.8-1.2 1.7-1.2 2.8v8c0 1.1.5 2 1.2 2.8.8.7 1.8 1.2 2.8 1.2zm33.6 0h8c1.1 0 2-.5 2.8-1.2.8-.8 1.2-1.7 1.2-2.8v-8c0-1.1-.5-2-1.2-2.8-.8-.8-1.7-1.2-2.8-1.2h-8c-1.1 0-2 .5-2.8 1.2-.8.8-1.2 1.7-1.2 2.8v8c0 1.1.5 2 1.2 2.8.8.7 1.7 1.2 2.8 1.2zm31.2 0h8c1.1 0 2-.5 2.8-1.2.8-.8 1.2-1.7 1.2-2.8v-8c0-1.1-.5-2-1.2-2.8-.8-.8-1.7-1.2-2.8-1.2h-8c-1.1 0-2 .5-2.8 1.2-.8.8-1.2 1.7-1.2 2.8v8c0 1.1.5 2 1.2 2.8.8.7 1.7 1.2 2.8 1.2zm32 0h8c1.1 0 2-.5 2.8-1.2.8-.8 1.2-1.7 1.2-2.8v-8c0-1.1-.5-2-1.2-2.8-.8-.8-1.7-1.2-2.8-1.2h-8c-1.1 0-2 .5-2.8 1.2s-1.2 1.7-1.2 2.8v8c0 1.1.5 2 1.2 2.8s1.7 1.2 2.8 1.2zm-96.8 32h8c1.1 0 2-.5 2.8-1.2s1.2-1.7 1.2-2.8v-8c0-1.1-.5-2-1.2-2.8s-1.7-1.2-2.8-1.2h-8c-1.1 0-2 .5-2.8 1.2-.8.8-1.2 1.7-1.2 2.8v8c0 1.1.5 2 1.2 2.8.8.7 1.8 1.2 2.8 1.2zm33.6 0h8c1.1 0 2-.5 2.8-1.2.8-.8 1.2-1.7 1.2-2.8v-8c0-1.1-.5-2-1.2-2.8-.8-.8-1.7-1.2-2.8-1.2h-8c-1.1 0-2 .5-2.8 1.2-.8.8-1.2 1.7-1.2 2.8v8c0 1.1.5 2 1.2 2.8.8.7 1.7 1.2 2.8 1.2zm31.2 0h8c1.1 0 2-.5 2.8-1.2.8-.8 1.2-1.7 1.2-2.8v-8c0-1.1-.5-2-1.2-2.8-.8-.8-1.7-1.2-2.8-1.2h-8c-1.1 0-2 .5-2.8 1.2-.8.8-1.2 1.7-1.2 2.8v8c0 1.1.5 2 1.2 2.8.8.7 1.7 1.2 2.8 1.2zm32 0h8c1.1 0 2-.5 2.8-1.2.8-.8 1.2-1.7 1.2-2.8v-8c0-1.1-.5-2-1.2-2.8-.8-.8-1.7-1.2-2.8-1.2h-8c-1.1 0-2 .5-2.8 1.2s-1.2 1.7-1.2 2.8v8c0 1.1.5 2 1.2 2.8s1.7 1.2 2.8 1.2zm-96.8 32h8c1.1 0 2-.5 2.8-1.2s1.2-1.7 1.2-2.8v-8c0-1.1-.5-2-1.2-2.8s-1.7-1.2-2.8-1.2h-8c-1.1 0-2 .5-2.8 1.2-.8.8-1.2 1.7-1.2 2.8v8c0 1.1.5 2 1.2 2.8.8.7 1.8 1.2 2.8 1.2zm33.6 0h8c1.1 0 2-.5 2.8-1.2.8-.8 1.2-1.7 1.2-2.8v-8c0-1.1-.5-2-1.2-2.8-.8-.8-1.7-1.2-2.8-1.2h-8c-1.1 0-2 .5-2.8 1.2-.8.8-1.2 1.7-1.2 2.8v8c0 1.1.5 2 1.2 2.8.8.7 1.7 1.2 2.8 1.2zm31.2 0h8c1.1 0 2-.5 2.8-1.2.8-.8 1.2-1.7 1.2-2.8v-8c0-1.1-.5-2-1.2-2.8-.8-.8-1.7-1.2-2.8-1.2h-8c-1.1 0-2 .5-2.8 1.2-.8.8-1.2 1.7-1.2 2.8v8c0 1.1.5 2 1.2 2.8.8.7 1.7 1.2 2.8 1.2zm32 0h8c1.1 0 2-.5 2.8-1.2.8-.8 1.2-1.7 1.2-2.8v-8c0-1.1-.5-2-1.2-2.8-.8-.8-1.7-1.2-2.8-1.2h-8c-1.1 0-2 .5-2.8 1.2s-1.2 1.7-1.2 2.8v8c0 1.1.5 2 1.2 2.8s1.7 1.2 2.8 1.2zm-96.8 32h8c1.1 0 2-.5 2.8-1.2s1.2-1.7 1.2-2.8v-8c0-1.1-.5-2-1.2-2.8s-1.7-1.2-2.8-1.2h-8c-1.1 0-2 .5-2.8 1.2-.8.8-1.2 1.7-1.2 2.8v8c0 1.1.5 2 1.2 2.8.8.7 1.8 1.2 2.8 1.2zm33.6 0h8c1.1 0 2-.5 2.8-1.2.8-.8 1.2-1.7 1.2-2.8v-8c0-1.1-.5-2-1.2-2.8-.8-.8-1.7-1.2-2.8-1.2h-8c-1.1 0-2 .5-2.8 1.2-.8.8-1.2 1.7-1.2 2.8v8c0 1.1.5 2 1.2 2.8.8.7 1.7 1.2 2.8 1.2zm31.2 0h8c1.1 0 2-.5 2.8-1.2.8-.8 1.2-1.7 1.2-2.8v-8c0-1.1-.5-2-1.2-2.8-.8-.8-1.7-1.2-2.8-1.2h-8c-1.1 0-2 .5-2.8 1.2-.8.8-1.2 1.7-1.2 2.8v8c0 1.1.5 2 1.2 2.8.8.7 1.7 1.2 2.8 1.2zm32 0h8c1.1 0 2-.5 2.8-1.2.8-.8 1.2-1.7 1.2-2.8v-8c0-1.1-.5-2-1.2-2.8-.8-.8-1.7-1.2-2.8-1.2h-8c-1.1 0-2 .5-2.8 1.2s-1.2 1.7-1.2 2.8v8c0 1.1.5 2 1.2 2.8s1.7 1.2 2.8 1.2zm-96.8 32h8c1.1 0 2-.5 2.8-1.2s1.2-1.7 1.2-2.8v-8c0-1.1-.5-2-1.2-2.8s-1.7-1.2-2.8-1.2h-8c-1.1 0-2 .5-2.8 1.2-.8.8-1.2 1.7-1.2 2.8v8c0 1.1.5 2 1.2 2.8.8.7 1.8 1.2 2.8 1.2zm33.6 0h8c1.1 0 2-.5 2.8-1.2.8-.8 1.2-1.7 1.2-2.8v-8c0-1.1-.5-2-1.2-2.8-.8-.8-1.7-1.2-2.8-1.2h-8c-1.1 0-2 .5-2.8 1.2-.8.8-1.2 1.7-1.2 2.8v8c0 1.1.5 2 1.2 2.8.8.7 1.7 1.2 2.8 1.2zm31.2 0h8c1.1 0 2-.5 2.8-1.2.8-.8 1.2-1.7 1.2-2.8v-8c0-1.1-.5-2-1.2-2.8-.8-.8-1.7-1.2-2.8-1.2h-8c-1.1 0-2 .5-2.8 1.2-.8.8-1.2 1.7-1.2 2.8v8c0 1.1.5 2 1.2 2.8.8.7 1.7 1.2 2.8 1.2zm32 0h8c1.1 0 2-.5 2.8-1.2.8-.8 1.2-1.7 1.2-2.8v-8c0-1.1-.5-2-1.2-2.8-.8-.8-1.7-1.2-2.8-1.2h-8c-1.1 0-2 .5-2.8 1.2s-1.2 1.7-1.2 2.8v8c0 1.1.5 2 1.2 2.8s1.7 1.2 2.8 1.2zM173.7 226.3c-1.5-1.5-3.5-2.3-5.7-2.3H24c-2.1 0-4 .8-5.7 2.3-1.5 1.5-2.3 3.5-2.3 5.7v240c0 2.1.8 4 2.3 5.7 1.5 1.5 3.5 2.3 5.7 2.3h144.1c2.1 0 4-.8 5.7-2.3 1.5-1.5 2.3-3.5 2.3-5.7V232c0-2.2-.9-4-2.4-5.7zM160 464h-32v-27.9c0-1.1-.5-2-1.2-2.8-.8-.8-1.7-1.2-2.8-1.2H68c-1.1 0-2 .5-2.8 1.2-.8.8-1.2 1.7-1.2 2.8V464H32V240h128.2v224h-.2z"/><path fill="#010101" d="M43.3 280h8c1.1 0 2-.5 2.8-1.2.8-.8 1.2-1.7 1.2-2.8v-8c0-1.1-.5-2-1.2-2.8-.8-.8-1.7-1.2-2.8-1.2h-8c-1.1 0-2 .5-2.8 1.2-.8.8-1.2 1.7-1.2 2.8v8c0 1.1.5 2 1.2 2.8.8.7 1.8 1.2 2.8 1.2zm33.6 0h8c1.1 0 2-.5 2.8-1.2s1.2-1.7 1.2-2.8v-8c0-1.1-.5-2-1.2-2.8S86 264 84.9 264h-8c-1.1 0-2 .5-2.8 1.2s-1.2 1.7-1.2 2.8v8c0 1.1.5 2 1.2 2.8s1.7 1.2 2.8 1.2zm31.2 0h8c1.1 0 2-.5 2.8-1.2.8-.8 1.2-1.7 1.2-2.8v-8c0-1.1-.5-2-1.2-2.8-.8-.8-1.7-1.2-2.8-1.2h-8c-1.1 0-2 .5-2.8 1.2s-1.2 1.7-1.2 2.8v8c0 1.1.5 2 1.2 2.8s1.7 1.2 2.8 1.2zm32 0h8c1.1 0 2-.5 2.8-1.2.8-.8 1.2-1.7 1.2-2.8v-8c0-1.1-.5-2-1.2-2.8-.8-.8-1.7-1.2-2.8-1.2h-8c-1.1 0-2 .5-2.8 1.2-.8.8-1.2 1.7-1.2 2.8v8c0 1.1.5 2 1.2 2.8.8.7 1.7 1.2 2.8 1.2zm-96.8 32h8c1.1 0 2-.5 2.8-1.2.8-.8 1.2-1.7 1.2-2.8v-8c0-1.1-.5-2-1.2-2.8-.8-.8-1.7-1.2-2.8-1.2h-8c-1.1 0-2 .5-2.8 1.2-.8.8-1.2 1.7-1.2 2.8v8c0 1.1.5 2 1.2 2.8.8.7 1.8 1.2 2.8 1.2zm33.6 0h8c1.1 0 2-.5 2.8-1.2s1.2-1.7 1.2-2.8v-8c0-1.1-.5-2-1.2-2.8S86 296 84.9 296h-8c-1.1 0-2 .5-2.8 1.2s-1.2 1.7-1.2 2.8v8c0 1.1.5 2 1.2 2.8s1.7 1.2 2.8 1.2zm31.2 0h8c1.1 0 2-.5 2.8-1.2.8-.8 1.2-1.7 1.2-2.8v-8c0-1.1-.5-2-1.2-2.8-.8-.8-1.7-1.2-2.8-1.2h-8c-1.1 0-2 .5-2.8 1.2s-1.2 1.7-1.2 2.8v8c0 1.1.5 2 1.2 2.8s1.7 1.2 2.8 1.2zm32 0h8c1.1 0 2-.5 2.8-1.2.8-.8 1.2-1.7 1.2-2.8v-8c0-1.1-.5-2-1.2-2.8-.8-.8-1.7-1.2-2.8-1.2h-8c-1.1 0-2 .5-2.8 1.2-.8.8-1.2 1.7-1.2 2.8v8c0 1.1.5 2 1.2 2.8.8.7 1.7 1.2 2.8 1.2zm-96.8 32h8c1.1 0 2-.5 2.8-1.2.8-.8 1.2-1.7 1.2-2.8v-8c0-1.1-.5-2-1.2-2.8-.8-.8-1.7-1.2-2.8-1.2h-8c-1.1 0-2 .5-2.8 1.2-.8.8-1.2 1.7-1.2 2.8v8c0 1.1.5 2 1.2 2.8.8.7 1.8 1.2 2.8 1.2zm33.6 0h8c1.1 0 2-.5 2.8-1.2s1.2-1.7 1.2-2.8v-8c0-1.1-.5-2-1.2-2.8S86 328 84.9 328h-8c-1.1 0-2 .5-2.8 1.2s-1.2 1.7-1.2 2.8v8c0 1.1.5 2 1.2 2.8s1.7 1.2 2.8 1.2zm31.2 0h8c1.1 0 2-.5 2.8-1.2.8-.8 1.2-1.7 1.2-2.8v-8c0-1.1-.5-2-1.2-2.8-.8-.8-1.7-1.2-2.8-1.2h-8c-1.1 0-2 .5-2.8 1.2s-1.2 1.7-1.2 2.8v8c0 1.1.5 2 1.2 2.8s1.7 1.2 2.8 1.2zm32 0h8c1.1 0 2-.5 2.8-1.2.8-.8 1.2-1.7 1.2-2.8v-8c0-1.1-.5-2-1.2-2.8-.8-.8-1.7-1.2-2.8-1.2h-8c-1.1 0-2 .5-2.8 1.2-.8.8-1.2 1.7-1.2 2.8v8c0 1.1.5 2 1.2 2.8.8.7 1.7 1.2 2.8 1.2zm-96.8 32h8c1.1 0 2-.5 2.8-1.2.8-.8 1.2-1.7 1.2-2.8v-8c0-1.1-.5-2-1.2-2.8-.8-.8-1.7-1.2-2.8-1.2h-8c-1.1 0-2 .5-2.8 1.2-.8.8-1.2 1.7-1.2 2.8v8c0 1.1.5 2 1.2 2.8.8.7 1.8 1.2 2.8 1.2zm33.6 0h8c1.1 0 2-.5 2.8-1.2s1.2-1.7 1.2-2.8v-8c0-1.1-.5-2-1.2-2.8S86 360 84.9 360h-8c-1.1 0-2 .5-2.8 1.2s-1.2 1.7-1.2 2.8v8c0 1.1.5 2 1.2 2.8s1.7 1.2 2.8 1.2zm31.2 0h8c1.1 0 2-.5 2.8-1.2.8-.8 1.2-1.7 1.2-2.8v-8c0-1.1-.5-2-1.2-2.8-.8-.8-1.7-1.2-2.8-1.2h-8c-1.1 0-2 .5-2.8 1.2s-1.2 1.7-1.2 2.8v8c0 1.1.5 2 1.2 2.8s1.7 1.2 2.8 1.2zm32 0h8c1.1 0 2-.5 2.8-1.2.8-.8 1.2-1.7 1.2-2.8v-8c0-1.1-.5-2-1.2-2.8-.8-.8-1.7-1.2-2.8-1.2h-8c-1.1 0-2 .5-2.8 1.2-.8.8-1.2 1.7-1.2 2.8v8c0 1.1.5 2 1.2 2.8.8.7 1.7 1.2 2.8 1.2zm-96.8 32h8c1.1 0 2-.5 2.8-1.2.8-.8 1.2-1.7 1.2-2.8v-8c0-1.1-.5-2-1.2-2.8-.8-.8-1.7-1.2-2.8-1.2h-8c-1.1 0-2 .5-2.8 1.2-.8.8-1.2 1.7-1.2 2.8v8c0 1.1.5 2 1.2 2.8.8.7 1.8 1.2 2.8 1.2zm33.6 0h8c1.1 0 2-.5 2.8-1.2s1.2-1.7 1.2-2.8v-8c0-1.1-.5-2-1.2-2.8S86 392 84.9 392h-8c-1.1 0-2 .5-2.8 1.2s-1.2 1.7-1.2 2.8v8c0 1.1.5 2 1.2 2.8s1.7 1.2 2.8 1.2zm31.2 0h8c1.1 0 2-.5 2.8-1.2.8-.8 1.2-1.7 1.2-2.8v-8c0-1.1-.5-2-1.2-2.8-.8-.8-1.7-1.2-2.8-1.2h-8c-1.1 0-2 .5-2.8 1.2s-1.2 1.7-1.2 2.8v8c0 1.1.5 2 1.2 2.8s1.7 1.2 2.8 1.2zm32 0h8c1.1 0 2-.5 2.8-1.2.8-.8 1.2-1.7 1.2-2.8v-8c0-1.1-.5-2-1.2-2.8-.8-.8-1.7-1.2-2.8-1.2h-8c-1.1 0-2 .5-2.8 1.2-.8.8-1.2 1.7-1.2 2.8v8c0 1.1.5 2 1.2 2.8.8.7 1.7 1.2 2.8 1.2zm63.1-320h8c1.1 0 2-.5 2.8-1.2.8-.8 1.2-1.7 1.2-2.8v-8c0-1.1-.5-2-1.2-2.8-.8-.8-1.7-1.2-2.8-1.2h-8c-1.1 0-2 .5-2.8 1.2-.8.8-1.2 1.7-1.2 2.8v8c0 1.1.5 2 1.2 2.8.8.9 1.8 1.2 2.8 1.2zm33.6 0h8c1.1 0 2-.5 2.8-1.2.8-.8 1.2-1.7 1.2-2.8v-8c0-1.1-.5-2-1.2-2.8-.8-.8-1.7-1.2-2.8-1.2h-8c-1.1 0-2 .5-2.8 1.2-.8.8-1.2 1.7-1.2 2.8v8c0 1.1.5 2 1.2 2.8.8.9 1.7 1.2 2.8 1.2zm31.2 0h8c1.1 0 2-.5 2.8-1.2s1.2-1.7 1.2-2.8v-8c0-1.1-.5-2-1.2-2.8S277.1 72 276 72h-8c-1.1 0-2 .5-2.8 1.2S264 74.9 264 76v8c0 1.1.5 2 1.2 2.8.8.9 1.7 1.2 2.8 1.2zm32 0h8c1.1 0 2-.5 2.8-1.2s1.2-1.7 1.2-2.8v-8c0-1.1-.5-2-1.2-2.8S309.1 72 308 72h-8c-1.1 0-2 .5-2.8 1.2S296 74.9 296 76v8c0 1.1.5 2 1.2 2.8.8.9 1.7 1.2 2.8 1.2z"/></svg>