<svg id="Layer_1" xmlns="http://www.w3.org/2000/svg" viewBox="0 0 500 500"><style>.st0{fill:#010101}</style><path class="st0" d="M488.3 444.2c-7.4 17.5-27.3 29.2-43.2 37.5-20.7 11.6-42.3 18.4-66.3 18.4-33.2 0-63-13.4-92.9-24.1-21.6-7.5-42.3-17.5-62.2-29.2-59.6-38.5-132.5-110.9-169.8-171-12.4-20-21.6-40.8-29-62.5C13.3 183.4 0 153.4 0 120.1c0-24.1 6.6-45 18.3-65.8 9.1-15.9 19.9-35.8 37.3-43.4C67.2 6 92 .1 105.3.1c2.4 0 5 0 7.4.9 7.4 2.5 14.9 20 19 26.7 11.6 20 22.4 40.8 34 60.8 5.8 9.2 16.6 20.8 16.6 31.6 0 21.7-63.9 53.3-63.9 72.4 0 10 9.1 21.7 14.1 30.9 35.6 65 80.5 109.2 145.1 145 8.3 5 20.7 14.2 30.7 14.2 19 0 50.6-64.1 72.2-64.1 10.7 0 22.4 10.8 31.5 16.7 19.9 11.6 40.6 22.5 60.5 34.2 7.4 3.3 24.9 11.6 26.6 19.1.8 2.5.8 5 .8 7.5-.8 11.5-6.6 36.5-11.6 48.2zm5.4-323.9l-89 90.6c-3.1 3.1-7.8 5.5-12.5 5.5s-9.4-1.6-12.5-5.5l-10.2-10.2c-3.1-3.1-5.5-7.8-5.5-12.5s1.6-9.4 5.5-12.5l39.8-40.6h-96.1c-10.2 0-16.4-8.6-16.4-18v-18c0-9.4 6.2-18 16.4-18h96.9l-39.8-40.6c-3.1-3.1-5.5-7.8-5.5-12.5s1.6-9.4 5.5-12.5l10.2-10.2c3.1-3.1 7.8-5.5 12.5-5.5s9.4 1.6 12.5 5.5l89 89.8c3.1 3.1 5.5 7.8 5.5 12.5-.1 4.9-2.4 9.6-6.3 12.7z"/></svg>