<svg xmlns="http://www.w3.org/2000/svg" viewBox="0 0 500 500"><path fill="#010101" d="M352.6 240.5l-73.4 155.9c-4.2 8.8-13.5 14.3-23.2 14.3s-18.9-5.4-23-14.3l-73.6-155.9c-5.3-11.1-6.6-23.8-6.6-36.1 0-57 46.2-103.1 103.1-103.1S359 147.5 359 204.4c.1 12.4-1.3 25.1-6.4 36.1zM256 152.9c-28.4 0-51.6 23.2-51.6 51.6S227.6 256 256 256s51.6-23.2 51.6-51.6-23.2-51.5-51.6-51.5zm.1 359.1v-42c22.6 0 44.8-3.6 66.1-10.5l13 39.9c-25.4 8.4-51.9 12.6-79.1 12.6zM177 499.6c-25.6-8.3-49.5-20.5-71.4-36.4l24.7-34c18.3 13.3 38.3 23.5 59.6 30.5L177 499.6zm229.6-36.5l-24.8-34c18.2-13.3 34.1-29.1 47.3-47.4l33.9 24.7c-15.6 21.8-34.7 40.8-56.4 56.7zM49.1 406.6c-15.8-21.9-28.1-45.7-36.5-71.4l39.9-13c6.9 21.3 17.2 41.3 30.5 59.6l-33.9 24.8zM499.5 335l-39.9-12.9c6.9-21.3 10.4-43.5 10.4-66.1v-.5h42v.5c.1 26.9-4.1 53.6-12.5 79zM42 256.1H0v-.1c0-27 4.2-53.4 12.4-79l40 12.9C45.5 211.3 42 233.4 42 256v.1zm417.6-66.7c-6.9-21.3-17.2-41.3-30.5-59.6L463 105c16 21.7 28.3 45.7 36.5 71.3l-39.9 13.1zM82.7 130.3l-34-24.7C64.5 84 83.6 64.9 105.2 49.1L130 82.9c-18.1 13.3-34.1 29.2-47.3 47.4zm298.9-47.8c-18.3-13.3-38.3-23.4-59.7-30.3l12.9-39.9c25.6 8.3 49.6 20.5 71.4 36.3l-24.6 33.9zm-192-30.1l-13-39.9C202.1 4.3 228.7 0 255.7 0l.1 42c-22.8 0-45 3.5-66.2 10.4z"/></svg>