<svg xmlns="http://www.w3.org/2000/svg" viewBox="0 0 500 500"><path d="M390.9 512.8H121.1c-49.4 0-82.4-29.6-82.4-79.9 0-55.9 9.9-140.4 67.3-168.2l-27.8-67.9h66.1c-4.3-12.7-6.8-25.9-6.8-39.5 0-3.4.3-6.8.6-9.9-12-2.5-59.9-12.3-59.9-29.6 0-18.2 52.5-28.1 64.8-30.6 6.5-23.2 21.9-58.3 37.7-76.6 6.2-7.1 13.9-11.4 23.5-11.4 18.5 0 33.3 19.1 51.9 19.1S289.4-.8 308-.8c9.6 0 17.3 4.3 23.5 11.4 15.6 18.2 31 53.4 37.5 76.6 12.3 2.5 64.8 12.3 64.8 30.6 0 17.3-47.8 27.2-59.9 29.6 1.5 16.7-.6 33.3-6.2 49.4h66.1l-25.3 69.5C463.8 295 473.3 378 473.3 433c0 50.2-33 79.8-82.4 79.8zm-47.2-353.1c-2.8-2.2-25-2.5-29.6-2.5-17.6 0-34.3 2.5-51.5 5.9-2.2.6-4.3.6-6.5.6s-4.3 0-6.5-.6c-17.3-3.4-34-5.9-51.5-5.9-4.6 0-26.9.3-29.6 2.5-.6.6-.9 1.2-1.2 1.9.3 2.8.6 5.6 1.2 8.3 1.9 2.5 3.4 1.5 4.6 5.2 8 21.9 11.7 38.9 39.5 38.9 39.8 0 28.7-36.7 41.7-36.7h3.7c13 0 1.9 36.7 41.7 36.7 27.8 0 31.5-17 39.5-38.9 1.2-3.7 2.8-2.8 4.6-5.2.6-2.8.9-5.6 1.2-8.3-.4-.7-.7-1.3-1.3-1.9zM246.1 335l-29.6-39.5-39.5-19.7 39.5 197.6L246.1 335zm88.9-59.2l-39.5 19.8-29.6 39.4 29.6 138.3L335 275.8z"/></svg>