<svg xmlns="http://www.w3.org/2000/svg" viewBox="0 0 500 500"><path fill="#010101" d="M411.3 192.4h-24.2c.1-17.3-6.5-34.6-19.7-47.8-13.1-13.1-30.2-19.6-47.4-19.7v-24.2c23.4.1 46.8 9 64.6 26.8 17.9 17.8 26.8 41.4 26.7 64.9zm-61.2-30.5c-8.3-8.3-19.2-12.5-30.1-12.5v43.1h42.7c0-11.2-4.1-22.2-12.6-30.6zM320 0v25.2c42.7 0 85.4 16.3 117.9 48.9 32.6 32.6 48.9 75.5 48.9 118.4H512c.1-49.3-18.7-98.6-56.2-136.2C418.3 18.8 369.2 0 320 0zm100.7 91.3C392.9 63.5 356.5 49.6 320 49.6v26.7c29.6.1 59.3 11.4 81.8 33.9 22.7 22.7 34 52.5 33.9 82.2h26.7c.1-36.6-13.8-73.2-41.7-101.1zM238.1 0H49.9C22.4 0 0 22.4 0 49.9v412.3C0 489.6 22.4 512 49.9 512h188.3c27.4 0 49.9-22.4 49.9-49.9V49.9C288 22.4 265.6 0 238.1 0zM144 499.3c-19.5 0-35.3-15.8-35.3-35.3s15.8-35.3 35.3-35.3 35.3 15.8 35.3 35.3-15.8 35.3-35.3 35.3zM248 412H40V80h208v332z"/></svg>