<svg id="Layer_1" xmlns="http://www.w3.org/2000/svg" viewBox="0 0 500 500"><style>.st0{fill:#010101}</style><path class="st0" d="M489.8 444.2c-7.4 17.5-27.3 29.2-43.1 37.5-20.7 11.6-42.3 18.4-66.3 18.4-33.2 0-63-13.4-92.9-24.1-21.6-7.5-42.3-17.5-62.2-29.2-59.7-38.4-132.6-110.9-169.9-171-12.4-20-21.6-40.8-29-62.5-11.6-29.9-24.9-59.9-24.9-93.2 0-24.1 6.6-45 18.3-65.8C28.8 38.5 39.7 18.5 57 11 68.7 6 93.4.1 106.7.1c2.4 0 5 0 7.4.9 7.4 2.5 14.9 20 19.1 26.6 11.6 20 22.3 40.8 34 60.8 5.8 9.2 16.6 20.8 16.6 31.6 0 21.7-63.9 53.3-63.9 72.5 0 10 9.1 21.7 14.1 30.9 35.6 65 80.5 109.2 145 145 8.3 5 20.7 14.1 30.6 14.1 19.1 0 50.5-64.1 72.2-64.1 10.8 0 22.3 10.9 31.6 16.7 19.9 11.6 40.6 22.5 60.5 34.2 7.4 3.3 24.9 11.6 26.6 19.1.8 2.5.8 5 .8 7.5-.7 11.7-6.5 36.7-11.5 48.3z"/></svg>