<svg xmlns="http://www.w3.org/2000/svg" viewBox="0 0 500 500"><path d="M500.9 71.7c-2.5-1-4.9-1.4-7.1-1.4-5.1 0-9.4 1.8-12.9 5.4L365.7 190.6v-47.1c0-22.7-8-42-24.1-58.1s-35.5-24.1-58.1-24.1H82.3c-22.7 0-42 8-58.1 24.1C8 101.4 0 120.8 0 143.4v201.1c0 22.7 8 42 24.1 58.1s35.5 24.1 58.1 24.1h201.1c22.7 0 42-8 58.1-24.1s24.1-35.5 24.1-58.1v-47.4l115.1 115.1c3.4 3.6 7.7 5.4 12.9 5.4 2.3 0 4.7-.5 7.1-1.4 7.4-3.2 11.1-8.9 11.1-16.9V88.6c.3-8-3.4-13.6-10.8-16.9zm-243.2 185l-133.5 78.2c-2.7 1.3-5.4 2.7-8.1 2.7-2.7 0-5.4 0-8.1-1.3-5.4-2.7-8.1-8.1-8.1-13.5V166.3c0-5.4 2.7-10.8 8.1-13.5 5.4-2.7 12.1-2.7 16.2 0L257.7 231c5.4 2.7 8.1 8.1 8.1 13.5 0 6.8-2.7 10.8-8.1 12.2z"/></svg>