<svg id="Layer_1" xmlns="http://www.w3.org/2000/svg" viewBox="0 0 500 500"><style>.st0{fill:#010101}</style><path class="st0" d="M489.5 444.2c-7.4 17.5-27.3 29.2-43.2 37.5-20.7 11.6-42.2 18.3-66.3 18.3-33.2 0-63-13.4-92.9-24.1-21.6-7.5-42.3-17.5-62.2-29.2-59.6-38.4-132.5-110.8-169.8-170.9-12.4-20-21.6-40.8-29-62.5-11.6-30-24.9-59.9-24.9-93.2 0-24.1 6.6-45 18.3-65.8 9.1-15.8 19.9-35.8 37.3-43.4C68.4 6 93.2.1 106.5.1c2.4 0 5 0 7.4.9 7.4 2.5 14.9 20 19 26.7 11.6 20 22.4 40.8 34 60.8 5.8 9.2 16.6 20.8 16.6 31.6 0 21.7-63.9 53.3-63.9 72.4 0 10 9.1 21.7 14.1 30.9 35.6 65 80.5 109.2 145.1 145 8.3 5 20.7 14.2 30.7 14.2 19 0 50.6-64.1 72.2-64.1 10.7 0 22.4 10.8 31.5 16.7 19.9 11.6 40.6 22.5 60.5 34.2 7.4 3.3 24.9 11.6 26.6 19.1.8 2.5.8 5 .8 7.5-.8 11.5-6.6 36.5-11.6 48.2zM390.6 0c-60.9 0-109.4 48.4-109.4 108.6S330.4 218 390.6 218 500 168.8 500 108.6 451.5 0 390.6 0zM441 127.5c-9.9 7.8-24.9 11.7-45.2 11.7h-18.3v38.3h-30.6V40.4h48.4c21.1 0 36.3 4.1 46 12.2 9.6 8.2 14.5 20.7 14.5 37.7-.1 17-5 29.3-14.8 37.2z"/><path class="st0" d="M427.3 73.4c-4.9-3.4-12.5-5.1-22.8-5.1h-17.9v47.2h21.1c10.4 0 17.5-2.1 21.3-6.3 3.7-4.2 5.6-10.4 5.6-18.5s-2.5-13.8-7.3-17.3z"/></svg>