<svg xmlns="http://www.w3.org/2000/svg" viewBox="0 0 500 500"><g fill="#010101"><path d="M501.2 83.6c-2.5-1-4.9-1.4-7.1-1.4-5.1 0-9.4 1.8-12.9 5.4l-115.3 115v-47.1c0-22.7-8-42-24.1-58.1s-35.5-24.1-58.1-24.1H82.3c-22.7 0-42 8-58.1 24.1C8 113.3 0 132.7 0 155.3v201.2c0 22.7 8 42 24.1 58.1s35.5 24.1 58.1 24.1h201.2c22.7 0 42-8 58.1-24.1s24.1-35.5 24.1-58.1v-47.4l115.2 115.2c3.4 3.6 7.7 5.4 12.9 5.4 2.3 0 4.7-.5 7.1-1.4 7.4-3.2 11.1-8.9 11.1-16.9V100.5c.4-8-3.3-13.6-10.7-16.9zM179.6 297.4h-35.5v87.2H85.7V127.4h93.9c56 0 100.6 20.5 100.6 82.9 0 60.3-46.2 87.1-100.6 87.1z"/><path d="M176 173.5h-32v77.7h32c32 0 47.3-14.2 47.3-41s-16.5-36.7-47.3-36.7z"/></g></svg>