<svg xmlns="http://www.w3.org/2000/svg" viewBox="0 0 500 500"><path d="M482.3 256H377l-31.7-63.1c-3.1-6.6-10.5-10.5-17.7-9.9-7.8.8-14 5.6-15.9 13.2L274.8 319l-55.9-195.8c-2.3-7.8-9.3-13.2-18.1-13.2-8.4 0-15.3 5.6-17.5 13.8l-33 132.5H29.7C14.6 233.4.4 203.5.4 170.6.2 86.8 51.3 36.9 136.7 36.9c49.9 0 96.7 39.4 119.3 61.6 22.5-22.1 69.3-61.6 119.3-61.6 85.3 0 136.3 49.9 136.3 133.6 0 32.7-14.2 62.8-29.3 85.5zm-29.7 36.5c-3.5 3.7-5.6 5.6-6.2 6.2L268.4 470c-3.5 3.5-8 5-12.6 5s-9.1-1.7-12.6-5L65.1 298.3c-.6-.2-2.9-2.3-6-5.6h105.3c8.4 0 15.7-5.6 17.7-13.8l20-80.2L256.2 389c2.3 7.8 9.3 13.2 17.7 13.2 8 0 15.1-5.4 17.5-13.2L333 250.7l15.9 32c3.1 6 9.3 9.9 16.3 9.9h87.4v-.1z"/></svg>