<svg xmlns="http://www.w3.org/2000/svg" viewBox="0 0 500 500"><path fill="#010101" d="M2.6 248.9c-5.8-14.9-.8-33.1 3.3-47.1 5.8-19 14.1-35.5 28.1-49.6 19-19 44.6-28.9 68.6-40.5 17.4-8.3 34.7-14.9 53.7-19 57-13.2 142.2-13.2 199.2 0 18.2 4.1 36.4 10.7 53.7 19 24 11.6 49.6 20.7 68.6 40.5 14.1 14.1 22.3 30.6 28.1 49.6 4.1 14.9 9.1 33.1 3.3 47.1-4.1 9.9-14.9 28.1-22.3 35.5-1.7 1.7-3.3 3.3-5 4.1-5.8 3.3-20.7-2.5-26.5-5-18.2-5-37.2-10.7-55.4-15.7-9.1-2.5-21.5-2.5-28.1-9.1-12.4-12.4 6.6-68.6-5-80.2-5.8-5.8-18.2-7.4-25.6-9.9-58.7-16.5-111.6-16.5-170.3 0-8.3 2.5-20.7 4.1-25.6 9.9-11.6 11.6 8.3 67.8-5 80.2-6.6 6.6-19 6.6-28.1 9.1-18.2 5-37.2 10.7-55.4 15.7-6.6 2.5-20.7 7.4-26.5 5-2.5-.8-3.3-2.5-5-4.1-7.9-7.4-18.6-25.6-22.8-35.5z"/><path fill="#010101" d="M246.5 425.8l-79.4-79.4c-2.5-3.3-4.1-6.6-4.1-10.7s1.7-8.3 4.1-10.7l9.1-9.1c3.3-3.3 6.6-5 10.7-5s8.3 1.7 10.7 5l35.5 35.5v-86.8c0-9.1 7.4-14.1 15.7-14.1h15.7c8.3 0 15.7 5.8 15.7 14.1v86l35.5-35.5c2.5-3.3 6.6-5 10.7-5s8.3 1.7 10.7 5l9.1 9.1c3.3 3.3 5 6.6 5 10.7s-1.7 8.3-5 10.7L266.8 425c-2.5 3.3-6.6 4.1-10.7 4.1-3 .8-7.1-.9-9.6-3.3z"/></svg>