<svg xmlns="http://www.w3.org/2000/svg" viewBox="0 0 500 500"><path d="M500.9 83.7c-2.5-1-4.9-1.4-7.1-1.4-5.1 0-9.4 1.8-12.9 5.4L365.7 202.6v-47.1c0-22.7-8-42-24.1-58.1s-35.5-24.1-58.1-24.1H82.3c-22.7 0-42 8-58.1 24.1C8 113.4 0 132.8 0 155.4v201.1c0 22.7 8 42 24.1 58.1s35.5 24.1 58.1 24.1h201.1c22.7 0 42-8 58.1-24.1s24.1-35.5 24.1-58.1v-47.4l115.1 115.1c3.4 3.6 7.7 5.4 12.9 5.4 2.3 0 4.7-.5 7.1-1.4 7.4-3.2 11.1-8.9 11.1-16.9V100.6c.3-8-3.4-13.6-10.8-16.9zM272 261.7l-79.4 79.4c-2.5 3.3-6.6 4.1-10.7 4.1-3 .8-7.1-.9-9.6-3.3l-79.4-79.4c-2.5-3.3-4.1-6.6-4.1-10.7s1.7-8.3 4.1-10.7l9.1-9.1c3.3-3.3 6.6-5 10.7-5s8.3 1.7 10.7 5l35.5 35.5v-86.8c0-9.1 7.4-14.1 15.7-14.1h15.7c8.3 0 15.7 5.8 15.7 14.1v86l35.5-35.5c2.5-3.3 6.6-5 10.7-5s8.3 1.7 10.7 5l9.1 9.1c3.3 3.3 5 6.6 5 10.7s-1.7 8.3-5 10.7z"/></svg>