<svg xmlns="http://www.w3.org/2000/svg" viewBox="0 0 500 500"><g fill="#020202"><path d="M99.1 179.2c14.9 0 27.7-5.2 38.3-15.8 10.6-10.6 15.8-23.2 15.8-38.3 0-14.9-5.2-27.7-15.8-38.3-10.6-10.4-23.4-15.7-38.3-15.7-14.9 0-27.7 5.4-38.3 15.9C50.2 97.6 45 110.2 45 125.3c0 14.9 5.2 27.7 15.8 38.3 10.6 10.4 23.4 15.6 38.3 15.6z"/><path d="M197.7 236.9c-.3-4.8-1.1-9.8-1.9-15.3-.9-5.5-2.2-10.6-3.7-15.3-1.5-4.6-3.6-9.3-6.1-13.7-2.5-4.5-5.5-8.2-8.8-11.5-3.3-3.1-7.3-5.7-12.1-7.6-4.8-1.9-10-2.8-15.6-2.8-.9 0-2.8 1.1-6 3-3.1 2.1-6.5 4.3-10.4 6.7-3.9 2.5-9 4.8-15.2 6.7-6.3 2.1-12.5 3-18.8 3-6.3 0-12.5-1.1-18.8-3-6.3-2.1-11.3-4.3-15.2-6.7-3.9-2.5-7.4-4.8-10.4-6.7-3.1-2.1-5.1-3-6-3-5.7 0-11 .9-15.6 2.8-4.8 1.9-8.8 4.3-12.1 7.6-3.3 3.1-6.3 7-8.8 11.5-2.5 4.5-4.6 9-6 13.6-1.5 4.8-2.7 9.8-3.7 15.3S.9 232.1.6 236.8c-.3 4.8-.5 9.5-.5 14.6 0 11.3 3.4 20.1 10.3 26.7s15.9 9.8 27.3 9.8h123.1c11.3 0 20.4-3.3 27.3-9.8s10.3-15.3 10.3-26.7c-.2-4.8-.4-9.8-.7-14.5zm-61.5 35.9H62c-11.5 0-20.7-9.3-20.7-20.7v-23.4c0-11.5 9.3-20.7 20.7-20.7h74.1c11.5 0 20.7 9.3 20.7 20.7v23.4h.1c0 11.5-9.3 20.7-20.7 20.7z"/><path d="M58.5 220.4h54.1v6.8H58.5zm0 27h81.1v6.8H58.5zm0-13.5h81.1v6.8H58.5z"/></g><g fill="#020202"><path d="M412.9 179.2c14.9 0 27.7-5.2 38.3-15.8 10.6-10.6 15.8-23.2 15.8-38.3 0-14.9-5.2-27.7-15.8-38.3C440.6 76.4 427.8 71 412.9 71c-14.9 0-27.7 5.4-38.3 15.9-10.6 10.6-15.8 23.2-15.8 38.3 0 14.9 5.2 27.7 15.8 38.3 10.6 10.5 23.4 15.7 38.3 15.7z"/><path d="M511.6 236.9c-.3-4.8-1.1-9.8-1.9-15.3-.9-5.5-2.2-10.6-3.7-15.3-1.5-4.6-3.6-9.3-6.1-13.7-2.5-4.5-5.5-8.2-8.8-11.5-3.3-3.1-7.3-5.7-12.1-7.6-4.8-1.9-10-2.8-15.6-2.8-.9 0-2.8 1.1-6 3-3.1 2.1-6.5 4.3-10.4 6.7-3.9 2.5-9 4.8-15.2 6.7-6.3 2.1-12.5 3-18.8 3-6.3 0-12.5-1.1-18.8-3-6.3-2.1-11.3-4.3-15.2-6.7-3.9-2.5-7.4-4.8-10.4-6.7-3.1-2.1-5.1-3-6-3-5.7 0-11 .9-15.6 2.8-4.8 1.9-8.8 4.3-12.1 7.6-3.3 3.1-6.3 7-8.8 11.5-2.5 4.5-4.6 9-6 13.6-1.5 4.8-2.7 9.8-3.7 15.3s-1.6 10.6-1.9 15.3c-.3 4.8-.5 9.5-.5 14.6 0 11.3 3.4 20.1 10.3 26.7s15.9 9.8 27.3 9.8h123.1c11.3 0 20.4-3.3 27.3-9.8s10.3-15.3 10.3-26.7c-.3-4.8-.4-9.8-.7-14.5zM450 272.8h-74.2c-11.5 0-20.7-9.3-20.7-20.7v-23.4c0-11.5 9.3-20.7 20.7-20.7h74.1c11.5 0 20.7 9.3 20.7 20.7v23.4h.1c.1 11.5-9.2 20.7-20.7 20.7z"/><path d="M372.4 220.4h54.1v6.8h-54.1zm0 27h81.1v6.8h-81.1zm0-13.5h81.1v6.8h-81.1z"/></g><g fill="#020202"><path stroke="#FFF" stroke-width="6" stroke-miterlimit="10" d="M256 292.5c30.1 0 56-10.5 77.3-31.9 21.3-21.3 31.9-46.9 31.9-77.3 0-30.1-10.5-56-31.9-77.3C312 84.9 286.1 74.1 256 74.1c-30 0-56 10.8-77.3 32.2-21.3 21.3-31.9 46.9-31.9 77.3 0 30.1 10.5 56 31.9 77.3 21.4 21.1 47.2 31.6 77.3 31.6z"/><path stroke="#FFF" stroke-width="6" stroke-miterlimit="10" d="M455.1 408.9c-.6-9.6-2.1-19.9-3.9-31-1.8-11.1-4.5-21.3-7.5-31-3-9.3-7.3-18.7-12.4-27.6-5.1-9-11.1-16.5-17.7-23.2-6.7-6.3-14.8-11.4-24.4-15.4-9.6-3.9-20.1-5.7-31.6-5.7-1.8 0-5.7 2.1-12 6.1-6.3 4.2-13.2 8.7-21.1 13.6-7.8 5.1-18.1 9.6-30.7 13.6-12.6 4.2-25.2 6.1-37.9 6.1-12.6 0-25.2-2.1-37.9-6.1-12.6-4.2-22.9-8.7-30.7-13.6-7.8-5.1-15-9.6-21.1-13.6-6.3-4.2-10.2-6.1-12-6.1-11.4 0-22.3 1.8-31.6 5.7-9.6 3.9-17.7 8.7-24.4 15.4-6.7 6.3-12.6 14.2-17.7 23.2s-9.2 18.3-12.2 27.6c-3 9.6-5.4 19.9-7.5 31-2.1 11.1-3.3 21.3-3.9 31-.6 9.6-.9 19.3-.9 29.5 0 22.9 6.9 40.6 20.7 53.8 13.8 13.2 32.2 19.9 55 19.9h248.5c22.9 0 41.2-6.7 55-19.9 13.8-13.2 20.7-31 20.7-53.8.2-10-.2-20-.8-29.5zm-124.2 72.4H181.1c-23.2 0-41.8-18.7-41.8-41.8v-47.3c0-23.2 18.7-41.8 41.8-41.8h149.5c23.2 0 41.8 18.7 41.8 41.8v47.3h.3c0 23.2-18.7 41.8-41.8 41.8z"/><path d="M174.2 375.5h109.2v13.6H174.2zm0 54.6H338v13.6H174.2zm0-27.3H338v13.6H174.2z"/></g></svg>