<svg xmlns="http://www.w3.org/2000/svg" viewBox="-243 318.3 512.1 365.7"><path d="M223.4 318.3h-420.7c-25.1 0-45.7 20.6-45.7 45.7v274.2c0 25.2 20.6 45.8 45.7 45.8h420.7c25.1 0 45.7-20.6 45.7-45.7V364c0-25.1-20.5-45.7-45.7-45.7zM45.5 440.2c0-3.3 2.8-6.1 6.1-6.1h109.5c3.3 0 6.1 2.8 6.1 6.1v12.2c0 3.3-2.8 6.1-6.1 6.1H51.6c-3.3 0-6.1-2.8-6.1-6.1v-12.2zm0 36.5c0-3.3 2.8-6.1 6.1-6.1h146c3.3 0 6.1 2.8 6.1 6.1v12.2c0 3.3-2.8 6.1-6.1 6.1h-146c-3.3 0-6.1-2.8-6.1-6.1v-12.2zm0 36.5c0-3.3 2.8-6.1 6.1-6.1h121.6c3.3 0 6.1 2.8 6.1 6.1v12.2c0 3.3-2.8 6.1-6.1 6.1H51.6c-3.3 0-6.1-2.8-6.1-6.1v-12.2zM-98.6 401.7c27.4 0 49.7 22.3 49.7 49.7s-22.3 49.7-49.7 49.7c-27.5 0-49.7-22.3-49.7-49.7s22.3-49.7 49.7-49.7zM-42 600.6h-113.2c-20.6 0-34.6-12.6-34.6-33.6 0-29.3 6.9-74.2 44.8-74.2 4 0 21 18 46.4 18s42.4-18 46.4-18c38 0 44.8 44.9 44.8 74.2 0 21-14 33.6-34.6 33.6zm257.8-38.7c0 3.3-2.8 6.1-6.1 6.1H51.6c-3.3 0-6.1-2.8-6.1-6.1v-12.2c0-3.3 2.8-6.1 6.1-6.1h158.1c3.3 0 6.1 2.8 6.1 6.1v12.2z"/></svg>