<svg xmlns="http://www.w3.org/2000/svg" viewBox="0 0 500 500"><path d="M235.4 213.5c-.2-.2-20-15.6-40-33.5-35.9-32-39.8-42.3-40.2-43.9.2-5.8 6.5-14.9 11.6-22.3 4.1-5.8 7.9-11.4 10.2-16.8 5.4-13.1-1.2-20.5-4.3-23.1-25.3-21.1-82.4-70.8-83-71.3C87.3.5 84.1-.3 81.2.1L81 0H0v512h64v-.1c.4 0 .8.1 1.3.1 6 0 10.8-4.8 10.8-10.8v-60.3c.3-.3 2.6-2.3 12.1-3.4 8.4-.9 18.8-.8 29.9-.6 25.9.4 50.4.7 62.9-11.6 4.9-4.8 7.5-11.2 7.5-18.4v-64.2c0-4.7-3-8.8-7.4-10.3l-50.2-16.6 59.5-29.7c3.7-1.8 6-5.6 6-9.7V257h23.3c6.3 0 11.9-2.6 15.6-7.3 8.1-10.2 4.8-27 4.1-30.3-.7-2.2-2-4.4-4-5.9zm79.9 66.8c-6.5-6.1-16.8-5.8-22.9.8-6.1 6.5-5.8 16.8.8 22.9 6.3 5.9 9.9 14.2 9.9 22.8 0 8.6-3.6 16.9-9.9 22.8-6.5 6.1-6.9 16.4-.8 22.9 3.2 3.4 7.5 5.1 11.8 5.1 4 0 7.9-1.4 11.1-4.4 12.8-12 20.2-28.9 20.2-46.5 0-17.5-7.4-34.4-20.2-46.4zm60.2-31.4c-6.5-6.1-16.8-5.8-22.9.7-6.1 6.5-5.8 16.8.7 22.9 15.1 14.2 23.4 33.4 23.4 54.2 0 20.7-8.3 39.9-23.4 54.2-6.5 6.1-6.8 16.4-.7 22.9 3.2 3.4 7.5 5.1 11.8 5.1 4 0 8-1.5 11.1-4.4 21.4-20.1 33.6-48.5 33.6-77.8 0-29.3-12.2-57.7-33.6-77.8zm62-22.7c-6.5-6.1-16.8-5.8-22.9.7s-5.8 16.8.7 22.9c21.5 20.2 33.4 47.5 33.4 77s-11.8 56.8-33.4 77c-6.5 6.1-6.9 16.4-.7 22.9 3.2 3.4 7.5 5.1 11.8 5.1 4 0 8-1.5 11.1-4.4 27.7-26 43.6-62.7 43.6-100.6 0-38-15.9-74.6-43.6-100.6z" fill="#010101"/></svg>