<svg xmlns="http://www.w3.org/2000/svg" width="512" height="512" viewBox="0 0 512 512"><path d="M483.993 20.657c1.802 14.937 1.245 27.737-10.738 40.649a62.11 62.11 0 0 1-1.877 1.914A58355.783 58355.783 0 0 0 87.803 446.783c-13.563 13.804-26.865 20.454-46.373 15.698-1.133-10.144-2.137-19.729 1.802-28.87.074-.167.148-.335.241-.521 1.895-3.994 4.812-7.914 9.141-11.741 24.729-21.885 47.32-46.371 73.479-72.529h-.242l.483-.482c-9.048 0-14.751.464-20.455 0-17.371-.948-26.159-9.754-26.159-27.105-.241-47.561-.241-95.12 0-142.68 0-6.502 1.264-11.816 3.771-15.903.13-.223.279-.427.409-.632 4.292-6.131 11.667-9.159 21.979-9.159 28.537 0 57.074-.464 85.611.242 8.788.242 14.51-2.62 20.455-8.788 38.272-39.014 77.045-77.526 115.801-116.058 13.32-13.079 27.83-14.509 38.049-2.136 4.05 4.756 6.67 11.89 6.893 18.077.595 11.146.65 22.386.576 34.481 0 2.415-.019 4.867-.037 7.357 0 1.245-.019 2.508-.019 3.771 0 1.264-.019 2.545-.019 3.827-.019 2.583-.019 5.202-.019 7.877 2.916-2.917 5.814-5.778 8.694-8.621 4.311-4.254 8.602-8.416 12.819-12.54.019 0 .019-.019.019-.019 2.824-2.75 5.61-5.462 8.379-8.174 4.181-4.106 8.323-8.193 12.373-12.28 8.138-8.174 16.016-16.404 23.596-24.95a75.344 75.344 0 0 1 3.511-3.697 57.383 57.383 0 0 1 1.542-1.431c11.316-10.088 23.783-13.023 39.89-9.14z"/><path fill="#FFF" d="M442.563 31.228a75.344 75.344 0 0 0-3.511 3.697c-7.58 8.546-15.458 16.776-23.596 24.95 8.008-8.082 15.755-16.145 23.112-24.486 1.32-1.486 2.639-2.88 3.995-4.161zM373.19 93.631c-.019 2.583-.019 5.202-.019 7.877.001-2.675.001-5.294.019-7.877z"/><path d="M373.172 222.545V452.97c0 15.698-4.757 24.021-16.405 28.294-12.373 4.756-21.161-1.188-29.484-9.512-4.496-4.496-8.992-8.974-13.488-13.469-31.565-31.564-63.038-62.999-93.767-93.541 19.34-19.34 38.532-38.568 57.649-57.723l4.738-4.737c30.209-30.171 60.361-60.174 90.757-90.438v10.701z"/><path fill="#FFF" d="M373.172 211.361v.483c-30.396 30.264-60.548 60.267-90.757 90.438 30.265-30.338 60.38-60.546 90.757-90.921zM220.027 364.742c30.729 30.542 62.201 61.977 93.767 93.541-31.51-31.397-63.186-62.738-93.767-93.541zM105.88 348.338c5.704.464 11.407 0 20.455 0l-.483.482c-8.899 0-14.565.224-20.213 0-17.353-1.188-26.159-9.995-26.159-27.124-.242-47.56-.242-95.12 0-142.68 0-6.8 1.356-12.243 4.013-16.367-2.508 4.087-3.771 9.4-3.771 15.903-.241 47.56-.241 95.12 0 142.68-.001 17.352 8.787 26.158 26.158 27.106zM41.431 462.481c19.507 4.756 32.81-1.895 46.373-15.698A58355.784 58355.784 0 0 1 471.378 63.219C342.963 190.684 215.03 318.612 87.562 447.266c-13.786 13.785-26.865 20.455-46.373 15.699-1.133-10.33-2.173-20.083 2.044-29.354-3.939 9.141-2.936 18.727-1.802 28.87z"/></svg>