<svg xmlns="http://www.w3.org/2000/svg" viewBox="-225.8 251 465.4 512"><path d="M7.9 660.6c113.1 0 204.8-91.7 204.8-204.8S121 251 7.9 251s-204.8 91.7-204.8 204.8 91.7 204.8 204.8 204.8zm0-307.2c56.6 0 102.4 45.9 102.4 102.4S64.5 558.2 7.9 558.2-94.5 512.3-94.5 455.8-48.7 353.4 7.9 353.4z"/><path d="M8.1 521C45 521 75 491 75 454.1s-30-66.9-66.9-66.9-66.9 30-66.9 66.9c0 36.9 30 66.9 66.9 66.9zm16.8-100.4c9.2 0 16.8 7.5 16.8 16.8s-7.6 16.9-16.8 16.9c-9.3 0-16.9-7.6-16.9-16.9 0-9.3 7.5-16.8 16.9-16.8zM182 620.4c-42.6 48.7-105.2 79.7-175.1 79.7s-132.4-31-175.1-79.7c-35.8 25.6-57.6 59.1-57.6 95.9 0 80.5 104.2 32.5 232.7 32.5s232.7 48.1 232.7-32.5c.1-36.8-21.7-70.3-57.6-95.9z"/></svg>