<?xml version="1.0" encoding="utf-8"?>
<!-- Generator: Adobe Illustrator 18.1.1, SVG Export Plug-In . SVG Version: 6.00 Build 0)  -->
<!DOCTYPE svg PUBLIC "-//W3C//DTD SVG 1.1//EN" "http://www.w3.org/Graphics/SVG/1.1/DTD/svg11.dtd">
<svg version="1.1" id="Layer_1" xmlns="http://www.w3.org/2000/svg" xmlns:xlink="http://www.w3.org/1999/xlink" x="0px" y="0px"
	 viewBox="0 0 500 500" enable-background="new 0 0 500 500" xml:space="preserve">
<path d="M372,170.9h-80.1c-27.8,0-50.4-22.6-50.4-50.4V48.8c0-27.8,22.6-50.4,50.4-50.4H372c27.8,0,50.4,22.6,50.4,50.4v71.7
	C422.4,148.3,399.8,170.9,372,170.9z M291.8,32c-9.3,0-16.8,7.5-16.8,16.8v71.7c0,9.3,7.5,16.8,16.8,16.8H372
	c9.3,0,16.8-7.5,16.8-16.8V48.8c0-9.3-7.5-16.8-16.8-16.8H291.8z"/>
<path d="M462,445.6c0-31.3-25.3-56.6-56.6-56.6H258.6c-31.3,0-56.6,25.3-56.6,56.6v136.8c0,31.3,25.3,56.6,56.6,56.6h146.8
	c31.3,0,56.6-25.3,56.6-56.6V445.6z M432,549h-70v70h-61v-70h-69v-60h69v-70h61v70h70V549z"/>
<circle cx="331.8" cy="226.4" r="33"/>
<circle cx="331.8" cy="316.6" r="33"/>
</svg>
