<?xml version="1.0" encoding="utf-8"?>
<!-- Generator: Adobe Illustrator 18.1.1, SVG Export Plug-In . SVG Version: 6.00 Build 0)  -->
<!DOCTYPE svg PUBLIC "-//W3C//DTD SVG 1.1//EN" "http://www.w3.org/Graphics/SVG/1.1/DTD/svg11.dtd">
<svg version="1.1" id="Layer_1" xmlns="http://www.w3.org/2000/svg" xmlns:xlink="http://www.w3.org/1999/xlink" x="0px" y="0px"
	 viewBox="0 0 500 500" enable-background="new 0 0 500 500" xml:space="preserve">
<path d="M184.9,352.6h-52.7c-1.6,0-2.9-1.3-2.9-2.9V297c0-1.6,1.3-2.9,2.9-2.9h52.7c1.6,0,2.9,1.3,2.9,2.9v52.7
	C187.8,351.3,186.5,352.6,184.9,352.6z"/>
<path d="M186,447.8h-52.7c-1.6,0-2.9-1.3-2.9-2.9v-52.7c0-1.6,1.3-2.9,2.9-2.9H186c1.6,0,2.9,1.3,2.9,2.9v52.7
	C189,446.5,187.6,447.8,186,447.8z"/>
<path d="M286.4,447.8h-52.7c-1.6,0-2.9-1.3-2.9-2.9v-52.7c0-1.6,1.3-2.9,2.9-2.9h52.7c1.6,0,2.9,1.3,2.9,2.9v52.7
	C289.3,446.5,288,447.8,286.4,447.8z"/>
<path d="M584,352.7c0-31.3-25.4-56.7-56.7-56.7H379.7c-31.3,0-56.7,25.4-56.7,56.7v138.5c0,31.3,25.4,56.7,56.7,56.7h147.5
	c31.3,0,56.7-25.4,56.7-56.7V352.7z M554,458h-69v70h-62v-70h-69v-61h69v-70h62v70h69V458z"/>
<path d="M198.7,256.7h-80.3c-27.8,0-50.5-22.6-50.5-50.5v-71.9c0-27.8,22.6-50.5,50.5-50.5h80.3c27.8,0,50.5,22.6,50.5,50.5v71.9
	C249.2,234,226.5,256.7,198.7,256.7z M118.4,117.5c-9.3,0-16.8,7.5-16.8,16.8v71.9c0,9.3,7.6,16.8,16.8,16.8h80.3
	c9.3,0,16.8-7.5,16.8-16.8v-71.9c0-9.3-7.6-16.8-16.8-16.8H118.4z"/>
</svg> 
