<?xml version="1.0" encoding="utf-8"?>
<!-- Generator: Adobe Illustrator 18.0.0, SVG Export Plug-In . SVG Version: 6.00 Build 0)  -->
<!DOCTYPE svg PUBLIC "-//W3C//DTD SVG 1.1//EN" "http://www.w3.org/Graphics/SVG/1.1/DTD/svg11.dtd">
<svg version="1.1" id="Layer_1" xmlns="http://www.w3.org/2000/svg" xmlns:xlink="http://www.w3.org/1999/xlink" x="0px" y="0px"
	 viewBox="0 0 500 500" enable-background="new 0 0 500 500" xml:space="preserve">
<g>
	<path fill="#010101" d="M443.3,36.6c-3.1-3.1-7.1-4.6-11.4-4.6H80c-4.3,0-8,1.5-11.4,4.6C65.5,39.7,64,43.7,64,48v416.1
		c0,4.3,1.5,8,4.6,11.4c3.1,3.1,7.1,4.6,11.4,4.6h352.3c4.3,0,8-1.5,11.4-4.6c3.1-3.1,4.6-7.1,4.6-11.4V48
		C448.2,43.7,446.4,40,443.3,36.6z M416,448.1L416,448.1h-96v-55.9c0-2.1-0.9-4-2.5-5.5c-1.5-1.5-3.4-2.5-5.5-2.5H200
		c-2.1,0-4,0.9-5.5,2.5c-1.5,1.5-2.5,3.4-2.5,5.5v55.9H95.9V63.9h320.4v384.2H416z"/>
	<path fill="#010101" d="M135.8,384h16c2.1,0,4-0.9,5.5-2.5c1.5-1.5,2.5-3.4,2.5-5.5v-16c0-2.1-0.9-4-2.5-5.5
		c-1.5-1.5-3.4-2.5-5.5-2.5h-16c-2.1,0-4,0.9-5.5,2.5c-1.5,1.5-2.5,3.4-2.5,5.5v16c0,2.1,0.9,4,2.5,5.5
		C131.8,383.4,133.7,384,135.8,384z"/>
	<path fill="#010101" d="M135.8,320.2h16c2.1,0,4-0.9,5.5-2.5c1.5-1.5,2.5-3.4,2.5-5.5v-16.3c0-2.1-0.9-4-2.5-5.5
		c-1.5-1.5-3.4-2.5-5.5-2.5h-16c-2.1,0-4,0.9-5.5,2.5c-1.5,1.5-2.5,3.4-2.5,5.5v16c0,2.1,0.9,4,2.5,5.5
		C131.8,319.2,133.7,320.2,135.8,320.2z"/>
	<path fill="#010101" d="M200,320.2h16c2.1,0,4-0.9,5.5-2.5c1.5-1.5,2.5-3.4,2.5-5.5v-16.3c0-2.1-0.9-4-2.5-5.5
		c-1.5-1.5-3.4-2.5-5.5-2.5h-16c-2.1,0-4,0.9-5.5,2.5c-1.5,1.5-2.5,3.4-2.5,5.5v16c0,2.1,0.9,4,2.5,5.5
		C195.7,319.2,197.8,320.2,200,320.2z"/>
	<path fill="#010101" d="M135.8,256h16c2.1,0,4-0.9,5.5-2.5s2.5-3.4,2.5-5.5v-16c0-2.1-0.9-4-2.5-5.5s-3.4-2.5-5.5-2.5h-16
		c-2.1,0-4,0.9-5.5,2.5s-2.5,3.4-2.5,5.5v16c0,2.1,0.9,4,2.5,5.5S133.7,256,135.8,256z"/>
	<path fill="#010101" d="M360,384h16c2.1,0,4-0.9,5.5-2.5c1.5-1.5,2.5-3.4,2.5-5.5v-16c0-2.1-0.9-4-2.5-5.5
		c-1.5-1.5-3.4-2.5-5.5-2.5h-16c-2.1,0-4,0.9-5.5,2.5c-1.5,1.5-2.5,3.4-2.5,5.5v16c0,2.1,0.9,4,2.5,5.5C356,383.4,357.8,384,360,384
		z"/>
	<path fill="#010101" d="M296.1,320.2h16c2.1,0,4-0.9,5.5-2.5c1.5-1.5,2.5-3.4,2.5-5.5V296c0-2.1-0.9-4-2.5-5.5s-3.4-2.5-5.5-2.5
		h-16c-2.1,0-4,0.9-5.5,2.5c-1.5,1.5-2.5,3.4-2.5,5.5v16c0,2.1,0.9,4,2.5,5.5C292.1,319.3,293.9,320.2,296.1,320.2z"/>
	<path fill="#010101" d="M200,256h16c2.1,0,4-0.9,5.5-2.5s2.5-3.4,2.5-5.5v-16c0-2.1-0.9-4-2.5-5.5s-3.4-2.5-5.5-2.5h-16
		c-2.1,0-4,0.9-5.5,2.5s-2.5,3.4-2.5,5.5v16c0,2.1,0.9,4,2.5,5.5S197.8,256,200,256z"/>
	<path fill="#010101" d="M135.8,191.9h16c2.1,0,4-0.9,5.5-2.5s2.5-3.4,2.5-5.5v-16c0-2.1-0.9-4-2.5-5.5c-1.5-1.5-3.4-2.5-5.5-2.5
		h-16c-2.1,0-4,0.9-5.5,2.5c-1.5,1.5-2.5,3.4-2.5,5.5v16c0,2.1,0.9,4,2.5,5.5S133.7,191.9,135.8,191.9z"/>
	<path fill="#010101" d="M360.1,320.2h16c2.1,0,4-0.9,5.5-2.5c1.5-1.5,2.5-3.4,2.5-5.5v-16.3c0-2.1-0.9-4-2.5-5.5
		c-1.5-1.5-3.4-2.5-5.5-2.5h-16c-2.1,0-4,0.9-5.5,2.5c-1.5,1.5-2.5,3.4-2.5,5.5v16c0,2.1,0.9,4,2.5,5.5
		C356.1,319.2,357.9,320.2,360.1,320.2z"/>
	<path fill="#010101" d="M296.1,255.9h16c2.1,0,4-0.9,5.5-2.5c1.5-1.5,2.5-3.4,2.5-5.5v-16c0-2.1-0.9-4-2.5-5.5
		c-1.5-1.5-3.4-2.5-5.5-2.5h-16c-2.1,0-4,0.9-5.5,2.5c-1.5,1.5-2.5,3.4-2.5,5.5v16c0,2.1,0.9,4,2.5,5.5
		C292.1,255,293.9,255.9,296.1,255.9z"/>
	<path fill="#010101" d="M200,191.9h16c2.1,0,4-0.9,5.5-2.5s2.5-3.4,2.5-5.5v-16c0-2.1-0.9-4-2.5-5.5c-1.5-1.5-3.4-2.5-5.5-2.5h-16
		c-2.1,0-4,0.9-5.5,2.5c-1.5,1.5-2.5,3.4-2.5,5.5v16c0,2.1,0.9,4,2.5,5.5S197.8,191.9,200,191.9z"/>
	<path fill="#010101" d="M135.8,128.1h16c2.1,0,4-0.9,5.5-2.5s2.5-3.4,2.5-5.5v-16c0-2.1-0.9-4-2.5-5.5c-1.5-1.5-3.4-2.5-5.5-2.5
		h-16c-2.1,0-4,0.9-5.5,2.5c-1.5,1.5-2.5,3.4-2.5,5.5v16c0,2.1,0.9,4,2.5,5.5S133.7,128.1,135.8,128.1z"/>
	<path fill="#010101" d="M360,256h16c2.1,0,4-0.9,5.5-2.5c1.5-1.5,2.5-3.4,2.5-5.5v-16c0-2.1-0.9-4-2.5-5.5
		c-1.5-1.5-3.4-2.5-5.5-2.5h-16c-2.1,0-4,0.9-5.5,2.5s-2.5,3.4-2.5,5.5v16c0,2.1,0.9,4,2.5,5.5S357.8,256,360,256z"/>
	<path fill="#010101" d="M296,191.9h16c2.1,0,4-0.9,5.5-2.5c1.5-1.5,2.5-3.4,2.5-5.5v-16c0-2.1-0.9-4-2.5-5.5
		c-1.5-1.5-3.4-2.5-5.5-2.5h-16c-2.1,0-4,0.9-5.5,2.5s-2.5,3.4-2.5,5.5v16c0,2.1,0.9,4,2.5,5.5C292,191.3,293.8,191.9,296,191.9z"/>
	<path fill="#010101" d="M200,128.1h16c2.1,0,4-0.9,5.5-2.5s2.5-3.4,2.5-5.5v-16c0-2.1-0.9-4-2.5-5.5c-1.5-1.5-3.4-2.5-5.5-2.5h-16
		c-2.1,0-4,0.9-5.5,2.5c-1.5,1.5-2.5,3.4-2.5,5.5v16c0,2.1,0.9,4,2.5,5.5S197.8,128.1,200,128.1z"/>
	<path fill="#010101" d="M360.1,192h16c2.1,0,4-0.9,5.5-2.5s2.5-3.4,2.5-5.5v-16c0-2.1-0.9-4-2.5-5.5s-3.4-2.5-5.5-2.5h-16
		c-2.1,0-4,0.9-5.5,2.5c-1.5,1.5-2.5,3.4-2.5,5.5v16c0,2.1,0.9,4,2.5,5.5C356.1,191.4,357.9,192,360.1,192z"/>
	<path fill="#010101" d="M296,128h16c2.1,0,4-0.9,5.5-2.5c1.5-1.5,2.5-3.4,2.5-5.5v-16c0-2.1-0.9-4-2.5-5.5
		c-1.5-1.5-3.4-2.5-5.5-2.5h-16c-2.1,0-4,0.9-5.5,2.5s-2.5,3.4-2.5,5.5v16c0,2.1,0.9,4,2.5,5.5C292,127.1,293.8,128,296,128z"/>
	<path fill="#010101" d="M360.1,128h16c2.1,0,4-0.9,5.5-2.5c1.5-1.5,2.5-3.4,2.5-5.5v-16c0-2.1-0.9-4-2.5-5.5s-3.4-2.5-5.5-2.5h-16
		c-2.1,0-4,0.9-5.5,2.5c-1.5,1.5-2.5,3.4-2.5,5.5v16c0,2.1,0.9,4,2.5,5.5C356.1,127.1,357.9,128,360.1,128z"/>
</g>
</svg>
