<?xml version="1.0" encoding="utf-8"?>
<!-- Generator: Adobe Illustrator 18.1.1, SVG Export Plug-In . SVG Version: 6.00 Build 0)  -->
<svg version="1.1" id="Layer_1" xmlns="http://www.w3.org/2000/svg" xmlns:xlink="http://www.w3.org/1999/xlink" x="0px" y="0px"
	 viewBox="0 0 500 500" enable-background="new 0 0 500 500" xml:space="preserve">
<path fill="#010101" d="M501.2,83.6c-2.5-1-4.9-1.4-7.1-1.4c-5.1,0-9.4,1.8-12.9,5.4l-115.3,115v-47.1c0-22.7-8-42-24.1-58.1
	c-16.1-16.1-35.5-24.1-58.1-24.1H82.3c-22.7,0-42,8-58.1,24.1C8,113.3,0,132.7,0,155.3v201.2c0,22.7,8,42,24.1,58.1
	s35.5,24.1,58.1,24.1h201.2c22.7,0,42-8,58.1-24.1s24.1-35.5,24.1-58.1v-47.4l115.2,115.2c3.4,3.6,7.7,5.4,12.9,5.4
	c2.3,0,4.7-0.5,7.1-1.4c7.4-3.2,11.1-8.9,11.1-16.9V100.5C512.3,92.5,508.6,86.9,501.2,83.6z M265.6,384.6H100.3V127.4h161.4v48.9
	h-103V228h87.6v48.5h-87.6v59.2h106.9V384.6z"/>
</svg>
