<?xml version="1.0" encoding="utf-8"?>
<!-- Generator: Adobe Illustrator 19.2.1, SVG Export Plug-In . SVG Version: 6.00 Build 0)  -->
<svg version="1.1" id="Layer_1" xmlns="http://www.w3.org/2000/svg" xmlns:xlink="http://www.w3.org/1999/xlink" x="0px" y="0px"
	 viewBox="0 0 566 497.8" style="enable-background:new 0 0 566 497.8;" xml:space="preserve">
<style type="text/css">
	.st0{fill:#010101;}
</style>
<g>
	<path class="st0" d="M559.6,123.2L468.4,216c-3.2,3.2-8,5.6-12.8,5.6s-9.6-1.6-12.8-5.6l-10.4-10.4c-3.2-3.2-5.6-8-5.6-12.8
		s1.6-9.6,5.6-12.8l40.8-41.6h-98.4c-10.4,0-16.8-8.8-16.8-18.4v-18.4c0-9.6,6.4-18.4,16.8-18.4H474l-40.8-41.6
		c-3.2-3.2-5.6-8-5.6-12.8s1.6-9.6,5.6-12.8l10.4-10.4c3.2-3.2,8-5.6,12.8-5.6s9.6,1.6,12.8,5.6l91.2,92c3.2,3.2,5.6,8,5.6,12.8
		S563.6,120,559.6,123.2z"/>
</g>
<path d="M290.2,4.3c0,24,0,48.1,0,73c-56.7-11.7-108.6-1.7-153.7,35.3c-33.8,27.7-54.7,63.5-61.4,106.7
	c-13.9,90.3,41.5,175.4,128.4,197.4c92.8,23.5,185.7-28.9,213.4-122.8c24.2,0,48.6,0,72.9,0c-0.7,70.9-80.4,162-167.1,189.3
	c-99.9,31.5-209.4-1.1-274.2-88.8c-63.6-86.1-64.7-202.8-2.8-290.2C107,17.7,208.2-12,290.2,4.3z"/>
<path d="M253.5,247.4c0-36.8,0-72.4,0-108c0-13.8,1.7-15.5,15.7-15.5c4.1,0,8.2,0,12.3,0c10.5,0.1,13.2,2.6,13.2,13
	c0,35.9,0,71.8,0,107.8c0,10.7,0.1,21.4,0,32.1c-0.1,8.7-3.2,11.8-11.9,11.8c-33.2,0.1-66.4,0.1-99.5,0c-8.9,0-11.9-3-12-11.7
	c-0.1-6-0.1-12.1,0-18.1c0.2-8.2,3.3-11.3,11.5-11.3c21.4-0.1,42.8,0,64.2,0C248.8,247.4,250.6,247.4,253.5,247.4z"/>
</svg>
