<?xml version="1.0" encoding="utf-8"?>
<!-- Generator: Adobe Illustrator 18.0.0, SVG Export Plug-In . SVG Version: 6.00 Build 0)  -->
<!DOCTYPE svg PUBLIC "-//W3C//DTD SVG 1.1//EN" "http://www.w3.org/Graphics/SVG/1.1/DTD/svg11.dtd">
<svg version="1.1" id="Layer_1" xmlns="http://www.w3.org/2000/svg" xmlns:xlink="http://www.w3.org/1999/xlink" x="0px" y="0px"
	 viewBox="0 0 500 500" enable-background="new 0 0 500 500" xml:space="preserve">
<g>
	<path fill="#010101" d="M349.7,34.3c-1.5-1.5-3.5-2.3-5.7-2.3H168c-2.1,0-4,0.8-5.7,2.3c-1.5,1.5-2.3,3.5-2.3,5.7l-0.1,432
		c0,2.1,0.8,4,2.3,5.7c1.5,1.5,3.5,2.3,5.7,2.3H344c2.1,0,4-0.8,5.7-2.3c1.5-1.5,2.3-3.5,2.3-5.7l0.1-432
		C352.1,37.8,351.2,36,349.7,34.3z M335.9,464L335.9,464h-48v-27.9c0-1.1-0.5-2-1.2-2.8c-0.8-0.8-1.7-1.2-2.8-1.2h-56
		c-1.1,0-2,0.5-2.8,1.2c-0.8,0.8-1.2,1.7-1.2,2.8V464h-48L176,48h160.2L336,464H335.9z"/>
	<path fill="#010101" d="M203.2,120h8c1.1,0,2-0.5,2.8-1.2c0.8-0.8,1.2-1.7,1.2-2.8v-8c0-1.1-0.5-2-1.2-2.8
		c-0.8-0.8-1.7-1.2-2.8-1.2h-8c-1.1,0-2,0.5-2.8,1.2c-0.8,0.8-1.2,1.7-1.2,2.8v8c0,1.1,0.5,2,1.2,2.8
		C201.2,119.7,202.2,120,203.2,120z"/>
	<path fill="#010101" d="M236.8,120h8c1.1,0,2-0.5,2.8-1.2c0.8-0.8,1.2-1.7,1.2-2.8v-8c0-1.1-0.5-2-1.2-2.8
		c-0.8-0.8-1.7-1.2-2.8-1.2h-8c-1.1,0-2,0.5-2.8,1.2c-0.8,0.8-1.2,1.7-1.2,2.8v8c0,1.1,0.5,2,1.2,2.8
		C234.8,119.7,235.7,120,236.8,120z"/>
	<path fill="#010101" d="M203.2,152h8c1.1,0,2-0.5,2.8-1.2c0.8-0.8,1.2-1.7,1.2-2.8v-8c0-1.1-0.5-2-1.2-2.8
		c-0.8-0.8-1.7-1.2-2.8-1.2h-8c-1.1,0-2,0.5-2.8,1.2c-0.8,0.8-1.2,1.7-1.2,2.8v8c0,1.1,0.5,2,1.2,2.8
		C201.2,151.5,202.2,152,203.2,152z"/>
	<path fill="#010101" d="M236.8,152h8c1.1,0,2-0.5,2.8-1.2c0.8-0.8,1.2-1.7,1.2-2.8v-8c0-1.1-0.5-2-1.2-2.8
		c-0.8-0.8-1.7-1.2-2.8-1.2h-8c-1.1,0-2,0.5-2.8,1.2c-0.8,0.8-1.2,1.7-1.2,2.8v8c0,1.1,0.5,2,1.2,2.8
		C234.8,151.5,235.7,152,236.8,152z"/>
</g>
<path fill="#010101" d="M268,120h8c1.1,0,2-0.5,2.8-1.2s1.2-1.7,1.2-2.8v-8c0-1.1-0.5-2-1.2-2.8s-1.7-1.2-2.8-1.2h-8
	c-1.1,0-2,0.5-2.8,1.2s-1.2,1.7-1.2,2.8v8c0,1.1,0.5,2,1.2,2.8C266,119.7,266.9,120,268,120z"/>
<path fill="#010101" d="M268,152h8c1.1,0,2-0.5,2.8-1.2c0.8-0.8,1.2-1.7,1.2-2.8v-8c0-1.1-0.5-2-1.2-2.8c-0.8-0.8-1.7-1.2-2.8-1.2
	h-8c-1.1,0-2,0.5-2.8,1.2c-0.8,0.8-1.2,1.7-1.2,2.8v8c0,1.1,0.5,2,1.2,2.8C266,151.5,266.9,152,268,152z"/>
<path fill="#010101" d="M300,120h8c1.1,0,2-0.5,2.8-1.2s1.2-1.7,1.2-2.8v-8c0-1.1-0.5-2-1.2-2.8s-1.7-1.2-2.8-1.2h-8
	c-1.1,0-2,0.5-2.8,1.2s-1.2,1.7-1.2,2.8v8c0,1.1,0.5,2,1.2,2.8C298,119.7,298.9,120,300,120z"/>
<path fill="#010101" d="M300,152h8c1.1,0,2-0.5,2.8-1.2c0.8-0.8,1.2-1.7,1.2-2.8v-8c0-1.1-0.5-2-1.2-2.8c-0.8-0.8-1.7-1.2-2.8-1.2
	h-8c-1.1,0-2,0.5-2.8,1.2c-0.8,0.8-1.2,1.7-1.2,2.8v8c0,1.1,0.5,2,1.2,2.8C298,151.5,298.9,152,300,152z"/>
<path fill="#010101" d="M203.2,184h8c1.1,0,2-0.5,2.8-1.2c0.8-0.8,1.2-1.7,1.2-2.8v-8c0-1.1-0.5-2-1.2-2.8c-0.8-0.8-1.7-1.2-2.8-1.2
	h-8c-1.1,0-2,0.5-2.8,1.2c-0.8,0.8-1.2,1.7-1.2,2.8v8c0,1.1,0.5,2,1.2,2.8C201.2,183.5,202.2,184,203.2,184z"/>
<path fill="#010101" d="M236.8,184h8c1.1,0,2-0.5,2.8-1.2c0.8-0.8,1.2-1.7,1.2-2.8v-8c0-1.1-0.5-2-1.2-2.8c-0.8-0.8-1.7-1.2-2.8-1.2
	h-8c-1.1,0-2,0.5-2.8,1.2c-0.8,0.8-1.2,1.7-1.2,2.8v8c0,1.1,0.5,2,1.2,2.8C234.8,183.5,235.7,184,236.8,184z"/>
<path fill="#010101" d="M268,184h8c1.1,0,2-0.5,2.8-1.2c0.8-0.8,1.2-1.7,1.2-2.8v-8c0-1.1-0.5-2-1.2-2.8c-0.8-0.8-1.7-1.2-2.8-1.2
	h-8c-1.1,0-2,0.5-2.8,1.2c-0.8,0.8-1.2,1.7-1.2,2.8v8c0,1.1,0.5,2,1.2,2.8C266,183.5,266.9,184,268,184z"/>
<path fill="#010101" d="M300,184h8c1.1,0,2-0.5,2.8-1.2c0.8-0.8,1.2-1.7,1.2-2.8v-8c0-1.1-0.5-2-1.2-2.8c-0.8-0.8-1.7-1.2-2.8-1.2
	h-8c-1.1,0-2,0.5-2.8,1.2c-0.8,0.8-1.2,1.7-1.2,2.8v8c0,1.1,0.5,2,1.2,2.8C298,183.5,298.9,184,300,184z"/>
<path fill="#010101" d="M203.2,216h8c1.1,0,2-0.5,2.8-1.2c0.8-0.8,1.2-1.7,1.2-2.8v-8c0-1.1-0.5-2-1.2-2.8c-0.8-0.8-1.7-1.2-2.8-1.2
	h-8c-1.1,0-2,0.5-2.8,1.2c-0.8,0.8-1.2,1.7-1.2,2.8v8c0,1.1,0.5,2,1.2,2.8C201.2,215.5,202.2,216,203.2,216z"/>
<path fill="#010101" d="M236.8,216h8c1.1,0,2-0.5,2.8-1.2c0.8-0.8,1.2-1.7,1.2-2.8v-8c0-1.1-0.5-2-1.2-2.8c-0.8-0.8-1.7-1.2-2.8-1.2
	h-8c-1.1,0-2,0.5-2.8,1.2c-0.8,0.8-1.2,1.7-1.2,2.8v8c0,1.1,0.5,2,1.2,2.8C234.8,215.5,235.7,216,236.8,216z"/>
<path fill="#010101" d="M268,216h8c1.1,0,2-0.5,2.8-1.2c0.8-0.8,1.2-1.7,1.2-2.8v-8c0-1.1-0.5-2-1.2-2.8c-0.8-0.8-1.7-1.2-2.8-1.2
	h-8c-1.1,0-2,0.5-2.8,1.2c-0.8,0.8-1.2,1.7-1.2,2.8v8c0,1.1,0.5,2,1.2,2.8C266,215.5,266.9,216,268,216z"/>
<path fill="#010101" d="M300,216h8c1.1,0,2-0.5,2.8-1.2c0.8-0.8,1.2-1.7,1.2-2.8v-8c0-1.1-0.5-2-1.2-2.8c-0.8-0.8-1.7-1.2-2.8-1.2
	h-8c-1.1,0-2,0.5-2.8,1.2c-0.8,0.8-1.2,1.7-1.2,2.8v8c0,1.1,0.5,2,1.2,2.8C298,215.5,298.9,216,300,216z"/>
<path fill="#010101" d="M203.2,248h8c1.1,0,2-0.5,2.8-1.2c0.8-0.8,1.2-1.7,1.2-2.8v-8c0-1.1-0.5-2-1.2-2.8c-0.8-0.8-1.7-1.2-2.8-1.2
	h-8c-1.1,0-2,0.5-2.8,1.2c-0.8,0.8-1.2,1.7-1.2,2.8v8c0,1.1,0.5,2,1.2,2.8C201.2,247.5,202.2,248,203.2,248z"/>
<path fill="#010101" d="M236.8,248h8c1.1,0,2-0.5,2.8-1.2c0.8-0.8,1.2-1.7,1.2-2.8v-8c0-1.1-0.5-2-1.2-2.8c-0.8-0.8-1.7-1.2-2.8-1.2
	h-8c-1.1,0-2,0.5-2.8,1.2c-0.8,0.8-1.2,1.7-1.2,2.8v8c0,1.1,0.5,2,1.2,2.8C234.8,247.5,235.7,248,236.8,248z"/>
<path fill="#010101" d="M268,248h8c1.1,0,2-0.5,2.8-1.2c0.8-0.8,1.2-1.7,1.2-2.8v-8c0-1.1-0.5-2-1.2-2.8c-0.8-0.8-1.7-1.2-2.8-1.2
	h-8c-1.1,0-2,0.5-2.8,1.2c-0.8,0.8-1.2,1.7-1.2,2.8v8c0,1.1,0.5,2,1.2,2.8C266,247.5,266.9,248,268,248z"/>
<path fill="#010101" d="M300,248h8c1.1,0,2-0.5,2.8-1.2c0.8-0.8,1.2-1.7,1.2-2.8v-8c0-1.1-0.5-2-1.2-2.8c-0.8-0.8-1.7-1.2-2.8-1.2
	h-8c-1.1,0-2,0.5-2.8,1.2c-0.8,0.8-1.2,1.7-1.2,2.8v8c0,1.1,0.5,2,1.2,2.8C298,247.5,298.9,248,300,248z"/>
<path fill="#010101" d="M203.2,280h8c1.1,0,2-0.5,2.8-1.2c0.8-0.8,1.2-1.7,1.2-2.8v-8c0-1.1-0.5-2-1.2-2.8c-0.8-0.8-1.7-1.2-2.8-1.2
	h-8c-1.1,0-2,0.5-2.8,1.2c-0.8,0.8-1.2,1.7-1.2,2.8v8c0,1.1,0.5,2,1.2,2.8C201.2,279.5,202.2,280,203.2,280z"/>
<path fill="#010101" d="M236.8,280h8c1.1,0,2-0.5,2.8-1.2c0.8-0.8,1.2-1.7,1.2-2.8v-8c0-1.1-0.5-2-1.2-2.8c-0.8-0.8-1.7-1.2-2.8-1.2
	h-8c-1.1,0-2,0.5-2.8,1.2c-0.8,0.8-1.2,1.7-1.2,2.8v8c0,1.1,0.5,2,1.2,2.8C234.8,279.5,235.7,280,236.8,280z"/>
<path fill="#010101" d="M268,280h8c1.1,0,2-0.5,2.8-1.2s1.2-1.7,1.2-2.8v-8c0-1.1-0.5-2-1.2-2.8s-1.7-1.2-2.8-1.2h-8
	c-1.1,0-2,0.5-2.8,1.2s-1.2,1.7-1.2,2.8v8c0,1.1,0.5,2,1.2,2.8S266.9,280,268,280z"/>
<path fill="#010101" d="M300,280h8c1.1,0,2-0.5,2.8-1.2s1.2-1.7,1.2-2.8v-8c0-1.1-0.5-2-1.2-2.8s-1.7-1.2-2.8-1.2h-8
	c-1.1,0-2,0.5-2.8,1.2s-1.2,1.7-1.2,2.8v8c0,1.1,0.5,2,1.2,2.8S298.9,280,300,280z"/>
<path fill="#010101" d="M203.2,312h8c1.1,0,2-0.5,2.8-1.2c0.8-0.8,1.2-1.7,1.2-2.8v-8c0-1.1-0.5-2-1.2-2.8c-0.8-0.8-1.7-1.2-2.8-1.2
	h-8c-1.1,0-2,0.5-2.8,1.2c-0.8,0.8-1.2,1.7-1.2,2.8v8c0,1.1,0.5,2,1.2,2.8C201.2,311.5,202.2,312,203.2,312z"/>
<path fill="#010101" d="M236.8,312h8c1.1,0,2-0.5,2.8-1.2c0.8-0.8,1.2-1.7,1.2-2.8v-8c0-1.1-0.5-2-1.2-2.8c-0.8-0.8-1.7-1.2-2.8-1.2
	h-8c-1.1,0-2,0.5-2.8,1.2c-0.8,0.8-1.2,1.7-1.2,2.8v8c0,1.1,0.5,2,1.2,2.8C234.8,311.5,235.7,312,236.8,312z"/>
<path fill="#010101" d="M268,312h8c1.1,0,2-0.5,2.8-1.2s1.2-1.7,1.2-2.8v-8c0-1.1-0.5-2-1.2-2.8s-1.7-1.2-2.8-1.2h-8
	c-1.1,0-2,0.5-2.8,1.2s-1.2,1.7-1.2,2.8v8c0,1.1,0.5,2,1.2,2.8S266.9,312,268,312z"/>
<path fill="#010101" d="M300,312h8c1.1,0,2-0.5,2.8-1.2s1.2-1.7,1.2-2.8v-8c0-1.1-0.5-2-1.2-2.8s-1.7-1.2-2.8-1.2h-8
	c-1.1,0-2,0.5-2.8,1.2s-1.2,1.7-1.2,2.8v8c0,1.1,0.5,2,1.2,2.8S298.9,312,300,312z"/>
<path fill="#010101" d="M203.2,344h8c1.1,0,2-0.5,2.8-1.2c0.8-0.8,1.2-1.7,1.2-2.8v-8c0-1.1-0.5-2-1.2-2.8c-0.8-0.8-1.7-1.2-2.8-1.2
	h-8c-1.1,0-2,0.5-2.8,1.2c-0.8,0.8-1.2,1.7-1.2,2.8v8c0,1.1,0.5,2,1.2,2.8C201.2,343.5,202.2,344,203.2,344z"/>
<path fill="#010101" d="M236.8,344h8c1.1,0,2-0.5,2.8-1.2c0.8-0.8,1.2-1.7,1.2-2.8v-8c0-1.1-0.5-2-1.2-2.8c-0.8-0.8-1.7-1.2-2.8-1.2
	h-8c-1.1,0-2,0.5-2.8,1.2c-0.8,0.8-1.2,1.7-1.2,2.8v8c0,1.1,0.5,2,1.2,2.8C234.8,343.5,235.7,344,236.8,344z"/>
<path fill="#010101" d="M268,344h8c1.1,0,2-0.5,2.8-1.2s1.2-1.7,1.2-2.8v-8c0-1.1-0.5-2-1.2-2.8s-1.7-1.2-2.8-1.2h-8
	c-1.1,0-2,0.5-2.8,1.2s-1.2,1.7-1.2,2.8v8c0,1.1,0.5,2,1.2,2.8S266.9,344,268,344z"/>
<path fill="#010101" d="M300,344h8c1.1,0,2-0.5,2.8-1.2s1.2-1.7,1.2-2.8v-8c0-1.1-0.5-2-1.2-2.8s-1.7-1.2-2.8-1.2h-8
	c-1.1,0-2,0.5-2.8,1.2s-1.2,1.7-1.2,2.8v8c0,1.1,0.5,2,1.2,2.8S298.9,344,300,344z"/>
<path fill="#010101" d="M203.2,376h8c1.1,0,2-0.5,2.8-1.2c0.8-0.8,1.2-1.7,1.2-2.8v-8c0-1.1-0.5-2-1.2-2.8c-0.8-0.8-1.7-1.2-2.8-1.2
	h-8c-1.1,0-2,0.5-2.8,1.2c-0.8,0.8-1.2,1.7-1.2,2.8v8c0,1.1,0.5,2,1.2,2.8C201.2,375.5,202.2,376,203.2,376z"/>
<path fill="#010101" d="M236.8,376h8c1.1,0,2-0.5,2.8-1.2c0.8-0.8,1.2-1.7,1.2-2.8v-8c0-1.1-0.5-2-1.2-2.8c-0.8-0.8-1.7-1.2-2.8-1.2
	h-8c-1.1,0-2,0.5-2.8,1.2c-0.8,0.8-1.2,1.7-1.2,2.8v8c0,1.1,0.5,2,1.2,2.8C234.8,375.5,235.7,376,236.8,376z"/>
<path fill="#010101" d="M268,376h8c1.1,0,2-0.5,2.8-1.2s1.2-1.7,1.2-2.8v-8c0-1.1-0.5-2-1.2-2.8s-1.7-1.2-2.8-1.2h-8
	c-1.1,0-2,0.5-2.8,1.2s-1.2,1.7-1.2,2.8v8c0,1.1,0.5,2,1.2,2.8S266.9,376,268,376z"/>
<path fill="#010101" d="M300,376h8c1.1,0,2-0.5,2.8-1.2s1.2-1.7,1.2-2.8v-8c0-1.1-0.5-2-1.2-2.8s-1.7-1.2-2.8-1.2h-8
	c-1.1,0-2,0.5-2.8,1.2s-1.2,1.7-1.2,2.8v8c0,1.1,0.5,2,1.2,2.8S298.9,376,300,376z"/>
<path fill="#010101" d="M203.2,408h8c1.1,0,2-0.5,2.8-1.2c0.8-0.8,1.2-1.7,1.2-2.8v-8c0-1.1-0.5-2-1.2-2.8c-0.8-0.8-1.7-1.2-2.8-1.2
	h-8c-1.1,0-2,0.5-2.8,1.2c-0.8,0.8-1.2,1.7-1.2,2.8v8c0,1.1,0.5,2,1.2,2.8C201.2,407.5,202.2,408,203.2,408z"/>
<path fill="#010101" d="M236.8,408h8c1.1,0,2-0.5,2.8-1.2c0.8-0.8,1.2-1.7,1.2-2.8v-8c0-1.1-0.5-2-1.2-2.8c-0.8-0.8-1.7-1.2-2.8-1.2
	h-8c-1.1,0-2,0.5-2.8,1.2c-0.8,0.8-1.2,1.7-1.2,2.8v8c0,1.1,0.5,2,1.2,2.8C234.8,407.5,235.7,408,236.8,408z"/>
<path fill="#010101" d="M268,408h8c1.1,0,2-0.5,2.8-1.2s1.2-1.7,1.2-2.8v-8c0-1.1-0.5-2-1.2-2.8s-1.7-1.2-2.8-1.2h-8
	c-1.1,0-2,0.5-2.8,1.2s-1.2,1.7-1.2,2.8v8c0,1.1,0.5,2,1.2,2.8S266.9,408,268,408z"/>
<path fill="#010101" d="M300,408h8c1.1,0,2-0.5,2.8-1.2s1.2-1.7,1.2-2.8v-8c0-1.1-0.5-2-1.2-2.8s-1.7-1.2-2.8-1.2h-8
	c-1.1,0-2,0.5-2.8,1.2s-1.2,1.7-1.2,2.8v8c0,1.1,0.5,2,1.2,2.8S298.9,408,300,408z"/>
<g>
	<path fill="#010101" d="M493.7,226.3c-1.5-1.5-3.5-2.3-5.7-2.3H344c-2.1,0-4,0.8-5.7,2.3c-1.5,1.5-2.3,3.5-2.3,5.7v240
		c0,2.1,0.8,4,2.3,5.7c1.5,1.5,3.5,2.3,5.7,2.3h144.1c2.1,0,4-0.8,5.7-2.3c1.5-1.5,2.3-3.5,2.3-5.7V232
		C496.1,229.8,495.2,228,493.7,226.3z M480,464L480,464h-32v-27.9c0-1.1-0.5-2-1.2-2.8c-0.8-0.8-1.7-1.2-2.8-1.2h-56
		c-1.1,0-2,0.5-2.8,1.2c-0.8,0.8-1.2,1.7-1.2,2.8V464h-32V240h128.2V464H480z"/>
</g>
<path fill="#010101" d="M363.3,280h8c1.1,0,2-0.5,2.8-1.2s1.2-1.7,1.2-2.8v-8c0-1.1-0.5-2-1.2-2.8s-1.7-1.2-2.8-1.2h-8
	c-1.1,0-2,0.5-2.8,1.2c-0.8,0.8-1.2,1.7-1.2,2.8v8c0,1.1,0.5,2,1.2,2.8C361.3,279.5,362.3,280,363.3,280z"/>
<path fill="#010101" d="M396.9,280h8c1.1,0,2-0.5,2.8-1.2c0.8-0.8,1.2-1.7,1.2-2.8v-8c0-1.1-0.5-2-1.2-2.8c-0.8-0.8-1.7-1.2-2.8-1.2
	h-8c-1.1,0-2,0.5-2.8,1.2c-0.8,0.8-1.2,1.7-1.2,2.8v8c0,1.1,0.5,2,1.2,2.8C394.9,279.5,395.8,280,396.9,280z"/>
<path fill="#010101" d="M428.1,280h8c1.1,0,2-0.5,2.8-1.2c0.8-0.8,1.2-1.7,1.2-2.8v-8c0-1.1-0.5-2-1.2-2.8c-0.8-0.8-1.7-1.2-2.8-1.2
	h-8c-1.1,0-2,0.5-2.8,1.2c-0.8,0.8-1.2,1.7-1.2,2.8v8c0,1.1,0.5,2,1.2,2.8C426.1,279.5,427,280,428.1,280z"/>
<path fill="#010101" d="M460.1,280h8c1.1,0,2-0.5,2.8-1.2c0.8-0.8,1.2-1.7,1.2-2.8v-8c0-1.1-0.5-2-1.2-2.8c-0.8-0.8-1.7-1.2-2.8-1.2
	h-8c-1.1,0-2,0.5-2.8,1.2s-1.2,1.7-1.2,2.8v8c0,1.1,0.5,2,1.2,2.8S459,280,460.1,280z"/>
<path fill="#010101" d="M363.3,312h8c1.1,0,2-0.5,2.8-1.2s1.2-1.7,1.2-2.8v-8c0-1.1-0.5-2-1.2-2.8s-1.7-1.2-2.8-1.2h-8
	c-1.1,0-2,0.5-2.8,1.2c-0.8,0.8-1.2,1.7-1.2,2.8v8c0,1.1,0.5,2,1.2,2.8C361.3,311.5,362.3,312,363.3,312z"/>
<path fill="#010101" d="M396.9,312h8c1.1,0,2-0.5,2.8-1.2c0.8-0.8,1.2-1.7,1.2-2.8v-8c0-1.1-0.5-2-1.2-2.8c-0.8-0.8-1.7-1.2-2.8-1.2
	h-8c-1.1,0-2,0.5-2.8,1.2c-0.8,0.8-1.2,1.7-1.2,2.8v8c0,1.1,0.5,2,1.2,2.8C394.9,311.5,395.8,312,396.9,312z"/>
<path fill="#010101" d="M428.1,312h8c1.1,0,2-0.5,2.8-1.2c0.8-0.8,1.2-1.7,1.2-2.8v-8c0-1.1-0.5-2-1.2-2.8c-0.8-0.8-1.7-1.2-2.8-1.2
	h-8c-1.1,0-2,0.5-2.8,1.2c-0.8,0.8-1.2,1.7-1.2,2.8v8c0,1.1,0.5,2,1.2,2.8C426.1,311.5,427,312,428.1,312z"/>
<path fill="#010101" d="M460.1,312h8c1.1,0,2-0.5,2.8-1.2c0.8-0.8,1.2-1.7,1.2-2.8v-8c0-1.1-0.5-2-1.2-2.8c-0.8-0.8-1.7-1.2-2.8-1.2
	h-8c-1.1,0-2,0.5-2.8,1.2s-1.2,1.7-1.2,2.8v8c0,1.1,0.5,2,1.2,2.8S459,312,460.1,312z"/>
<path fill="#010101" d="M363.3,344h8c1.1,0,2-0.5,2.8-1.2s1.2-1.7,1.2-2.8v-8c0-1.1-0.5-2-1.2-2.8s-1.7-1.2-2.8-1.2h-8
	c-1.1,0-2,0.5-2.8,1.2c-0.8,0.8-1.2,1.7-1.2,2.8v8c0,1.1,0.5,2,1.2,2.8C361.3,343.5,362.3,344,363.3,344z"/>
<path fill="#010101" d="M396.9,344h8c1.1,0,2-0.5,2.8-1.2c0.8-0.8,1.2-1.7,1.2-2.8v-8c0-1.1-0.5-2-1.2-2.8c-0.8-0.8-1.7-1.2-2.8-1.2
	h-8c-1.1,0-2,0.5-2.8,1.2c-0.8,0.8-1.2,1.7-1.2,2.8v8c0,1.1,0.5,2,1.2,2.8C394.9,343.5,395.8,344,396.9,344z"/>
<path fill="#010101" d="M428.1,344h8c1.1,0,2-0.5,2.8-1.2c0.8-0.8,1.2-1.7,1.2-2.8v-8c0-1.1-0.5-2-1.2-2.8c-0.8-0.8-1.7-1.2-2.8-1.2
	h-8c-1.1,0-2,0.5-2.8,1.2c-0.8,0.8-1.2,1.7-1.2,2.8v8c0,1.1,0.5,2,1.2,2.8C426.1,343.5,427,344,428.1,344z"/>
<path fill="#010101" d="M460.1,344h8c1.1,0,2-0.5,2.8-1.2c0.8-0.8,1.2-1.7,1.2-2.8v-8c0-1.1-0.5-2-1.2-2.8c-0.8-0.8-1.7-1.2-2.8-1.2
	h-8c-1.1,0-2,0.5-2.8,1.2s-1.2,1.7-1.2,2.8v8c0,1.1,0.5,2,1.2,2.8S459,344,460.1,344z"/>
<path fill="#010101" d="M363.3,376h8c1.1,0,2-0.5,2.8-1.2s1.2-1.7,1.2-2.8v-8c0-1.1-0.5-2-1.2-2.8s-1.7-1.2-2.8-1.2h-8
	c-1.1,0-2,0.5-2.8,1.2c-0.8,0.8-1.2,1.7-1.2,2.8v8c0,1.1,0.5,2,1.2,2.8C361.3,375.5,362.3,376,363.3,376z"/>
<path fill="#010101" d="M396.9,376h8c1.1,0,2-0.5,2.8-1.2c0.8-0.8,1.2-1.7,1.2-2.8v-8c0-1.1-0.5-2-1.2-2.8c-0.8-0.8-1.7-1.2-2.8-1.2
	h-8c-1.1,0-2,0.5-2.8,1.2c-0.8,0.8-1.2,1.7-1.2,2.8v8c0,1.1,0.5,2,1.2,2.8C394.9,375.5,395.8,376,396.9,376z"/>
<path fill="#010101" d="M428.1,376h8c1.1,0,2-0.5,2.8-1.2c0.8-0.8,1.2-1.7,1.2-2.8v-8c0-1.1-0.5-2-1.2-2.8c-0.8-0.8-1.7-1.2-2.8-1.2
	h-8c-1.1,0-2,0.5-2.8,1.2c-0.8,0.8-1.2,1.7-1.2,2.8v8c0,1.1,0.5,2,1.2,2.8C426.1,375.5,427,376,428.1,376z"/>
<path fill="#010101" d="M460.1,376h8c1.1,0,2-0.5,2.8-1.2c0.8-0.8,1.2-1.7,1.2-2.8v-8c0-1.1-0.5-2-1.2-2.8c-0.8-0.8-1.7-1.2-2.8-1.2
	h-8c-1.1,0-2,0.5-2.8,1.2s-1.2,1.7-1.2,2.8v8c0,1.1,0.5,2,1.2,2.8S459,376,460.1,376z"/>
<path fill="#010101" d="M363.3,408h8c1.1,0,2-0.5,2.8-1.2s1.2-1.7,1.2-2.8v-8c0-1.1-0.5-2-1.2-2.8s-1.7-1.2-2.8-1.2h-8
	c-1.1,0-2,0.5-2.8,1.2c-0.8,0.8-1.2,1.7-1.2,2.8v8c0,1.1,0.5,2,1.2,2.8C361.3,407.5,362.3,408,363.3,408z"/>
<path fill="#010101" d="M396.9,408h8c1.1,0,2-0.5,2.8-1.2c0.8-0.8,1.2-1.7,1.2-2.8v-8c0-1.1-0.5-2-1.2-2.8c-0.8-0.8-1.7-1.2-2.8-1.2
	h-8c-1.1,0-2,0.5-2.8,1.2c-0.8,0.8-1.2,1.7-1.2,2.8v8c0,1.1,0.5,2,1.2,2.8C394.9,407.5,395.8,408,396.9,408z"/>
<path fill="#010101" d="M428.1,408h8c1.1,0,2-0.5,2.8-1.2c0.8-0.8,1.2-1.7,1.2-2.8v-8c0-1.1-0.5-2-1.2-2.8c-0.8-0.8-1.7-1.2-2.8-1.2
	h-8c-1.1,0-2,0.5-2.8,1.2c-0.8,0.8-1.2,1.7-1.2,2.8v8c0,1.1,0.5,2,1.2,2.8C426.1,407.5,427,408,428.1,408z"/>
<path fill="#010101" d="M460.1,408h8c1.1,0,2-0.5,2.8-1.2c0.8-0.8,1.2-1.7,1.2-2.8v-8c0-1.1-0.5-2-1.2-2.8c-0.8-0.8-1.7-1.2-2.8-1.2
	h-8c-1.1,0-2,0.5-2.8,1.2s-1.2,1.7-1.2,2.8v8c0,1.1,0.5,2,1.2,2.8S459,408,460.1,408z"/>
<g>
	<path fill="#010101" d="M173.7,226.3c-1.5-1.5-3.5-2.3-5.7-2.3H24c-2.1,0-4,0.8-5.7,2.3c-1.5,1.5-2.3,3.5-2.3,5.7v240
		c0,2.1,0.8,4,2.3,5.7c1.5,1.5,3.5,2.3,5.7,2.3h144.1c2.1,0,4-0.8,5.7-2.3c1.5-1.5,2.3-3.5,2.3-5.7V232
		C176.1,229.8,175.2,228,173.7,226.3z M160,464L160,464h-32v-27.9c0-1.1-0.5-2-1.2-2.8c-0.8-0.8-1.7-1.2-2.8-1.2H68
		c-1.1,0-2,0.5-2.8,1.2c-0.8,0.8-1.2,1.7-1.2,2.8V464H32V240h128.2V464H160z"/>
</g>
<path fill="#010101" d="M43.3,280h8c1.1,0,2-0.5,2.8-1.2c0.8-0.8,1.2-1.7,1.2-2.8v-8c0-1.1-0.5-2-1.2-2.8c-0.8-0.8-1.7-1.2-2.8-1.2
	h-8c-1.1,0-2,0.5-2.8,1.2c-0.8,0.8-1.2,1.7-1.2,2.8v8c0,1.1,0.5,2,1.2,2.8C41.3,279.5,42.3,280,43.3,280z"/>
<path fill="#010101" d="M76.9,280h8c1.1,0,2-0.5,2.8-1.2s1.2-1.7,1.2-2.8v-8c0-1.1-0.5-2-1.2-2.8S86,264,84.9,264h-8
	c-1.1,0-2,0.5-2.8,1.2s-1.2,1.7-1.2,2.8v8c0,1.1,0.5,2,1.2,2.8S75.8,280,76.9,280z"/>
<path fill="#010101" d="M108.1,280h8c1.1,0,2-0.5,2.8-1.2c0.8-0.8,1.2-1.7,1.2-2.8v-8c0-1.1-0.5-2-1.2-2.8c-0.8-0.8-1.7-1.2-2.8-1.2
	h-8c-1.1,0-2,0.5-2.8,1.2s-1.2,1.7-1.2,2.8v8c0,1.1,0.5,2,1.2,2.8S107,280,108.1,280z"/>
<path fill="#010101" d="M140.1,280h8c1.1,0,2-0.5,2.8-1.2c0.8-0.8,1.2-1.7,1.2-2.8v-8c0-1.1-0.5-2-1.2-2.8c-0.8-0.8-1.7-1.2-2.8-1.2
	h-8c-1.1,0-2,0.5-2.8,1.2c-0.8,0.8-1.2,1.7-1.2,2.8v8c0,1.1,0.5,2,1.2,2.8C138.1,279.5,139,280,140.1,280z"/>
<path fill="#010101" d="M43.3,312h8c1.1,0,2-0.5,2.8-1.2c0.8-0.8,1.2-1.7,1.2-2.8v-8c0-1.1-0.5-2-1.2-2.8c-0.8-0.8-1.7-1.2-2.8-1.2
	h-8c-1.1,0-2,0.5-2.8,1.2c-0.8,0.8-1.2,1.7-1.2,2.8v8c0,1.1,0.5,2,1.2,2.8C41.3,311.5,42.3,312,43.3,312z"/>
<path fill="#010101" d="M76.9,312h8c1.1,0,2-0.5,2.8-1.2s1.2-1.7,1.2-2.8v-8c0-1.1-0.5-2-1.2-2.8S86,296,84.9,296h-8
	c-1.1,0-2,0.5-2.8,1.2s-1.2,1.7-1.2,2.8v8c0,1.1,0.5,2,1.2,2.8S75.8,312,76.9,312z"/>
<path fill="#010101" d="M108.1,312h8c1.1,0,2-0.5,2.8-1.2c0.8-0.8,1.2-1.7,1.2-2.8v-8c0-1.1-0.5-2-1.2-2.8c-0.8-0.8-1.7-1.2-2.8-1.2
	h-8c-1.1,0-2,0.5-2.8,1.2s-1.2,1.7-1.2,2.8v8c0,1.1,0.5,2,1.2,2.8S107,312,108.1,312z"/>
<path fill="#010101" d="M140.1,312h8c1.1,0,2-0.5,2.8-1.2c0.8-0.8,1.2-1.7,1.2-2.8v-8c0-1.1-0.5-2-1.2-2.8c-0.8-0.8-1.7-1.2-2.8-1.2
	h-8c-1.1,0-2,0.5-2.8,1.2c-0.8,0.8-1.2,1.7-1.2,2.8v8c0,1.1,0.5,2,1.2,2.8C138.1,311.5,139,312,140.1,312z"/>
<path fill="#010101" d="M43.3,344h8c1.1,0,2-0.5,2.8-1.2c0.8-0.8,1.2-1.7,1.2-2.8v-8c0-1.1-0.5-2-1.2-2.8c-0.8-0.8-1.7-1.2-2.8-1.2
	h-8c-1.1,0-2,0.5-2.8,1.2c-0.8,0.8-1.2,1.7-1.2,2.8v8c0,1.1,0.5,2,1.2,2.8C41.3,343.5,42.3,344,43.3,344z"/>
<path fill="#010101" d="M76.9,344h8c1.1,0,2-0.5,2.8-1.2s1.2-1.7,1.2-2.8v-8c0-1.1-0.5-2-1.2-2.8S86,328,84.9,328h-8
	c-1.1,0-2,0.5-2.8,1.2s-1.2,1.7-1.2,2.8v8c0,1.1,0.5,2,1.2,2.8S75.8,344,76.9,344z"/>
<path fill="#010101" d="M108.1,344h8c1.1,0,2-0.5,2.8-1.2c0.8-0.8,1.2-1.7,1.2-2.8v-8c0-1.1-0.5-2-1.2-2.8c-0.8-0.8-1.7-1.2-2.8-1.2
	h-8c-1.1,0-2,0.5-2.8,1.2s-1.2,1.7-1.2,2.8v8c0,1.1,0.5,2,1.2,2.8S107,344,108.1,344z"/>
<path fill="#010101" d="M140.1,344h8c1.1,0,2-0.5,2.8-1.2c0.8-0.8,1.2-1.7,1.2-2.8v-8c0-1.1-0.5-2-1.2-2.8c-0.8-0.8-1.7-1.2-2.8-1.2
	h-8c-1.1,0-2,0.5-2.8,1.2c-0.8,0.8-1.2,1.7-1.2,2.8v8c0,1.1,0.5,2,1.2,2.8C138.1,343.5,139,344,140.1,344z"/>
<path fill="#010101" d="M43.3,376h8c1.1,0,2-0.5,2.8-1.2c0.8-0.8,1.2-1.7,1.2-2.8v-8c0-1.1-0.5-2-1.2-2.8c-0.8-0.8-1.7-1.2-2.8-1.2
	h-8c-1.1,0-2,0.5-2.8,1.2c-0.8,0.8-1.2,1.7-1.2,2.8v8c0,1.1,0.5,2,1.2,2.8C41.3,375.5,42.3,376,43.3,376z"/>
<path fill="#010101" d="M76.9,376h8c1.1,0,2-0.5,2.8-1.2s1.2-1.7,1.2-2.8v-8c0-1.1-0.5-2-1.2-2.8S86,360,84.9,360h-8
	c-1.1,0-2,0.5-2.8,1.2s-1.2,1.7-1.2,2.8v8c0,1.1,0.5,2,1.2,2.8S75.8,376,76.9,376z"/>
<path fill="#010101" d="M108.1,376h8c1.1,0,2-0.5,2.8-1.2c0.8-0.8,1.2-1.7,1.2-2.8v-8c0-1.1-0.5-2-1.2-2.8c-0.8-0.8-1.7-1.2-2.8-1.2
	h-8c-1.1,0-2,0.5-2.8,1.2s-1.2,1.7-1.2,2.8v8c0,1.1,0.5,2,1.2,2.8S107,376,108.1,376z"/>
<path fill="#010101" d="M140.1,376h8c1.1,0,2-0.5,2.8-1.2c0.8-0.8,1.2-1.7,1.2-2.8v-8c0-1.1-0.5-2-1.2-2.8c-0.8-0.8-1.7-1.2-2.8-1.2
	h-8c-1.1,0-2,0.5-2.8,1.2c-0.8,0.8-1.2,1.7-1.2,2.8v8c0,1.1,0.5,2,1.2,2.8C138.1,375.5,139,376,140.1,376z"/>
<path fill="#010101" d="M43.3,408h8c1.1,0,2-0.5,2.8-1.2c0.8-0.8,1.2-1.7,1.2-2.8v-8c0-1.1-0.5-2-1.2-2.8c-0.8-0.8-1.7-1.2-2.8-1.2
	h-8c-1.1,0-2,0.5-2.8,1.2c-0.8,0.8-1.2,1.7-1.2,2.8v8c0,1.1,0.5,2,1.2,2.8C41.3,407.5,42.3,408,43.3,408z"/>
<path fill="#010101" d="M76.9,408h8c1.1,0,2-0.5,2.8-1.2s1.2-1.7,1.2-2.8v-8c0-1.1-0.5-2-1.2-2.8S86,392,84.9,392h-8
	c-1.1,0-2,0.5-2.8,1.2s-1.2,1.7-1.2,2.8v8c0,1.1,0.5,2,1.2,2.8S75.8,408,76.9,408z"/>
<path fill="#010101" d="M108.1,408h8c1.1,0,2-0.5,2.8-1.2c0.8-0.8,1.2-1.7,1.2-2.8v-8c0-1.1-0.5-2-1.2-2.8c-0.8-0.8-1.7-1.2-2.8-1.2
	h-8c-1.1,0-2,0.5-2.8,1.2s-1.2,1.7-1.2,2.8v8c0,1.1,0.5,2,1.2,2.8S107,408,108.1,408z"/>
<path fill="#010101" d="M140.1,408h8c1.1,0,2-0.5,2.8-1.2c0.8-0.8,1.2-1.7,1.2-2.8v-8c0-1.1-0.5-2-1.2-2.8c-0.8-0.8-1.7-1.2-2.8-1.2
	h-8c-1.1,0-2,0.5-2.8,1.2c-0.8,0.8-1.2,1.7-1.2,2.8v8c0,1.1,0.5,2,1.2,2.8C138.1,407.5,139,408,140.1,408z"/>
<path fill="#010101" d="M203.2,88h8c1.1,0,2-0.5,2.8-1.2c0.8-0.8,1.2-1.7,1.2-2.8v-8c0-1.1-0.5-2-1.2-2.8c-0.8-0.8-1.7-1.2-2.8-1.2
	h-8c-1.1,0-2,0.5-2.8,1.2c-0.8,0.8-1.2,1.7-1.2,2.8v8c0,1.1,0.5,2,1.2,2.8C201.2,87.7,202.2,88,203.2,88z"/>
<path fill="#010101" d="M236.8,88h8c1.1,0,2-0.5,2.8-1.2c0.8-0.8,1.2-1.7,1.2-2.8v-8c0-1.1-0.5-2-1.2-2.8c-0.8-0.8-1.7-1.2-2.8-1.2
	h-8c-1.1,0-2,0.5-2.8,1.2c-0.8,0.8-1.2,1.7-1.2,2.8v8c0,1.1,0.5,2,1.2,2.8C234.8,87.7,235.7,88,236.8,88z"/>
<path fill="#010101" d="M268,88h8c1.1,0,2-0.5,2.8-1.2s1.2-1.7,1.2-2.8v-8c0-1.1-0.5-2-1.2-2.8S277.1,72,276,72h-8
	c-1.1,0-2,0.5-2.8,1.2S264,74.9,264,76v8c0,1.1,0.5,2,1.2,2.8C266,87.7,266.9,88,268,88z"/>
<path fill="#010101" d="M300,88h8c1.1,0,2-0.5,2.8-1.2s1.2-1.7,1.2-2.8v-8c0-1.1-0.5-2-1.2-2.8S309.1,72,308,72h-8
	c-1.1,0-2,0.5-2.8,1.2S296,74.9,296,76v8c0,1.1,0.5,2,1.2,2.8C298,87.7,298.9,88,300,88z"/>
</svg>
