<?xml version="1.0" encoding="utf-8"?>
<!-- Generator: Adobe Illustrator 21.1.0, SVG Export Plug-In . SVG Version: 6.00 Build 0)  -->
<svg version="1.1" id="Layer_1" xmlns="http://www.w3.org/2000/svg" xmlns:xlink="http://www.w3.org/1999/xlink" x="0px" y="0px"
	 viewBox="0 0 500 500" style="enable-background:new 0 0 500 500;" xml:space="preserve">
<style type="text/css">
	.st0{fill:#010101;}
</style>
<g>
	<path class="st0" d="M488.3,444.2c-7.4,17.5-27.3,29.2-43.2,37.5c-20.7,11.6-42.3,18.4-66.3,18.4c-33.2,0-63-13.4-92.9-24.1
		c-21.6-7.5-42.3-17.5-62.2-29.2C164.1,408.3,91.2,335.9,53.9,275.8c-12.4-20-21.6-40.8-29-62.5C13.3,183.4,0,153.4,0,120.1
		c0-24.1,6.6-45,18.3-65.8c9.1-15.9,19.9-35.8,37.3-43.4C67.2,6,92,0.1,105.3,0.1c2.4,0,5,0,7.4,0.9c7.4,2.5,14.9,20,19,26.7
		c11.6,20,22.4,40.8,34,60.8c5.8,9.2,16.6,20.8,16.6,31.6c0,21.7-63.9,53.3-63.9,72.4c0,10,9.1,21.7,14.1,30.9
		c35.6,65,80.5,109.2,145.1,145c8.3,5,20.7,14.2,30.7,14.2c19,0,50.6-64.1,72.2-64.1c10.7,0,22.4,10.8,31.5,16.7
		c19.9,11.6,40.6,22.5,60.5,34.2c7.4,3.3,24.9,11.6,26.6,19.1c0.8,2.5,0.8,5,0.8,7.5C499.1,407.5,493.3,432.5,488.3,444.2z"/>
</g>
<g>
	<path class="st0" d="M493.7,120.3l-89,90.6c-3.1,3.1-7.8,5.5-12.5,5.5c-4.7,0-9.4-1.6-12.5-5.5l-10.2-10.2
		c-3.1-3.1-5.5-7.8-5.5-12.5s1.6-9.4,5.5-12.5l39.8-40.6h-96.1c-10.2,0-16.4-8.6-16.4-18v-18c0-9.4,6.2-18,16.4-18h96.9l-39.8-40.6
		c-3.1-3.1-5.5-7.8-5.5-12.5s1.6-9.4,5.5-12.5l10.2-10.2c3.1-3.1,7.8-5.5,12.5-5.5s9.4,1.6,12.5,5.5l89,89.8
		c3.1,3.1,5.5,7.8,5.5,12.5C499.9,112.5,497.6,117.2,493.7,120.3z"/>
</g>
</svg>
