<?xml version="1.0" encoding="utf-8"?>
<!-- Generator: Adobe Illustrator 18.1.1, SVG Export Plug-In . SVG Version: 6.00 Build 0)  -->
<svg version="1.1" id="Layer_1" xmlns="http://www.w3.org/2000/svg" xmlns:xlink="http://www.w3.org/1999/xlink" x="0px" y="0px"
	 viewBox="0 0 500 500" enable-background="new 0 0 500 500" xml:space="preserve">
<g>
	<path fill="#010101" d="M352.6,240.5l-73.4,155.9c-4.2,8.8-13.5,14.3-23.2,14.3c-9.7,0-18.9-5.4-23-14.3l-73.6-155.9
		c-5.3-11.1-6.6-23.8-6.6-36.1c0-57,46.2-103.1,103.1-103.1s103.1,46.2,103.1,103.1C359.1,216.8,357.7,229.5,352.6,240.5z
		 M256,152.9c-28.4,0-51.6,23.2-51.6,51.6S227.6,256,256,256s51.6-23.2,51.6-51.6S284.4,152.9,256,152.9z"/>
</g>
<path fill="#010101" d="M256.1,512v-42c22.6,0,44.8-3.6,66.1-10.5l13,39.9C309.8,507.8,283.3,512,256.1,512z M177,499.6
	c-25.6-8.3-49.5-20.5-71.4-36.4l24.7-34c18.3,13.3,38.3,23.5,59.6,30.5L177,499.6z M406.6,463.1l-24.8-34
	c18.2-13.3,34.1-29.1,47.3-47.4l33.9,24.7C447.4,428.2,428.3,447.2,406.6,463.1z M49.1,406.6c-15.8-21.9-28.1-45.7-36.5-71.4
	l39.9-13c6.9,21.3,17.2,41.3,30.5,59.6L49.1,406.6z M499.5,335l-39.9-12.9c6.9-21.3,10.4-43.5,10.4-66.1v-0.5h42v0.5
	C512.1,282.9,507.9,309.6,499.5,335z M42,256.1H0V256C0,229,4.2,202.6,12.4,177l40,12.9C45.5,211.3,42,233.4,42,256V256.1z
	 M459.6,189.4c-6.9-21.3-17.2-41.3-30.5-59.6l33.9-24.8c16,21.7,28.3,45.7,36.5,71.3L459.6,189.4z M82.7,130.3l-34-24.7
	C64.5,84,83.6,64.9,105.2,49.1L130,82.9C111.9,96.2,95.9,112.1,82.7,130.3z M381.6,82.5c-18.3-13.3-38.3-23.4-59.7-30.3l12.9-39.9
	c25.6,8.3,49.6,20.5,71.4,36.3L381.6,82.5z M189.6,52.4l-13-39.9C202.1,4.3,228.7,0,255.7,0l0.1,42C233,42,210.8,45.5,189.6,52.4z"
	/>
</svg>
