<?xml version="1.0" encoding="utf-8"?>
<!-- Generator: Adobe Illustrator 18.0.0, SVG Export Plug-In . SVG Version: 6.00 Build 0)  -->
<!DOCTYPE svg PUBLIC "-//W3C//DTD SVG 1.1//EN" "http://www.w3.org/Graphics/SVG/1.1/DTD/svg11.dtd">
<svg version="1.1" id="Layer_1" xmlns="http://www.w3.org/2000/svg" xmlns:xlink="http://www.w3.org/1999/xlink" x="0px" y="0px"
	 viewBox="0 0 500 500" enable-background="new 0 0 500 500" xml:space="preserve">
<g>
	<path fill="#010101" d="M256,254.6c35.3,0,65.6-12.3,90.6-37.4c25-25,37.4-55,37.4-90.6c0-35.3-12.3-65.6-37.4-90.6
		c-25-24.7-55.4-37.4-90.6-37.4s-65.6,12.7-90.6,37.7s-37.4,55-37.4,90.6c0,35.3,12.3,65.6,37.4,90.6
		C190.4,242.3,220.7,254.6,256,254.6z"/>
	<path fill="#010101" d="M489.4,391.1c-0.7-11.3-2.5-23.3-4.6-36.3s-5.3-25-8.8-36.3c-3.5-10.9-8.5-21.9-14.5-32.4
		c-6-10.6-13-19.4-20.8-27.2c-7.8-7.4-17.3-13.4-28.6-18c-11.3-4.6-23.6-6.7-37-6.7c-2.1,0-6.7,2.5-14.1,7.1
		c-7.4,4.9-15.5,10.2-24.7,15.9c-9.2,6-21.2,11.3-36,15.9c-14.8,4.9-29.6,7.1-44.4,7.1s-29.6-2.5-44.4-7.1
		c-14.8-4.9-26.8-10.2-36-15.9c-9.2-6-17.6-11.3-24.7-15.9c-7.4-4.9-12-7.1-14.1-7.1c-13.4,0-26.1,2.1-37,6.7
		c-11.3,4.6-20.8,10.2-28.6,18c-7.8,7.4-14.8,16.6-20.8,27.2S39.5,307.5,36,318.4c-3.5,11.3-6.3,23.3-8.8,36.3s-3.9,25-4.6,36.3
		c-0.7,11.3-1.1,22.6-1.1,34.6c0,26.8,8.1,47.6,24.3,63.1c16.2,15.5,37.7,23.3,64.5,23.3h291.3c26.8,0,48.3-7.8,64.5-23.3
		c16.2-15.5,24.3-36.3,24.3-63.1C490.5,414,490.1,402.3,489.4,391.1z M392.8,427c0,27.2-21.9,49-49,49H168.2c-27.2,0-49-21.9-49-49
		v-55.4c0-27.2,21.9-49,49-49h175.3c27.2,0,49,21.9,49,49V427H392.8z"/>
</g>
<rect x="160" y="352" fill="#010101" width="128" height="16"/>
<rect x="160" y="416" fill="#010101" width="192" height="16"/>
<rect x="160" y="384" fill="#010101" width="192" height="16"/>
</svg>
