<?xml version="1.0" encoding="utf-8"?>
<!-- Generator: Adobe Illustrator 18.0.0, SVG Export Plug-In . SVG Version: 6.00 Build 0)  -->
<!DOCTYPE svg PUBLIC "-//W3C//DTD SVG 1.1//EN" "http://www.w3.org/Graphics/SVG/1.1/DTD/svg11.dtd">
<svg version="1.1" id="Layer_1" xmlns="http://www.w3.org/2000/svg" xmlns:xlink="http://www.w3.org/1999/xlink" x="0px" y="0px"
	 viewBox="0 0 500 500" enable-background="new 0 0 500 500" xml:space="preserve">
<g id="wifi_1_">
	<path fill="#010101" d="M411.3,192.4l-24.2,0c0.1-17.3-6.5-34.6-19.7-47.8c-13.1-13.1-30.2-19.6-47.4-19.7l0-24.2
		c23.4,0.1,46.8,9,64.6,26.8C402.5,145.3,411.4,168.9,411.3,192.4z M350.1,161.9c-8.3-8.3-19.2-12.5-30.1-12.5v43.1l42.7,0
		C362.7,181.3,358.6,170.3,350.1,161.9z M320,0l0,25.2c42.7,0,85.4,16.3,117.9,48.9c32.6,32.6,48.9,75.5,48.9,118.4l25.2,0
		c0.1-49.3-18.7-98.6-56.2-136.2C418.3,18.8,369.2,0,320,0z M420.7,91.3C392.9,63.5,356.5,49.6,320,49.6l0,26.7
		c29.6,0.1,59.3,11.4,81.8,33.9c22.7,22.7,34,52.5,33.9,82.2l26.7,0C462.5,155.8,448.6,119.2,420.7,91.3z"/>
</g>
<path fill="#010101" d="M238.1,0H49.9C22.4,0,0,22.4,0,49.9v412.3C0,489.6,22.4,512,49.9,512h188.3c27.4,0,49.9-22.4,49.9-49.9V49.9
	C288,22.4,265.6,0,238.1,0z M144,499.3c-19.5,0-35.3-15.8-35.3-35.3s15.8-35.3,35.3-35.3s35.3,15.8,35.3,35.3S163.5,499.3,144,499.3
	z M248,412H40V80h208V412z"/>
</svg>
