<?xml version="1.0" encoding="utf-8"?>
<!-- Generator: Adobe Illustrator 21.1.0, SVG Export Plug-In . SVG Version: 6.00 Build 0)  -->
<svg version="1.1" id="Layer_1" xmlns="http://www.w3.org/2000/svg" xmlns:xlink="http://www.w3.org/1999/xlink" x="0px" y="0px"
	 viewBox="0 0 500 500" style="enable-background:new 0 0 500 500;" xml:space="preserve">
<style type="text/css">
	.st0{fill:#010101;}
</style>
<g>
	<path class="st0" d="M489.8,444.2c-7.4,17.5-27.3,29.2-43.1,37.5c-20.7,11.6-42.3,18.4-66.3,18.4c-33.2,0-63-13.4-92.9-24.1
		c-21.6-7.5-42.3-17.5-62.2-29.2C165.6,408.4,92.7,335.9,55.4,275.8c-12.4-20-21.6-40.8-29-62.5c-11.6-29.9-24.9-59.9-24.9-93.2
		c0-24.1,6.6-45,18.3-65.8C28.8,38.5,39.7,18.5,57,11C68.7,6,93.4,0.1,106.7,0.1c2.4,0,5,0,7.4,0.9c7.4,2.5,14.9,20,19.1,26.6
		c11.6,20,22.3,40.8,34,60.8c5.8,9.2,16.6,20.8,16.6,31.6c0,21.7-63.9,53.3-63.9,72.5c0,10,9.1,21.7,14.1,30.9
		c35.6,65,80.5,109.2,145,145c8.3,5,20.7,14.1,30.6,14.1c19.1,0,50.5-64.1,72.2-64.1c10.8,0,22.3,10.9,31.6,16.7
		c19.9,11.6,40.6,22.5,60.5,34.2c7.4,3.3,24.9,11.6,26.6,19.1c0.8,2.5,0.8,5,0.8,7.5C500.6,407.6,494.8,432.6,489.8,444.2z"/>
</g>
</svg>
