<?xml version="1.0" encoding="utf-8"?>
<!-- Generator: Adobe Illustrator 18.0.0, SVG Export Plug-In . SVG Version: 6.00 Build 0)  -->
<!DOCTYPE svg PUBLIC "-//W3C//DTD SVG 1.1//EN" "http://www.w3.org/Graphics/SVG/1.1/DTD/svg11.dtd">
<svg version="1.1" id="Layer_1" xmlns="http://www.w3.org/2000/svg" xmlns:xlink="http://www.w3.org/1999/xlink" x="0px" y="0px"
	 viewBox="0 0 500 500" enable-background="new 0 0 500 500" xml:space="preserve">
<path d="M500.9,71.7c-2.5-1-4.9-1.4-7.1-1.4c-5.1,0-9.4,1.8-12.9,5.4L365.7,190.6v-47.1c0-22.7-8-42-24.1-58.1
	c-16.1-16.1-35.5-24.1-58.1-24.1H82.3c-22.7,0-42,8-58.1,24.1C8,101.4,0,120.8,0,143.4v201.1c0,22.7,8,42,24.1,58.1
	c16.1,16.1,35.5,24.1,58.1,24.1h201.1c22.7,0,42-8,58.1-24.1c16.1-16.1,24.1-35.5,24.1-58.1v-47.4l115.1,115.1
	c3.4,3.6,7.7,5.4,12.9,5.4c2.3,0,4.7-0.5,7.1-1.4c7.4-3.2,11.1-8.9,11.1-16.9V88.6C512,80.6,508.3,75,500.9,71.7z M257.7,256.7
	l-133.5,78.2c-2.7,1.3-5.4,2.7-8.1,2.7c-2.7,0-5.4,0-8.1-1.3c-5.4-2.7-8.1-8.1-8.1-13.5V166.3c0-5.4,2.7-10.8,8.1-13.5
	c5.4-2.7,12.1-2.7,16.2,0l133.5,78.2c5.4,2.7,8.1,8.1,8.1,13.5C265.8,251.3,263.1,255.3,257.7,256.7z"/>
</svg>
