<?xml version="1.0" encoding="utf-8"?>
<!-- Generator: Adobe Illustrator 21.1.0, SVG Export Plug-In . SVG Version: 6.00 Build 0)  -->
<svg version="1.1" id="Layer_1" xmlns="http://www.w3.org/2000/svg" xmlns:xlink="http://www.w3.org/1999/xlink" x="0px" y="0px"
	 viewBox="0 0 500 500" style="enable-background:new 0 0 500 500;" xml:space="preserve">
<style type="text/css">
	.st0{fill:#010101;}
</style>
<g>
	<path class="st0" d="M489.5,444.2c-7.4,17.5-27.3,29.2-43.2,37.5C425.6,493.3,404.1,500,380,500c-33.2,0-63-13.4-92.9-24.1
		c-21.6-7.5-42.3-17.5-62.2-29.2C165.3,408.3,92.4,335.9,55.1,275.8c-12.4-20-21.6-40.8-29-62.5c-11.6-30-24.9-59.9-24.9-93.2
		c0-24.1,6.6-45,18.3-65.8c9.1-15.8,19.9-35.8,37.3-43.4C68.4,6,93.2,0.1,106.5,0.1c2.4,0,5,0,7.4,0.9c7.4,2.5,14.9,20,19,26.7
		c11.6,20,22.4,40.8,34,60.8c5.8,9.2,16.6,20.8,16.6,31.6c0,21.7-63.9,53.3-63.9,72.4c0,10,9.1,21.7,14.1,30.9
		c35.6,65,80.5,109.2,145.1,145c8.3,5,20.7,14.2,30.7,14.2c19,0,50.6-64.1,72.2-64.1c10.7,0,22.4,10.8,31.5,16.7
		c19.9,11.6,40.6,22.5,60.5,34.2c7.4,3.3,24.9,11.6,26.6,19.1c0.8,2.5,0.8,5,0.8,7.5C500.3,407.5,494.5,432.5,489.5,444.2z"/>
</g>
<g>
	<path class="st0" d="M499.9,108.6c0,60.1-49.2,109.4-109.4,109.4s-109.4-49.2-109.4-109.4S329.7,0,390.6,0S499.9,48.4,499.9,108.6z
		 M449.9,108.6c0-3.1-1.6-6.2-4.7-7.8l-77.3-45.3c-2.3-1.6-6.2-1.6-9.4,0c-3.1,1.6-4.7,4.7-4.7,7.8v90.6c0,3.1,1.6,6.2,4.7,7.8
		c1.6,0.8,3.1,0.8,4.7,0.8s3.1-0.8,4.7-1.6l77.3-45.3C448.4,114.8,449.9,112.5,449.9,108.6z"/>
</g>
</svg>
