<?xml version="1.0" encoding="utf-8"?>
<!-- Generator: Adobe Illustrator 21.1.0, SVG Export Plug-In . SVG Version: 6.00 Build 0)  -->
<svg version="1.1" id="Layer_1" xmlns="http://www.w3.org/2000/svg" xmlns:xlink="http://www.w3.org/1999/xlink" x="0px" y="0px"
	 viewBox="0 0 500 500" style="enable-background:new 0 0 500 500;" xml:space="preserve">
<style type="text/css">
	.st0{fill:#010101;}
</style>
<g>
	<path class="st0" d="M489.5,444.2c-7.4,17.5-27.3,29.2-43.2,37.5C425.6,493.3,404.1,500,380,500c-33.2,0-63-13.4-92.9-24.1
		c-21.6-7.5-42.3-17.5-62.2-29.2C165.3,408.3,92.4,335.9,55.1,275.8c-12.4-20-21.6-40.8-29-62.5c-11.6-30-24.9-59.9-24.9-93.2
		c0-24.1,6.6-45,18.3-65.8c9.1-15.8,19.9-35.8,37.3-43.4C68.4,6,93.2,0.1,106.5,0.1c2.4,0,5,0,7.4,0.9c7.4,2.5,14.9,20,19,26.7
		c11.6,20,22.4,40.8,34,60.8c5.8,9.2,16.6,20.8,16.6,31.6c0,21.7-63.9,53.3-63.9,72.4c0,10,9.1,21.7,14.1,30.9
		c35.6,65,80.5,109.2,145.1,145c8.3,5,20.7,14.2,30.7,14.2c19,0,50.6-64.1,72.2-64.1c10.7,0,22.4,10.8,31.5,16.7
		c19.9,11.6,40.6,22.5,60.5,34.2c7.4,3.3,24.9,11.6,26.6,19.1c0.8,2.5,0.8,5,0.8,7.5C500.3,407.5,494.5,432.5,489.5,444.2z"/>
</g>
<g>
	<path class="st0" d="M390.6,0c-60.9,0-109.4,48.4-109.4,108.6s49.2,109.4,109.4,109.4s109.4-49.2,109.4-109.4S451.5,0,390.6,0z
		 M441,127.5c-9.9,7.8-24.9,11.7-45.2,11.7h-18.3v38.3h-30.6V40.4h48.4c21.1,0,36.3,4.1,46,12.2c9.6,8.2,14.5,20.7,14.5,37.7
		C455.7,107.3,450.8,119.6,441,127.5z"/>
	<path class="st0" d="M427.3,73.4c-4.9-3.4-12.5-5.1-22.8-5.1h-17.9v47.2h21.1c10.4,0,17.5-2.1,21.3-6.3c3.7-4.2,5.6-10.4,5.6-18.5
		S432.1,76.9,427.3,73.4z"/>
</g>
</svg>
