<?xml version="1.0" encoding="utf-8"?>
<!-- Generator: Adobe Illustrator 18.0.0, SVG Export Plug-In . SVG Version: 6.00 Build 0)  -->
<!DOCTYPE svg PUBLIC "-//W3C//DTD SVG 1.1//EN" "http://www.w3.org/Graphics/SVG/1.1/DTD/svg11.dtd">
<svg version="1.1" id="Layer_1" xmlns="http://www.w3.org/2000/svg" xmlns:xlink="http://www.w3.org/1999/xlink" x="0px" y="0px"
	 viewBox="0 0 500 500" enable-background="new 0 0 500 500" xml:space="preserve">
<path d="M491.7,156.7C478.1,125.1,459.9,97.9,437,75c-22.9-22.9-50.1-41.1-81.7-54.7C323.8,6.8,290.7,0,256,0
	c-32.7,0-64.3,6.2-94.8,18.5c-30.6,12.3-57.7,29.7-81.5,52.2l-43.3-43C29.9,20.8,22.1,19.2,13,23C4.3,26.8,0,33.3,0,42.7V192
	c0,5.8,2.1,10.8,6.3,15c4.2,4.2,9.2,6.3,15,6.3h149.3c9.3,0,15.9-4.4,19.7-13.3c3.8-8.7,2.2-16.3-4.7-23l-46-46
	c32.9-30.4,71.7-45.7,116.3-45.7c23.1,0,45.2,4.5,66.2,13.5c21,9,39.2,21.2,54.5,36.5c15.3,15.3,27.5,33.5,36.5,54.5
	c9,21,13.5,43.1,13.5,66.2c0,23.1-4.5,45.2-13.5,66.2c-9,21-21.2,39.2-36.5,54.5c-15.3,15.3-33.5,27.5-54.5,36.5
	c-21,9-43.1,13.5-66.2,13.5c-26.4,0-51.4-5.8-75-17.3c-23.6-11.6-43.4-27.9-59.7-49c-1.6-2.2-4.1-3.6-7.7-4c-3.1,0-5.9,1-8.3,3
	l-45.7,46c-2,1.8-3.1,4.1-3.2,6.8c-0.1,2.8,0.7,5.3,2.5,7.5c24.2,29.3,53.6,52.1,88,68.2c34.4,16.1,70.8,24.2,109,24.2
	c34.7,0,67.8-6.8,99.3-20.3c31.6-13.6,58.8-31.8,81.7-54.7c22.9-22.9,41.1-50.1,54.7-81.7c13.6-31.6,20.3-64.7,20.3-99.3
	C512,221.3,505.2,188.2,491.7,156.7z"/>
<g>
	<path d="M153.6,257.8v-24.1h77.5v19.6l-25.9,29.5c10.1,1.7,18,5.9,23.5,12.8c5.5,6.8,8.3,14.7,8.3,23.6c0,13.3-4.5,23.7-13.5,31.2
		c-9,7.5-20.5,11.3-34.5,11.3c-14,0-28.2-4.9-42.5-14.8l11.6-22.4c11.9,8.4,22.6,12.7,32,12.7c5.7,0,10.3-1.4,14-4.2
		c3.7-2.8,5.5-6.8,5.5-12s-2.1-9.4-6.3-12.5c-4.2-3.1-10.1-4.6-17.6-4.6c-4,0-9.6,1.1-16.8,3.4v-20.8l24.3-28.6H153.6z"/>
	<path d="M309.5,361.7c-17.5,0-30.6-5.9-39.3-17.8c-8.7-11.9-13-27.8-13-47.6c0-19.9,4.3-35.7,13-47.6c8.7-11.9,21.8-17.8,39.3-17.8
		c17.5,0,30.6,5.9,39.3,17.8c8.7,11.9,13,27.8,13,47.6c0,19.9-4.3,35.7-13,47.6C340.1,355.8,327,361.7,309.5,361.7z M290.8,265.8
		c-4,7.7-6,17.9-6,30.6s2,22.9,6,30.6c4,7.7,10.2,11.6,18.6,11.6c8.4,0,14.7-3.9,18.6-11.6c4-7.7,6-17.9,6-30.6s-2-22.9-6-30.6
		c-4-7.7-10.2-11.6-18.6-11.6C301,254.2,294.8,258,290.8,265.8z"/>
</g>
</svg>
