<?xml version="1.0" encoding="utf-8"?>
<!-- Generator: Adobe Illustrator 17.1.0, SVG Export Plug-In . SVG Version: 6.00 Build 0)  -->
<!DOCTYPE svg PUBLIC "-//W3C//DTD SVG 1.1//EN" "http://www.w3.org/Graphics/SVG/1.1/DTD/svg11.dtd">
<svg version="1.1" id="Layer_1" xmlns="http://www.w3.org/2000/svg" xmlns:xlink="http://www.w3.org/1999/xlink" x="0px" y="0px"
	 viewBox="0 0 500 500" enable-background="new 0 0 500 500" xml:space="preserve">
<g>
	<path d="M482.3,256H377l-31.7-63.1c-3.1-6.6-10.5-10.5-17.7-9.9c-7.8,0.8-14,5.6-15.9,13.2l-36.9,122.8l-55.9-195.8
		c-2.3-7.8-9.3-13.2-18.1-13.2c-8.4,0-15.3,5.6-17.5,13.8l-33,132.5H29.7c-15.1-22.9-29.3-52.8-29.3-85.7
		C0.2,86.8,51.3,36.9,136.7,36.9c49.9,0,96.7,39.4,119.3,61.6c22.5-22.1,69.3-61.6,119.3-61.6c85.3,0,136.3,49.9,136.3,133.6
		C511.6,203.2,497.4,233.3,482.3,256z M452.6,292.5c-3.5,3.7-5.6,5.6-6.2,6.2L268.4,470c-3.5,3.5-8,5-12.6,5s-9.1-1.7-12.6-5
		L65.1,298.3c-0.6-0.2-2.9-2.3-6-5.6h105.3c8.4,0,15.7-5.6,17.7-13.8l20-80.2L256.2,389c2.3,7.8,9.3,13.2,17.7,13.2
		c8,0,15.1-5.4,17.5-13.2l41.6-138.3l15.9,32c3.1,6,9.3,9.9,16.3,9.9h87.4V292.5z"/>
</g>
</svg>
