<?xml version="1.0" encoding="utf-8"?>
<!-- Generator: Adobe Illustrator 18.0.0, SVG Export Plug-In . SVG Version: 6.00 Build 0)  -->
<!DOCTYPE svg PUBLIC "-//W3C//DTD SVG 1.1//EN" "http://www.w3.org/Graphics/SVG/1.1/DTD/svg11.dtd">
<svg version="1.1" id="Layer_1" xmlns="http://www.w3.org/2000/svg" xmlns:xlink="http://www.w3.org/1999/xlink" x="0px" y="0px"
	 viewBox="0 0 500 500" enable-background="new 0 0 500 500" xml:space="preserve">
<path d="M500.9,83.7c-2.5-1-4.9-1.4-7.1-1.4c-5.1,0-9.4,1.8-12.9,5.4L365.7,202.6v-47.1c0-22.7-8-42-24.1-58.1
	c-16.1-16.1-35.5-24.1-58.1-24.1H82.3c-22.7,0-42,8-58.1,24.1C8,113.4,0,132.8,0,155.4v201.1c0,22.7,8,42,24.1,58.1
	c16.1,16.1,35.5,24.1,58.1,24.1h201.1c22.7,0,42-8,58.1-24.1c16.1-16.1,24.1-35.5,24.1-58.1v-47.4l115.1,115.1
	c3.4,3.6,7.7,5.4,12.9,5.4c2.3,0,4.7-0.5,7.1-1.4c7.4-3.2,11.1-8.9,11.1-16.9V100.6C512,92.6,508.3,87,500.9,83.7z M272,261.7
	l-79.4,79.4c-2.5,3.3-6.6,4.1-10.7,4.1c-3,0.8-7.1-0.9-9.6-3.3l-79.4-79.4c-2.5-3.3-4.1-6.6-4.1-10.7c0-4.1,1.7-8.3,4.1-10.7
	l9.1-9.1c3.3-3.3,6.6-5,10.7-5c4.1,0,8.3,1.7,10.7,5l35.5,35.5v-86.8c0-9.1,7.4-14.1,15.7-14.1h15.7c8.3,0,15.7,5.8,15.7,14.1v86
	l35.5-35.5c2.5-3.3,6.6-5,10.7-5c4.1,0,8.3,1.7,10.7,5l9.1,9.1c3.3,3.3,5,6.6,5,10.7C277,255.1,275.3,259.3,272,261.7z"/>
</svg>
