<?xml version="1.0" encoding="utf-8"?>
<!-- Generator: Adobe Illustrator 21.1.0, SVG Export Plug-In . SVG Version: 6.00 Build 0)  -->
<svg version="1.1" id="Layer_1" xmlns="http://www.w3.org/2000/svg" xmlns:xlink="http://www.w3.org/1999/xlink" x="0px" y="0px"
	 viewBox="0 0 500 500" style="enable-background:new 0 0 500 500;" xml:space="preserve">
<style type="text/css">
	.st0{fill:#010101;}
</style>
<g>
	<path class="st0" d="M283.7,103.3c14.7,0,26.4,4.9,36.9,15.3c10.4,10.4,15.3,22.2,15.3,36.9v47.1c0,12.1,7.3,23.1,18.5,27.7
		c3.7,1.5,7.6,2.3,11.5,2.3c7.8,0,15.5-3,21.2-8.8l94.8-94.6V383l-95.1-95.1c-5.7-5.7-13.4-8.8-21.2-8.8c-3.9,0-7.8,0.7-11.5,2.3
		c-11.2,4.6-18.5,15.6-18.5,27.7v47.4c0,14.7-4.9,26.4-15.3,36.9c-10.4,10.4-22.2,15.3-36.9,15.3H82.2c-14.7,0-26.4-4.9-36.9-15.3
		C34.9,382.9,30,371.2,30,356.5V155.3c0-14.7,4.8-26.3,15.2-36.5c0.1-0.1,0.1-0.1,0.2-0.2c10.4-10.4,22.2-15.3,36.9-15.3H283.7
		 M502.7,108.5L502.7,108.5L502.7,108.5 M283.7,73.3H82.3c-22.7,0-42,8-58.1,24.1C8,113.3,0,132.7,0,155.3v201.2
		c0,22.7,8,42,24.1,58.1s35.5,24.1,58.1,24.1h201.2c22.7,0,42-8,58.1-24.1s24.1-35.5,24.1-58.1v-47.4l115.2,115.2
		c3.4,3.6,7.7,5.4,12.9,5.4c2.3,0,4.7-0.5,7.1-1.4c7.4-3.2,11.1-8.9,11.1-16.9V100.5c0.4-8-3.3-13.6-10.7-16.9
		c-2.5-1-4.9-1.4-7.1-1.4c-5.1,0-9.4,1.8-12.9,5.4l-115.3,115v-47.1c0-22.7-8-42-24.1-58.1S306.3,73.3,283.7,73.3L283.7,73.3z"/>
</g>
<g>
	<path class="st0" d="M268.6,185.2L268.6,185.2L268.6,185.2 M258,164.6c-2.6,0-5.1,1-7.1,2.9L95.2,323.3c-3.9,3.9-3.9,10.2,0,14.1
		l7.1,7.1c2,2,4.5,2.9,7.1,2.9c2.6,0,5.1-1,7.1-2.9l155.8-155.8c3.9-3.9,3.9-10.2,0-14.1l-7.1-7.1
		C263.1,165.6,260.6,164.6,258,164.6L258,164.6z"/>
</g>
<g>
	<path class="st0" d="M109.3,164.6c-2.6,0-5.1,1-7.1,2.9l-7.1,7.1c-3.9,3.9-3.9,10.2,0,14.1L251,344.5c2,2,4.5,2.9,7.1,2.9
		c2.6,0,5.1-1,7.1-2.9l7.1-7.1c3.9-3.9,3.9-10.2,0-14.1L116.4,167.5C114.4,165.6,111.9,164.6,109.3,164.6L109.3,164.6z"/>
</g>
</svg>
