<?xml version="1.0" encoding="utf-8"?>
<!-- Generator: Adobe Illustrator 18.1.1, SVG Export Plug-In . SVG Version: 6.00 Build 0)  -->
<svg version="1.1" id="Layer_1" xmlns="http://www.w3.org/2000/svg" xmlns:xlink="http://www.w3.org/1999/xlink" x="0px" y="0px"
	 viewBox="0 0 500 500" enable-background="new 0 0 500 500" xml:space="preserve">
<g>
	<path fill="#020202" d="M99.1,179.2c14.9,0,27.7-5.2,38.3-15.8c10.6-10.6,15.8-23.2,15.8-38.3c0-14.9-5.2-27.7-15.8-38.3
		C126.8,76.4,114,71.1,99.1,71.1c-14.9,0-27.7,5.4-38.3,15.9C50.2,97.6,45,110.2,45,125.3c0,14.9,5.2,27.7,15.8,38.3
		C71.4,174,84.2,179.2,99.1,179.2z"/>
	<path fill="#020202" d="M197.7,236.9c-0.3-4.8-1.1-9.8-1.9-15.3c-0.9-5.5-2.2-10.6-3.7-15.3c-1.5-4.6-3.6-9.3-6.1-13.7
		c-2.5-4.5-5.5-8.2-8.8-11.5c-3.3-3.1-7.3-5.7-12.1-7.6c-4.8-1.9-10-2.8-15.6-2.8c-0.9,0-2.8,1.1-6,3c-3.1,2.1-6.5,4.3-10.4,6.7
		c-3.9,2.5-9,4.8-15.2,6.7c-6.3,2.1-12.5,3-18.8,3c-6.3,0-12.5-1.1-18.8-3c-6.3-2.1-11.3-4.3-15.2-6.7c-3.9-2.5-7.4-4.8-10.4-6.7
		c-3.1-2.1-5.1-3-6-3c-5.7,0-11,0.9-15.6,2.8c-4.8,1.9-8.8,4.3-12.1,7.6c-3.3,3.1-6.3,7-8.8,11.5c-2.5,4.5-4.6,9-6,13.6
		c-1.5,4.8-2.7,9.8-3.7,15.3s-1.6,10.6-1.9,15.3c-0.3,4.8-0.5,9.5-0.5,14.6c0,11.3,3.4,20.1,10.3,26.7s15.9,9.8,27.3,9.8h123.1
		c11.3,0,20.4-3.3,27.3-9.8s10.3-15.3,10.3-26.7C198.2,246.6,198,241.6,197.7,236.9z M136.2,272.8H62c-11.5,0-20.7-9.3-20.7-20.7
		v-23.4c0-11.5,9.3-20.7,20.7-20.7h74.1c11.5,0,20.7,9.3,20.7,20.7v23.4h0.1C156.9,263.6,147.6,272.8,136.2,272.8z"/>
	<rect x="58.5" y="220.4" fill="#020202" width="54.1" height="6.8"/>
	<rect x="58.5" y="247.4" fill="#020202" width="81.1" height="6.8"/>
	<rect x="58.5" y="233.9" fill="#020202" width="81.1" height="6.8"/>
</g>
<g>
	<path fill="#020202" d="M412.9,179.2c14.9,0,27.7-5.2,38.3-15.8c10.6-10.6,15.8-23.2,15.8-38.3c0-14.9-5.2-27.7-15.8-38.3
		c-10.6-10.4-23.4-15.8-38.3-15.8c-14.9,0-27.7,5.4-38.3,15.9c-10.6,10.6-15.8,23.2-15.8,38.3c0,14.9,5.2,27.7,15.8,38.3
		C385.2,174,398,179.2,412.9,179.2z"/>
	<path fill="#020202" d="M511.6,236.9c-0.3-4.8-1.1-9.8-1.9-15.3c-0.9-5.5-2.2-10.6-3.7-15.3c-1.5-4.6-3.6-9.3-6.1-13.7
		c-2.5-4.5-5.5-8.2-8.8-11.5c-3.3-3.1-7.3-5.7-12.1-7.6c-4.8-1.9-10-2.8-15.6-2.8c-0.9,0-2.8,1.1-6,3c-3.1,2.1-6.5,4.3-10.4,6.7
		c-3.9,2.5-9,4.8-15.2,6.7c-6.3,2.1-12.5,3-18.8,3c-6.3,0-12.5-1.1-18.8-3c-6.3-2.1-11.3-4.3-15.2-6.7c-3.9-2.5-7.4-4.8-10.4-6.7
		c-3.1-2.1-5.1-3-6-3c-5.7,0-11,0.9-15.6,2.8c-4.8,1.9-8.8,4.3-12.1,7.6c-3.3,3.1-6.3,7-8.8,11.5c-2.5,4.5-4.6,9-6,13.6
		c-1.5,4.8-2.7,9.8-3.7,15.3s-1.6,10.6-1.9,15.3c-0.3,4.8-0.5,9.5-0.5,14.6c0,11.3,3.4,20.1,10.3,26.7s15.9,9.8,27.3,9.8h123.1
		c11.3,0,20.4-3.3,27.3-9.8s10.3-15.3,10.3-26.7C512,246.6,511.9,241.6,511.6,236.9z M450,272.8h-74.2c-11.5,0-20.7-9.3-20.7-20.7
		v-23.4c0-11.5,9.3-20.7,20.7-20.7h74.1c11.5,0,20.7,9.3,20.7,20.7v23.4h0.1C470.8,263.6,461.5,272.8,450,272.8z"/>
	<rect x="372.4" y="220.4" fill="#020202" width="54.1" height="6.8"/>
	<rect x="372.4" y="247.4" fill="#020202" width="81.1" height="6.8"/>
	<rect x="372.4" y="233.9" fill="#020202" width="81.1" height="6.8"/>
</g>
<g>
	<path fill="#020202" stroke="#FFFFFF" stroke-width="6" stroke-miterlimit="10" d="M256,292.5c30.1,0,56-10.5,77.3-31.9
		c21.3-21.3,31.9-46.9,31.9-77.3c0-30.1-10.5-56-31.9-77.3C312,84.9,286.1,74.1,256,74.1c-30,0-56,10.8-77.3,32.2
		c-21.3,21.3-31.9,46.9-31.9,77.3c0,30.1,10.5,56,31.9,77.3C200.1,282,225.9,292.5,256,292.5z"/>
	<path fill="#020202" stroke="#FFFFFF" stroke-width="6" stroke-miterlimit="10" d="M455.1,408.9c-0.6-9.6-2.1-19.9-3.9-31
		c-1.8-11.1-4.5-21.3-7.5-31c-3-9.3-7.3-18.7-12.4-27.6c-5.1-9-11.1-16.5-17.7-23.2c-6.7-6.3-14.8-11.4-24.4-15.4
		c-9.6-3.9-20.1-5.7-31.6-5.7c-1.8,0-5.7,2.1-12,6.1c-6.3,4.2-13.2,8.7-21.1,13.6c-7.8,5.1-18.1,9.6-30.7,13.6
		c-12.6,4.2-25.2,6.1-37.9,6.1c-12.6,0-25.2-2.1-37.9-6.1c-12.6-4.2-22.9-8.7-30.7-13.6c-7.8-5.1-15-9.6-21.1-13.6
		c-6.3-4.2-10.2-6.1-12-6.1c-11.4,0-22.3,1.8-31.6,5.7c-9.6,3.9-17.7,8.7-24.4,15.4c-6.7,6.3-12.6,14.2-17.7,23.2
		c-5.1,9-9.2,18.3-12.2,27.6c-3,9.6-5.4,19.9-7.5,31c-2.1,11.1-3.3,21.3-3.9,31c-0.6,9.6-0.9,19.3-0.9,29.5
		c0,22.9,6.9,40.6,20.7,53.8c13.8,13.2,32.2,19.9,55,19.9h248.5c22.9,0,41.2-6.7,55-19.9c13.8-13.2,20.7-31,20.7-53.8
		C456.1,428.4,455.7,418.4,455.1,408.9z M330.9,481.3H181.1c-23.2,0-41.8-18.7-41.8-41.8v-47.3c0-23.2,18.7-41.8,41.8-41.8h149.5
		c23.2,0,41.8,18.7,41.8,41.8v47.3h0.3C372.7,462.7,354,481.3,330.9,481.3z"/>
	<rect x="174.2" y="375.5" fill="#020202" width="109.2" height="13.6"/>
	<rect x="174.2" y="430.1" fill="#020202" width="163.8" height="13.6"/>
	<rect x="174.2" y="402.8" fill="#020202" width="163.8" height="13.6"/>
</g>
</svg>
