<?xml version="1.0" encoding="utf-8"?>
<!-- Generator: Adobe Illustrator 19.1.0, SVG Export Plug-In . SVG Version: 6.00 Build 0)  -->
<svg version="1.1" id="Layer_1" xmlns="http://www.w3.org/2000/svg" xmlns:xlink="http://www.w3.org/1999/xlink" x="0px" y="0px"
	 viewBox="-243 318.3 512.1 365.7" style="enable-background:new -243 318.3 512.1 365.7;" xml:space="preserve">
<path d="M223.4,318.3H122.8H86.2H-60.1h-36.6h-100.6c-25.1,0-45.7,20.6-45.7,45.7v274.2c0,25.2,20.6,45.8,45.7,45.8h420.7
	c25.1,0,45.7-20.6,45.7-45.7V364C269.1,338.9,248.6,318.3,223.4,318.3z M45.5,440.2c0-3.3,2.8-6.1,6.1-6.1h109.5
	c3.3,0,6.1,2.8,6.1,6.1v12.2c0,3.3-2.8,6.1-6.1,6.1H51.6c-3.3,0-6.1-2.8-6.1-6.1V440.2z M45.5,476.7c0-3.3,2.8-6.1,6.1-6.1h146
	c3.3,0,6.1,2.8,6.1,6.1v12.2c0,3.3-2.8,6.1-6.1,6.1h-146c-3.3,0-6.1-2.8-6.1-6.1V476.7z M45.5,513.2c0-3.3,2.8-6.1,6.1-6.1h121.6
	c3.3,0,6.1,2.8,6.1,6.1v12.2c0,3.3-2.8,6.1-6.1,6.1H51.6c-3.3,0-6.1-2.8-6.1-6.1V513.2z M-98.6,401.7c27.4,0,49.7,22.3,49.7,49.7
	s-22.3,49.7-49.7,49.7c-27.5,0-49.7-22.3-49.7-49.7S-126,401.7-98.6,401.7z M-42,600.6h-113.2c-20.6,0-34.6-12.6-34.6-33.6
	c0-29.3,6.9-74.2,44.8-74.2c4,0,21,18,46.4,18c25.4,0,42.4-18,46.4-18c38,0,44.8,44.9,44.8,74.2C-7.4,588-21.4,600.6-42,600.6z
	 M215.8,561.9c0,3.3-2.8,6.1-6.1,6.1H51.6c-3.3,0-6.1-2.8-6.1-6.1v-12.2c0-3.3,2.8-6.1,6.1-6.1h158.1c3.3,0,6.1,2.8,6.1,6.1V561.9z"
	/>
</svg>
