<?xml version="1.0" encoding="utf-8"?>
<!-- Generator: Adobe Illustrator 18.0.0, SVG Export Plug-In . SVG Version: 6.00 Build 0)  -->
<!DOCTYPE svg PUBLIC "-//W3C//DTD SVG 1.1//EN" "http://www.w3.org/Graphics/SVG/1.1/DTD/svg11.dtd">
<svg version="1.1" id="Layer_1" xmlns="http://www.w3.org/2000/svg" xmlns:xlink="http://www.w3.org/1999/xlink" x="0px" y="0px"
	 viewBox="0 0 500 500" enable-background="new 0 0 500 500" xml:space="preserve">
<g>
	<path fill="#010101" d="M235.4,213.5c-0.2-0.2-20-15.6-40-33.5c-35.9-32-39.8-42.3-40.2-43.9c0.2-5.8,6.5-14.9,11.6-22.3
		c4.1-5.8,7.9-11.4,10.2-16.8c5.4-13.1-1.2-20.5-4.3-23.1c-25.3-21.1-82.4-70.8-83-71.3c-2.4-2.1-5.6-2.9-8.5-2.5L81,0H0v512h64
		l0-0.1c0.4,0,0.8,0.1,1.3,0.1c6,0,10.8-4.8,10.8-10.8v-59.9c0-0.2,0-0.3,0-0.4c0.3-0.3,2.6-2.3,12.1-3.4c8.4-0.9,18.8-0.8,29.9-0.6
		c25.9,0.4,50.4,0.7,62.9-11.6c4.9-4.8,7.5-11.2,7.5-18.4v-64.2c0-4.7-3-8.8-7.4-10.3l-50.2-16.6l59.5-29.7c3.7-1.8,6-5.6,6-9.7
		v-19.4h23.3c6.3,0,11.9-2.6,15.6-7.3c8.1-10.2,4.8-27,4.1-30.3C238.7,217.2,237.4,215,235.4,213.5z"/>
	<path fill="#010101" d="M315.3,280.3c-6.5-6.1-16.8-5.8-22.9,0.8c-6.1,6.5-5.8,16.8,0.8,22.9c6.3,5.9,9.9,14.2,9.9,22.8
		c0,8.6-3.6,16.9-9.9,22.8c-6.5,6.1-6.9,16.4-0.8,22.9c3.2,3.4,7.5,5.1,11.8,5.1c4,0,7.9-1.4,11.1-4.4c12.8-12,20.2-28.9,20.2-46.5
		C335.5,309.2,328.1,292.3,315.3,280.3z"/>
	<path fill="#010101" d="M375.5,248.9c-6.5-6.1-16.8-5.8-22.9,0.7c-6.1,6.5-5.8,16.8,0.7,22.9c15.1,14.2,23.4,33.4,23.4,54.2
		c0,20.7-8.3,39.9-23.4,54.2c-6.5,6.1-6.8,16.4-0.7,22.9c3.2,3.4,7.5,5.1,11.8,5.1c4,0,8-1.5,11.1-4.4
		c21.4-20.1,33.6-48.5,33.6-77.8C409.1,297.4,396.9,269,375.5,248.9z"/>
	<path fill="#010101" d="M437.5,226.2c-6.5-6.1-16.8-5.8-22.9,0.7s-5.8,16.8,0.7,22.9c21.5,20.2,33.4,47.5,33.4,77
		c0,29.5-11.8,56.8-33.4,77c-6.5,6.1-6.9,16.4-0.7,22.9c3.2,3.4,7.5,5.1,11.8,5.1c4,0,8-1.5,11.1-4.4c27.7-26,43.6-62.7,43.6-100.6
		C481.1,288.8,465.2,252.2,437.5,226.2z"/>
</g>
</svg>
