<?xml version="1.0" encoding="utf-8"?>
<!-- Generator: Adobe Illustrator 14.0.0, SVG Export Plug-In . SVG Version: 6.00 Build 43363)  -->
<!DOCTYPE svg PUBLIC "-//W3C//DTD SVG 1.1//EN" "http://www.w3.org/Graphics/SVG/1.1/DTD/svg11.dtd">
<svg version="1.1" id="Layer_1" xmlns="http://www.w3.org/2000/svg" xmlns:xlink="http://www.w3.org/1999/xlink" x="0px" y="0px"
	 width="512px" height="512px" viewBox="0 0 512 512" enable-background="new 0 0 512 512" xml:space="preserve">
<g>
	<g id="XMLID_1_">
		<g>
			<path d="M483.993,20.657c1.802,14.937,1.245,27.737-10.738,40.649c-0.595,0.631-1.227,1.282-1.877,1.914
				C342.889,190.517,215.104,318.297,87.803,446.783c-13.563,13.804-26.865,20.454-46.373,15.698
				c-1.133-10.144-2.137-19.729,1.802-28.87c0.074-0.167,0.148-0.335,0.241-0.521c1.895-3.994,4.812-7.914,9.141-11.741
				c24.729-21.885,47.32-46.371,73.479-72.529c-0.074,0-0.167,0-0.242,0c0.167-0.167,0.316-0.315,0.483-0.482
				c-9.048,0-14.751,0.464-20.455,0c-17.371-0.948-26.159-9.754-26.159-27.105c-0.241-47.561-0.241-95.12,0-142.68
				c0-6.502,1.264-11.816,3.771-15.903c0.13-0.223,0.279-0.427,0.409-0.632c4.292-6.131,11.667-9.159,21.979-9.159
				c28.537,0,57.074-0.464,85.611,0.242c8.788,0.242,14.51-2.62,20.455-8.788c38.272-39.014,77.045-77.526,115.801-116.058
				c13.32-13.079,27.83-14.509,38.049-2.136c4.05,4.756,6.67,11.89,6.893,18.077c0.595,11.146,0.65,22.386,0.576,34.481
				c0,2.415-0.019,4.867-0.037,7.357c0,1.245-0.019,2.508-0.019,3.771c0,1.264-0.019,2.545-0.019,3.827
				c-0.019,2.583-0.019,5.202-0.019,7.877c2.916-2.917,5.814-5.778,8.694-8.621c4.311-4.254,8.602-8.416,12.819-12.54
				c0.019,0,0.019-0.019,0.019-0.019c2.824-2.75,5.61-5.462,8.379-8.174c4.181-4.106,8.323-8.193,12.373-12.28
				c8.138-8.174,16.016-16.404,23.596-24.95c1.17-1.319,2.341-2.545,3.511-3.697c0.521-0.501,1.022-0.966,1.542-1.431
				C455.419,19.709,467.886,16.774,483.993,20.657z"/>
			<path fill="#FFFFFF" d="M442.563,31.228c-1.17,1.152-2.341,2.378-3.511,3.697c-7.58,8.546-15.458,16.776-23.596,24.95
				c8.008-8.082,15.755-16.145,23.112-24.486C439.888,33.903,441.207,32.509,442.563,31.228z"/>
			<path fill="#FFFFFF" d="M373.19,93.631c-0.019,2.583-0.019,5.202-0.019,7.877C373.172,98.833,373.172,96.214,373.19,93.631z"/>
			<path d="M373.172,222.545c0,76.802,0,153.623,0,230.425c0,15.698-4.757,24.021-16.405,28.294
				c-12.373,4.756-21.161-1.188-29.484-9.512c-4.496-4.496-8.992-8.974-13.488-13.469c-31.565-31.564-63.038-62.999-93.767-93.541
				c19.34-19.34,38.532-38.568,57.649-57.723c1.579-1.579,3.158-3.158,4.738-4.737c30.209-30.171,60.361-60.174,90.757-90.438
				C373.172,215.263,373.172,218.904,373.172,222.545z"/>
			<path fill="#FFFFFF" d="M373.172,211.361c0,0.167,0,0.316,0,0.483c-30.396,30.264-60.548,60.267-90.757,90.438
				C312.68,271.944,342.795,241.736,373.172,211.361z"/>
			<path fill="#FFFFFF" d="M220.027,364.742c30.729,30.542,62.201,61.977,93.767,93.541
				C282.284,426.886,250.608,395.545,220.027,364.742z"/>
			<path fill="#FFFFFF" d="M105.88,348.338c5.704,0.464,11.407,0,20.455,0c-0.167,0.167-0.315,0.315-0.483,0.482
				c-8.899,0-14.565,0.224-20.213,0c-17.353-1.188-26.159-9.995-26.159-27.124c-0.242-47.56-0.242-95.12,0-142.68
				c0-6.8,1.356-12.243,4.013-16.367c-2.508,4.087-3.771,9.4-3.771,15.903c-0.241,47.56-0.241,95.12,0,142.68
				C79.721,338.584,88.509,347.39,105.88,348.338z"/>
			<path fill="#FFFFFF" d="M41.431,462.481c19.507,4.756,32.81-1.895,46.373-15.698C215.104,318.297,342.889,190.517,471.378,63.219
				C342.963,190.684,215.03,318.612,87.562,447.266c-13.786,13.785-26.865,20.455-46.373,15.699
				c-1.133-10.33-2.173-20.083,2.044-29.354C39.294,442.752,40.297,452.338,41.431,462.481z"/>
		</g>
		<g>
		</g>
	</g>
</g>
</svg>
