<?xml version="1.0" encoding="utf-8"?>
<!-- Generator: Adobe Illustrator 19.1.0, SVG Export Plug-In . SVG Version: 6.00 Build 0)  -->
<svg version="1.1" id="Layer_1" xmlns="http://www.w3.org/2000/svg" xmlns:xlink="http://www.w3.org/1999/xlink" x="0px" y="0px"
	 viewBox="-225.8 251 465.4 512" style="enable-background:new -225.8 251 465.4 512;" xml:space="preserve">
<path d="M7.9,660.6c113.1,0,204.8-91.7,204.8-204.8S121,251,7.9,251s-204.8,91.7-204.8,204.8S-105.2,660.6,7.9,660.6L7.9,660.6z
	 M7.9,353.4c56.6,0,102.4,45.9,102.4,102.4S64.5,558.2,7.9,558.2S-94.5,512.3-94.5,455.8S-48.7,353.4,7.9,353.4L7.9,353.4z"/>
<path d="M8.1,521C45,521,75,491,75,454.1s-30-66.9-66.9-66.9s-66.9,30-66.9,66.9C-58.8,491-28.8,521,8.1,521L8.1,521z M24.9,420.6
	c9.2,0,16.8,7.5,16.8,16.8c0,9.3-7.6,16.9-16.8,16.9c-9.3,0-16.9-7.6-16.9-16.9C8,428.1,15.5,420.6,24.9,420.6L24.9,420.6z"/>
<path d="M182,620.4c-42.6,48.7-105.2,79.7-175.1,79.7s-132.4-31-175.1-79.7c-35.8,25.6-57.6,59.1-57.6,95.9
	c0,80.5,104.2,32.5,232.7,32.5s232.7,48.1,232.7-32.5C239.7,679.5,217.9,646,182,620.4L182,620.4z"/>
</svg>
