<svg id="Layer_1" xmlns="http://www.w3.org/2000/svg" xmlns:xlink="http://www.w3.org/1999/xlink" viewBox="0 0 141.4 55.4">
  <style>
    .st0{clip-path:url(#SVGID_1_);fill:#DADFE1;}
  </style>
  <defs>
    <path id="SVGID_3_" d="M0 0h141.4v55.4H0z"/>
  </defs>
  <clipPath id="SVGID_1_">
    <use xlink:href="#SVGID_3_" overflow="visible"/>
  </clipPath>
  <path class="st0" d="M0 20.4l3.4-4.1C5 17.6 7 18.5 8.7 18.5c1.8 0 2.6-.6 2.6-1.6 0-1.1-1.2-1.4-3.1-2.2l-2.8-1.2C2.9 12.5.8 10.4.8 7.1.8 3.2 4.4 0 9.3 0c2.6 0 5.5 1 7.6 3.1l-3 3.8C12.4 5.8 11 5.2 9.3 5.2 7.9 5.2 7 5.7 7 6.7 7 7.8 8.3 8.2 10.3 9l2.8 1.1c2.8 1.1 4.5 3.1 4.5 6.3 0 3.9-3.2 7.3-8.9 7.3-2.9 0-6.2-1.1-8.7-3.3M19.5.4h14.8v5.1h-8.7v3.6H33v5h-7.4v4.1h9v5.1H19.5zM35.6 12c0-7.7 5.3-12 11-12 3 0 5.5 1.4 7.1 3l-3.2 3.9c-1.1-1-2.2-1.7-3.8-1.7-2.7 0-5 2.5-5 6.6 0 4.3 2 6.7 4.9 6.7 1.8 0 3.2-.9 4.1-2l3.2 3.8c-1.9 2.2-4.6 3.4-7.5 3.4-5.8 0-10.8-3.9-10.8-11.7m20.7.2V.4h6v12.5c0 4.1 1.1 5.6 3.4 5.6 2.4 0 3.5-1.5 3.5-5.6V.4H75v11.8c0 7.8-2.9 11.5-9.3 11.5-6.3 0-9.4-3.7-9.4-11.5m34.9 11.1l-3.9-7.7H85v7.7h-6V.4h8.6c4.9 0 9.1 1.7 9.1 7.4 0 3.3-1.5 5.4-3.7 6.6l5 8.9h-6.8zm-6.3-12.5h2.2c2.4 0 3.7-1.1 3.7-3 0-2-1.3-2.6-3.7-2.6h-2.2v5.6zm14.3 1.4V.4h6v12.5c0 4.1 1.1 5.6 3.4 5.6 2.4 0 3.5-1.5 3.5-5.6V.4h5.8v11.8c0 7.8-3 11.5-9.3 11.5-6.3 0-9.4-3.7-9.4-11.5m20.3 8.2l3.4-4.1c1.6 1.3 3.7 2.2 5.3 2.2 1.8 0 2.6-.6 2.6-1.6 0-1.1-1.2-1.4-3.1-2.2l-2.8-1.2c-2.5-1-4.6-3.1-4.6-6.4 0-3.9 3.5-7.1 8.5-7.1 2.6 0 5.5 1 7.6 3.1l-3 3.8c-1.5-1.1-2.9-1.7-4.6-1.7-1.5 0-2.4.5-2.4 1.5 0 1.1 1.3 1.5 3.4 2.3l2.8 1.1c2.8 1.1 4.5 3.1 4.5 6.3 0 3.9-3.2 7.3-8.9 7.3-2.9 0-6.2-1.1-8.7-3.3M6.3 31.9H.5v-1.1h12.8v1.1H7.5V49H6.3zm6 10.5c0-4.3 2.8-7 5.8-7 3.1 0 5.1 2.2 5.1 6.1 0 .3 0 .7-.1 1h-9.5c.1 3.3 2 5.7 5 5.7 1.4 0 2.6-.5 3.6-1.2l.5.9c-1 .6-2.2 1.3-4.2 1.3-3.5.1-6.2-2.5-6.2-6.8m9.6-.9c0-3.4-1.5-5.1-3.9-5.1-2.3 0-4.3 1.9-4.6 5.1h8.5zm3.7.9c0-4.4 2.8-7 6-7 1.8 0 3 .8 3.9 1.6l-.7.9c-.9-.8-1.8-1.4-3.1-1.4-2.7 0-4.8 2.4-4.8 5.9 0 3.5 1.9 5.9 4.8 5.9 1.4 0 2.6-.7 3.5-1.5l.6.9c-1.1 1-2.5 1.7-4.2 1.7-3.4-.1-6-2.6-6-7m12.9-13.3h1.2v8.7c1.4-1.4 2.8-2.4 4.6-2.4 2.7 0 4 1.7 4 5.1V49h-1.2v-8.3c0-2.8-.9-4.1-3-4.1-1.6 0-2.7.8-4.3 2.5v10h-1.2v-20zm12.9 6.6h1l.1 2h.1c1.4-1.4 2.7-2.4 4.6-2.4 2.7 0 4 1.7 4 5.1V49H60v-8.3c0-2.8-.9-4.1-3-4.1-1.6 0-2.7.8-4.3 2.5v10h-1.2V35.7zm11.9 6.7c0-4.4 2.8-7 5.9-7 3.2 0 6 2.5 6 7 0 4.4-2.8 6.9-6 6.9-3.1 0-5.9-2.5-5.9-6.9m10.7 0c0-3.5-2-5.9-4.7-5.9s-4.7 2.4-4.7 5.9c0 3.5 2 5.9 4.7 5.9 2.6-.1 4.7-2.4 4.7-5.9m3.6 4.8V29.1h1.2v18.2c0 .6.2.9.6.9.1 0 .2 0 .5-.1l.2 1c-.2.1-.5.1-.9.1-1.1.1-1.6-.5-1.6-2m4.8-4.8c0-4.4 2.8-7 5.9-7 3.2 0 6 2.5 6 7 0 4.4-2.8 6.9-6 6.9-3.1 0-5.9-2.5-5.9-6.9m10.6 0c0-3.5-2-5.9-4.7-5.9s-4.7 2.4-4.7 5.9c0 3.5 2 5.9 4.7 5.9 2.7-.1 4.7-2.4 4.7-5.9m3.1 9.3c0-1.2.7-2.3 2-3.2v-.1c-.7-.4-1.2-1.1-1.2-2.1 0-1.2.9-2 1.4-2.4v-.1c-.8-.7-1.7-2-1.7-3.6 0-2.7 2.1-4.7 4.7-4.7.7 0 1.3.2 1.7.3h4.5v1h-3.1c.9.7 1.5 1.9 1.5 3.3 0 2.7-2 4.7-4.6 4.7-.7 0-1.6-.2-2.2-.6-.6.5-1.1 1-1.1 1.9 0 1 .6 1.7 2.5 1.7h2.8c3 0 4.4.9 4.4 3 0 2.3-2.5 4.5-6.3 4.5-3.2.1-5.3-1.4-5.3-3.6m10.4-.7c0-1.5-1.1-2-3.1-2h-2.8c-.3 0-1-.1-1.7-.2-1.2.8-1.7 1.9-1.7 2.8 0 1.7 1.6 2.8 4.4 2.8 3 0 4.9-1.7 4.9-3.4m-1.8-10.9c0-2.2-1.5-3.7-3.4-3.7s-3.4 1.4-3.4 3.7c0 2.2 1.6 3.7 3.4 3.7 1.8 0 3.4-1.5 3.4-3.7m5.4-8.6c0-.7.5-1.1 1.1-1.1.6 0 1.1.4 1.1 1.1 0 .6-.5 1.1-1.1 1.1-.6-.1-1.1-.5-1.1-1.1m.5 4.2h1.2V49h-1.2V35.7zm4.1 6.7c0-4.3 2.8-7 5.8-7 3.1 0 5.1 2.2 5.1 6.1 0 .3 0 .7-.1 1H116c.1 3.3 2 5.7 5 5.7 1.4 0 2.6-.5 3.6-1.2l.4 1c-1 .6-2.2 1.3-4.2 1.3-3.4 0-6.1-2.6-6.1-6.9m9.7-.9c0-3.4-1.5-5.1-3.9-5.1-2.3 0-4.3 1.9-4.6 5.1h8.5zm3.1 6l.7-.9c1.1.9 2.3 1.7 4.2 1.7 2.1 0 3.1-1.2 3.1-2.6 0-1.7-1.7-2.4-3.2-2.9-2-.7-4.2-1.5-4.2-3.8 0-1.9 1.5-3.5 4.3-3.5 1.4 0 2.8.6 3.8 1.4l-.7.9c-.9-.7-1.8-1.2-3.2-1.2-2 0-3 1.2-3 2.4 0 1.5 1.5 2.1 3.1 2.7 2.1.8 4.3 1.5 4.3 4.1 0 2-1.6 3.7-4.5 3.7-1.8-.2-3.5-1-4.7-2m10.6-10.1h-.2v-2.2h-.8V35h1.7v.2h-.7zm2.1 0l-.9-2.2v2.2h-.2V35h.3l.9 2.1.8-2.1h.3v2.4h-.2v-2.2l-.9 2.2h-.1z"/>
</svg>